G75*
%MOIN*%
%OFA0B0*%
%FSLAX24Y24*%
%IPPOS*%
%LPD*%
%AMOC8*
5,1,8,0,0,1.08239X$1,22.5*
%
%ADD10C,0.0000*%
%ADD11C,0.0118*%
%ADD12R,0.0531X0.0157*%
%ADD13C,0.0001*%
%ADD14R,0.0197X0.1181*%
%ADD15C,0.0060*%
%ADD16C,0.0560*%
%ADD17C,0.0050*%
%ADD18R,0.0240X0.0240*%
%ADD19C,0.0020*%
%ADD20C,0.0040*%
%ADD21R,0.0709X0.0630*%
%ADD22R,0.0669X0.0295*%
%ADD23R,0.0630X0.0710*%
%ADD24R,0.0290X0.0690*%
%ADD25OC8,0.0600*%
%ADD26R,0.0200X0.0200*%
%ADD27C,0.0160*%
D10*
X000100Y000100D02*
X000100Y039470D01*
X063092Y039470D01*
X063092Y000100D01*
X000100Y000100D01*
X006600Y029950D02*
X006600Y030750D01*
X006200Y030350D02*
X007000Y030350D01*
X005600Y032549D02*
X009754Y033972D01*
X010200Y034100D02*
X011000Y034100D01*
X011181Y034148D02*
X017077Y034148D01*
X017274Y034384D01*
X019991Y034384D01*
X020187Y034148D01*
X020581Y034148D01*
X020581Y035329D01*
X020187Y035329D01*
X019991Y035093D01*
X017274Y035093D01*
X017077Y035329D01*
X013141Y035329D01*
X012120Y034308D01*
X011181Y034308D01*
X011181Y034148D01*
X010462Y034100D02*
X010464Y034123D01*
X010470Y034146D01*
X010480Y034167D01*
X010493Y034187D01*
X010509Y034204D01*
X010528Y034218D01*
X010549Y034228D01*
X010571Y034235D01*
X010594Y034238D01*
X010618Y034237D01*
X010640Y034232D01*
X010662Y034223D01*
X010682Y034211D01*
X010700Y034195D01*
X010714Y034177D01*
X010726Y034157D01*
X010734Y034135D01*
X010738Y034112D01*
X010738Y034088D01*
X010734Y034065D01*
X010726Y034043D01*
X010714Y034023D01*
X010700Y034005D01*
X010682Y033989D01*
X010662Y033977D01*
X010640Y033968D01*
X010618Y033963D01*
X010594Y033962D01*
X010571Y033965D01*
X010549Y033972D01*
X010528Y033982D01*
X010509Y033996D01*
X010493Y034013D01*
X010480Y034033D01*
X010470Y034054D01*
X010464Y034077D01*
X010462Y034100D01*
X010600Y033700D02*
X010600Y034500D01*
X010462Y034651D02*
X010464Y034674D01*
X010470Y034697D01*
X010480Y034718D01*
X010493Y034738D01*
X010509Y034755D01*
X010528Y034769D01*
X010549Y034779D01*
X010571Y034786D01*
X010594Y034789D01*
X010618Y034788D01*
X010640Y034783D01*
X010662Y034774D01*
X010682Y034762D01*
X010700Y034746D01*
X010714Y034728D01*
X010726Y034708D01*
X010734Y034686D01*
X010738Y034663D01*
X010738Y034639D01*
X010734Y034616D01*
X010726Y034594D01*
X010714Y034574D01*
X010700Y034556D01*
X010682Y034540D01*
X010662Y034528D01*
X010640Y034519D01*
X010618Y034514D01*
X010594Y034513D01*
X010571Y034516D01*
X010549Y034523D01*
X010528Y034533D01*
X010509Y034547D01*
X010493Y034564D01*
X010480Y034584D01*
X010470Y034605D01*
X010464Y034628D01*
X010462Y034651D01*
X010462Y035202D02*
X010464Y035225D01*
X010470Y035248D01*
X010480Y035269D01*
X010493Y035289D01*
X010509Y035306D01*
X010528Y035320D01*
X010549Y035330D01*
X010571Y035337D01*
X010594Y035340D01*
X010618Y035339D01*
X010640Y035334D01*
X010662Y035325D01*
X010682Y035313D01*
X010700Y035297D01*
X010714Y035279D01*
X010726Y035259D01*
X010734Y035237D01*
X010738Y035214D01*
X010738Y035190D01*
X010734Y035167D01*
X010726Y035145D01*
X010714Y035125D01*
X010700Y035107D01*
X010682Y035091D01*
X010662Y035079D01*
X010640Y035070D01*
X010618Y035065D01*
X010594Y035064D01*
X010571Y035067D01*
X010549Y035074D01*
X010528Y035084D01*
X010509Y035098D01*
X010493Y035115D01*
X010480Y035135D01*
X010470Y035156D01*
X010464Y035179D01*
X010462Y035202D01*
X010207Y035759D02*
X010993Y035759D01*
X010993Y032504D01*
X010207Y032504D01*
X010207Y035759D01*
X010462Y033549D02*
X010464Y033572D01*
X010470Y033595D01*
X010480Y033616D01*
X010493Y033636D01*
X010509Y033653D01*
X010528Y033667D01*
X010549Y033677D01*
X010571Y033684D01*
X010594Y033687D01*
X010618Y033686D01*
X010640Y033681D01*
X010662Y033672D01*
X010682Y033660D01*
X010700Y033644D01*
X010714Y033626D01*
X010726Y033606D01*
X010734Y033584D01*
X010738Y033561D01*
X010738Y033537D01*
X010734Y033514D01*
X010726Y033492D01*
X010714Y033472D01*
X010700Y033454D01*
X010682Y033438D01*
X010662Y033426D01*
X010640Y033417D01*
X010618Y033412D01*
X010594Y033411D01*
X010571Y033414D01*
X010549Y033421D01*
X010528Y033431D01*
X010509Y033445D01*
X010493Y033462D01*
X010480Y033482D01*
X010470Y033503D01*
X010464Y033526D01*
X010462Y033549D01*
X010462Y032998D02*
X010464Y033021D01*
X010470Y033044D01*
X010480Y033065D01*
X010493Y033085D01*
X010509Y033102D01*
X010528Y033116D01*
X010549Y033126D01*
X010571Y033133D01*
X010594Y033136D01*
X010618Y033135D01*
X010640Y033130D01*
X010662Y033121D01*
X010682Y033109D01*
X010700Y033093D01*
X010714Y033075D01*
X010726Y033055D01*
X010734Y033033D01*
X010738Y033010D01*
X010738Y032986D01*
X010734Y032963D01*
X010726Y032941D01*
X010714Y032921D01*
X010700Y032903D01*
X010682Y032887D01*
X010662Y032875D01*
X010640Y032866D01*
X010618Y032861D01*
X010594Y032860D01*
X010571Y032863D01*
X010549Y032870D01*
X010528Y032880D01*
X010509Y032894D01*
X010493Y032911D01*
X010480Y032931D01*
X010470Y032952D01*
X010464Y032975D01*
X010462Y032998D01*
X006000Y033100D02*
X005200Y033100D01*
X005600Y032700D02*
X005600Y033500D01*
X004100Y034200D02*
X004100Y035000D01*
X003700Y034600D02*
X004500Y034600D01*
X002000Y034600D02*
X001200Y034600D01*
X001600Y034200D02*
X001600Y035000D01*
D11*
X010009Y034691D02*
X010009Y033509D01*
X011191Y033509D01*
X011191Y034691D01*
X010009Y034691D01*
D12*
X009754Y034484D03*
X009754Y034228D03*
X009754Y033972D03*
X009754Y033716D03*
X011446Y033716D03*
X011446Y033972D03*
X011446Y034484D03*
D13*
X011181Y034307D02*
X017210Y034307D01*
X017209Y034306D02*
X011181Y034306D01*
X011181Y034305D02*
X017208Y034305D01*
X017208Y034304D02*
X011181Y034304D01*
X011181Y034303D02*
X017207Y034303D01*
X017206Y034302D02*
X011181Y034302D01*
X011181Y034301D02*
X017205Y034301D01*
X017204Y034300D02*
X011181Y034300D01*
X011181Y034299D02*
X017203Y034299D01*
X017203Y034298D02*
X011181Y034298D01*
X011181Y034297D02*
X017202Y034297D01*
X017201Y034296D02*
X011181Y034296D01*
X011181Y034295D02*
X017200Y034295D01*
X017199Y034294D02*
X011181Y034294D01*
X011181Y034293D02*
X017198Y034293D01*
X017198Y034292D02*
X011181Y034292D01*
X011181Y034291D02*
X017197Y034291D01*
X017196Y034290D02*
X011181Y034290D01*
X011181Y034289D02*
X017195Y034289D01*
X017194Y034288D02*
X011181Y034288D01*
X011181Y034287D02*
X017193Y034287D01*
X017193Y034286D02*
X011181Y034286D01*
X011181Y034285D02*
X017192Y034285D01*
X017191Y034284D02*
X011181Y034284D01*
X011181Y034283D02*
X017190Y034283D01*
X017189Y034282D02*
X011181Y034282D01*
X011181Y034281D02*
X017188Y034281D01*
X017188Y034280D02*
X011181Y034280D01*
X011181Y034279D02*
X017187Y034279D01*
X017186Y034278D02*
X011181Y034278D01*
X011181Y034277D02*
X017185Y034277D01*
X017184Y034276D02*
X011181Y034276D01*
X011181Y034275D02*
X017183Y034275D01*
X017183Y034274D02*
X011181Y034274D01*
X011181Y034273D02*
X017182Y034273D01*
X017181Y034272D02*
X011181Y034272D01*
X011181Y034271D02*
X017180Y034271D01*
X017179Y034270D02*
X011181Y034270D01*
X011181Y034269D02*
X017178Y034269D01*
X017178Y034268D02*
X011181Y034268D01*
X011181Y034267D02*
X017177Y034267D01*
X017176Y034266D02*
X011181Y034266D01*
X011181Y034265D02*
X017175Y034265D01*
X017174Y034264D02*
X011181Y034264D01*
X011181Y034263D02*
X017173Y034263D01*
X017173Y034262D02*
X011181Y034262D01*
X011181Y034261D02*
X017172Y034261D01*
X017171Y034260D02*
X011181Y034260D01*
X011181Y034259D02*
X017170Y034259D01*
X017169Y034258D02*
X011181Y034258D01*
X011181Y034257D02*
X017168Y034257D01*
X017168Y034256D02*
X011181Y034256D01*
X011181Y034255D02*
X017167Y034255D01*
X017166Y034254D02*
X011181Y034254D01*
X011181Y034253D02*
X017165Y034253D01*
X017164Y034252D02*
X011181Y034252D01*
X011181Y034251D02*
X017163Y034251D01*
X017163Y034250D02*
X011181Y034250D01*
X011181Y034249D02*
X017162Y034249D01*
X017161Y034248D02*
X011181Y034248D01*
X011181Y034247D02*
X017160Y034247D01*
X017159Y034246D02*
X011181Y034246D01*
X011181Y034245D02*
X017158Y034245D01*
X017158Y034244D02*
X011181Y034244D01*
X011181Y034243D02*
X017157Y034243D01*
X017156Y034242D02*
X011181Y034242D01*
X011181Y034241D02*
X017155Y034241D01*
X017154Y034240D02*
X011181Y034240D01*
X011181Y034239D02*
X017153Y034239D01*
X017153Y034238D02*
X011181Y034238D01*
X011181Y034237D02*
X017152Y034237D01*
X017151Y034236D02*
X011181Y034236D01*
X011181Y034235D02*
X017150Y034235D01*
X017149Y034234D02*
X011181Y034234D01*
X011181Y034233D02*
X017148Y034233D01*
X017148Y034232D02*
X011181Y034232D01*
X011181Y034231D02*
X017147Y034231D01*
X017146Y034230D02*
X011181Y034230D01*
X011181Y034229D02*
X017145Y034229D01*
X017144Y034228D02*
X011181Y034228D01*
X011181Y034227D02*
X017143Y034227D01*
X017143Y034226D02*
X011181Y034226D01*
X011181Y034225D02*
X017142Y034225D01*
X017141Y034224D02*
X011181Y034224D01*
X011181Y034223D02*
X017140Y034223D01*
X017139Y034222D02*
X011181Y034222D01*
X011181Y034221D02*
X017138Y034221D01*
X017138Y034220D02*
X011181Y034220D01*
X011181Y034219D02*
X017137Y034219D01*
X017136Y034218D02*
X011181Y034218D01*
X011181Y034217D02*
X017135Y034217D01*
X017134Y034216D02*
X011181Y034216D01*
X011181Y034215D02*
X017133Y034215D01*
X017133Y034214D02*
X011181Y034214D01*
X011181Y034213D02*
X017132Y034213D01*
X017131Y034212D02*
X011181Y034212D01*
X011181Y034211D02*
X017130Y034211D01*
X017129Y034210D02*
X011181Y034210D01*
X011181Y034209D02*
X017128Y034209D01*
X017128Y034208D02*
X011181Y034208D01*
X011181Y034207D02*
X017127Y034207D01*
X017126Y034206D02*
X011181Y034206D01*
X011181Y034205D02*
X017125Y034205D01*
X017124Y034204D02*
X011181Y034204D01*
X011181Y034203D02*
X017123Y034203D01*
X017123Y034202D02*
X011181Y034202D01*
X011181Y034201D02*
X017122Y034201D01*
X017121Y034200D02*
X011181Y034200D01*
X011181Y034199D02*
X017120Y034199D01*
X017119Y034198D02*
X011181Y034198D01*
X011181Y034197D02*
X017118Y034197D01*
X017118Y034196D02*
X011181Y034196D01*
X011181Y034195D02*
X017117Y034195D01*
X017116Y034194D02*
X011181Y034194D01*
X011181Y034193D02*
X017115Y034193D01*
X017114Y034192D02*
X011181Y034192D01*
X011181Y034191D02*
X017113Y034191D01*
X017113Y034190D02*
X011181Y034190D01*
X011181Y034189D02*
X017112Y034189D01*
X017111Y034188D02*
X011181Y034188D01*
X011181Y034187D02*
X017110Y034187D01*
X017109Y034186D02*
X011181Y034186D01*
X011181Y034185D02*
X017108Y034185D01*
X017108Y034184D02*
X011181Y034184D01*
X011181Y034183D02*
X017107Y034183D01*
X017106Y034182D02*
X011181Y034182D01*
X011181Y034181D02*
X017105Y034181D01*
X017104Y034180D02*
X011181Y034180D01*
X011181Y034179D02*
X017103Y034179D01*
X017103Y034178D02*
X011181Y034178D01*
X011181Y034177D02*
X017102Y034177D01*
X017101Y034176D02*
X011181Y034176D01*
X011181Y034175D02*
X017100Y034175D01*
X017099Y034174D02*
X011181Y034174D01*
X011181Y034173D02*
X017098Y034173D01*
X017098Y034172D02*
X011181Y034172D01*
X011181Y034171D02*
X017097Y034171D01*
X017096Y034170D02*
X011181Y034170D01*
X011181Y034169D02*
X017095Y034169D01*
X017094Y034168D02*
X011181Y034168D01*
X011181Y034167D02*
X017093Y034167D01*
X017093Y034166D02*
X011181Y034166D01*
X011181Y034165D02*
X017092Y034165D01*
X017091Y034164D02*
X011181Y034164D01*
X011181Y034163D02*
X017090Y034163D01*
X017089Y034162D02*
X011181Y034162D01*
X011181Y034161D02*
X017088Y034161D01*
X017088Y034160D02*
X011181Y034160D01*
X011181Y034159D02*
X017087Y034159D01*
X017086Y034158D02*
X011181Y034158D01*
X011181Y034157D02*
X017085Y034157D01*
X017084Y034156D02*
X011181Y034156D01*
X011181Y034155D02*
X017083Y034155D01*
X017083Y034154D02*
X011181Y034154D01*
X011181Y034153D02*
X017082Y034153D01*
X017081Y034152D02*
X011181Y034152D01*
X011181Y034151D02*
X017080Y034151D01*
X017079Y034150D02*
X011181Y034150D01*
X011181Y034149D02*
X017078Y034149D01*
X017078Y034148D02*
X011181Y034148D01*
X010993Y034148D02*
X010207Y034148D01*
X010207Y034147D02*
X010993Y034147D01*
X010993Y034146D02*
X010207Y034146D01*
X010207Y034145D02*
X010993Y034145D01*
X010993Y034144D02*
X010207Y034144D01*
X010207Y034143D02*
X010993Y034143D01*
X010993Y034142D02*
X010207Y034142D01*
X010207Y034141D02*
X010993Y034141D01*
X010993Y034140D02*
X010207Y034140D01*
X010207Y034139D02*
X010993Y034139D01*
X010993Y034138D02*
X010207Y034138D01*
X010207Y034137D02*
X010993Y034137D01*
X010993Y034136D02*
X010207Y034136D01*
X010207Y034135D02*
X010993Y034135D01*
X010993Y034134D02*
X010207Y034134D01*
X010207Y034133D02*
X010993Y034133D01*
X010993Y034132D02*
X010207Y034132D01*
X010207Y034131D02*
X010993Y034131D01*
X010993Y034130D02*
X010207Y034130D01*
X010207Y034129D02*
X010993Y034129D01*
X010993Y034128D02*
X010207Y034128D01*
X010207Y034127D02*
X010993Y034127D01*
X010993Y034126D02*
X010207Y034126D01*
X010207Y034125D02*
X010993Y034125D01*
X010993Y034124D02*
X010207Y034124D01*
X010207Y034123D02*
X010993Y034123D01*
X010993Y034122D02*
X010207Y034122D01*
X010207Y034121D02*
X010993Y034121D01*
X010993Y034120D02*
X010207Y034120D01*
X010207Y034119D02*
X010993Y034119D01*
X010993Y034118D02*
X010207Y034118D01*
X010207Y034117D02*
X010993Y034117D01*
X010993Y034116D02*
X010207Y034116D01*
X010207Y034115D02*
X010993Y034115D01*
X010993Y034114D02*
X010207Y034114D01*
X010207Y034113D02*
X010993Y034113D01*
X010993Y034112D02*
X010207Y034112D01*
X010207Y034111D02*
X010993Y034111D01*
X010993Y034110D02*
X010207Y034110D01*
X010207Y034109D02*
X010993Y034109D01*
X010993Y034108D02*
X010207Y034108D01*
X010207Y034107D02*
X010993Y034107D01*
X010993Y034106D02*
X010207Y034106D01*
X010207Y034105D02*
X010993Y034105D01*
X010993Y034104D02*
X010207Y034104D01*
X010207Y034103D02*
X010993Y034103D01*
X010207Y034103D01*
X010207Y034102D02*
X010993Y034102D01*
X010993Y034101D02*
X010207Y034101D01*
X010207Y034100D02*
X010993Y034100D01*
X010993Y034099D02*
X010207Y034099D01*
X010207Y034098D02*
X010993Y034098D01*
X010993Y034097D02*
X010207Y034097D01*
X010207Y034096D02*
X010993Y034096D01*
X010993Y034095D02*
X010207Y034095D01*
X010207Y034094D02*
X010993Y034094D01*
X010993Y034093D02*
X010207Y034093D01*
X010207Y034092D02*
X010993Y034092D01*
X010993Y034091D02*
X010207Y034091D01*
X010207Y034090D02*
X010993Y034090D01*
X010993Y034089D02*
X010207Y034089D01*
X010207Y034088D02*
X010993Y034088D01*
X010993Y034087D02*
X010207Y034087D01*
X010207Y034086D02*
X010993Y034086D01*
X010993Y034085D02*
X010207Y034085D01*
X010207Y034084D02*
X010993Y034084D01*
X010993Y034083D02*
X010207Y034083D01*
X010207Y034082D02*
X010993Y034082D01*
X010993Y034081D02*
X010207Y034081D01*
X010207Y034080D02*
X010993Y034080D01*
X010993Y034079D02*
X010207Y034079D01*
X010207Y034078D02*
X010993Y034078D01*
X010993Y034077D02*
X010207Y034077D01*
X010207Y034076D02*
X010993Y034076D01*
X010993Y034075D02*
X010207Y034075D01*
X010207Y034074D02*
X010993Y034074D01*
X010993Y034073D02*
X010207Y034073D01*
X010207Y034072D02*
X010993Y034072D01*
X010993Y034071D02*
X010207Y034071D01*
X010207Y034070D02*
X010993Y034070D01*
X010993Y034069D02*
X010207Y034069D01*
X010207Y034068D02*
X010993Y034068D01*
X010993Y034067D02*
X010207Y034067D01*
X010207Y034066D02*
X010993Y034066D01*
X010993Y034065D02*
X010207Y034065D01*
X010207Y034064D02*
X010993Y034064D01*
X010993Y034063D02*
X010207Y034063D01*
X010207Y034062D02*
X010993Y034062D01*
X010993Y034061D02*
X010207Y034061D01*
X010207Y034060D02*
X010993Y034060D01*
X010993Y034059D02*
X010207Y034059D01*
X010207Y034058D02*
X010993Y034058D01*
X010993Y034057D02*
X010207Y034057D01*
X010207Y034056D02*
X010993Y034056D01*
X010993Y034055D02*
X010207Y034055D01*
X010207Y034054D02*
X010993Y034054D01*
X010993Y034053D02*
X010207Y034053D01*
X010207Y034052D02*
X010993Y034052D01*
X010993Y034051D02*
X010207Y034051D01*
X010207Y034050D02*
X010993Y034050D01*
X010993Y034049D02*
X010207Y034049D01*
X010207Y034048D02*
X010993Y034048D01*
X010993Y034047D02*
X010207Y034047D01*
X010207Y034046D02*
X010993Y034046D01*
X010993Y034045D02*
X010207Y034045D01*
X010207Y034044D02*
X010993Y034044D01*
X010993Y034043D02*
X010207Y034043D01*
X010207Y034042D02*
X010993Y034042D01*
X010993Y034041D02*
X010207Y034041D01*
X010207Y034040D02*
X010993Y034040D01*
X010993Y034039D02*
X010207Y034039D01*
X010207Y034038D02*
X010993Y034038D01*
X010993Y034037D02*
X010207Y034037D01*
X010207Y034036D02*
X010993Y034036D01*
X010993Y034035D02*
X010207Y034035D01*
X010207Y034034D02*
X010993Y034034D01*
X010993Y034033D02*
X010207Y034033D01*
X010207Y034032D02*
X010993Y034032D01*
X010993Y034031D02*
X010207Y034031D01*
X010207Y034030D02*
X010993Y034030D01*
X010993Y034029D02*
X010207Y034029D01*
X010207Y034028D02*
X010993Y034028D01*
X010993Y034027D02*
X010207Y034027D01*
X010207Y034026D02*
X010993Y034026D01*
X010993Y034025D02*
X010207Y034025D01*
X010207Y034024D02*
X010993Y034024D01*
X010993Y034023D02*
X010207Y034023D01*
X010207Y034022D02*
X010993Y034022D01*
X010993Y034021D02*
X010207Y034021D01*
X010207Y034020D02*
X010993Y034020D01*
X010993Y034019D02*
X010207Y034019D01*
X010207Y034018D02*
X010993Y034018D01*
X010993Y034017D02*
X010207Y034017D01*
X010207Y034016D02*
X010993Y034016D01*
X010993Y034015D02*
X010207Y034015D01*
X010207Y034014D02*
X010993Y034014D01*
X010993Y034013D02*
X010207Y034013D01*
X010207Y034012D02*
X010993Y034012D01*
X010993Y034011D02*
X010207Y034011D01*
X010207Y034010D02*
X010993Y034010D01*
X010993Y034009D02*
X010207Y034009D01*
X010207Y034008D02*
X010993Y034008D01*
X010993Y034007D02*
X010207Y034007D01*
X010207Y034006D02*
X010993Y034006D01*
X010993Y034005D02*
X010207Y034005D01*
X010207Y034004D02*
X010993Y034004D01*
X010993Y034003D02*
X010207Y034003D01*
X010207Y034002D02*
X010993Y034002D01*
X010993Y034001D02*
X010207Y034001D01*
X010207Y034000D02*
X010993Y034000D01*
X010993Y033999D02*
X010207Y033999D01*
X010207Y033998D02*
X010993Y033998D01*
X010993Y033997D02*
X010207Y033997D01*
X010207Y033996D02*
X010993Y033996D01*
X010993Y033995D02*
X010207Y033995D01*
X010207Y033994D02*
X010993Y033994D01*
X010993Y033993D02*
X010207Y033993D01*
X010207Y033992D02*
X010993Y033992D01*
X010993Y033991D02*
X010207Y033991D01*
X010207Y033990D02*
X010993Y033990D01*
X010993Y033989D02*
X010207Y033989D01*
X010207Y033988D02*
X010993Y033988D01*
X010993Y033987D02*
X010207Y033987D01*
X010207Y033986D02*
X010993Y033986D01*
X010993Y033985D02*
X010207Y033985D01*
X010207Y033984D02*
X010993Y033984D01*
X010993Y033983D02*
X010207Y033983D01*
X010207Y033982D02*
X010993Y033982D01*
X010993Y033981D02*
X010207Y033981D01*
X010207Y033980D02*
X010993Y033980D01*
X010993Y033979D02*
X010207Y033979D01*
X010207Y033978D02*
X010993Y033978D01*
X010993Y033977D02*
X010207Y033977D01*
X010207Y033976D02*
X010993Y033976D01*
X010993Y033975D02*
X010207Y033975D01*
X010207Y033974D02*
X010993Y033974D01*
X010993Y033973D02*
X010207Y033973D01*
X010207Y033972D02*
X010993Y033972D01*
X010993Y033971D02*
X010207Y033971D01*
X010207Y033970D02*
X010993Y033970D01*
X010993Y033969D02*
X010207Y033969D01*
X010207Y033968D02*
X010993Y033968D01*
X010993Y033967D02*
X010207Y033967D01*
X010207Y033966D02*
X010993Y033966D01*
X010993Y033965D02*
X010207Y033965D01*
X010207Y033964D02*
X010993Y033964D01*
X010993Y033963D02*
X010207Y033963D01*
X010207Y033962D02*
X010993Y033962D01*
X010993Y033961D02*
X010207Y033961D01*
X010207Y033960D02*
X010993Y033960D01*
X010993Y033959D02*
X010207Y033959D01*
X010207Y033958D02*
X010993Y033958D01*
X010993Y033957D02*
X010207Y033957D01*
X010207Y033956D02*
X010993Y033956D01*
X010993Y033955D02*
X010207Y033955D01*
X010207Y033954D02*
X010993Y033954D01*
X010993Y033953D02*
X010207Y033953D01*
X010207Y033952D02*
X010993Y033952D01*
X010993Y033951D02*
X010207Y033951D01*
X010207Y033950D02*
X010993Y033950D01*
X010993Y033949D02*
X010207Y033949D01*
X010207Y033948D02*
X010993Y033948D01*
X010993Y033947D02*
X010207Y033947D01*
X010207Y033946D02*
X010993Y033946D01*
X010993Y033945D02*
X010207Y033945D01*
X010207Y033944D02*
X010993Y033944D01*
X010993Y033943D02*
X010207Y033943D01*
X010207Y033942D02*
X010993Y033942D01*
X010993Y033941D02*
X010207Y033941D01*
X010207Y033940D02*
X010993Y033940D01*
X010993Y033939D02*
X010207Y033939D01*
X010207Y033938D02*
X010993Y033938D01*
X010993Y033937D02*
X010207Y033937D01*
X010207Y033936D02*
X010993Y033936D01*
X010993Y033935D02*
X010207Y033935D01*
X010207Y033934D02*
X010993Y033934D01*
X010993Y033933D02*
X010207Y033933D01*
X010207Y033932D02*
X010993Y033932D01*
X010993Y033931D02*
X010207Y033931D01*
X010207Y033930D02*
X010993Y033930D01*
X010993Y033929D02*
X010207Y033929D01*
X010207Y033928D02*
X010993Y033928D01*
X010993Y033927D02*
X010207Y033927D01*
X010207Y033926D02*
X010993Y033926D01*
X010993Y033925D02*
X010207Y033925D01*
X010207Y033924D02*
X010993Y033924D01*
X010993Y033923D02*
X010207Y033923D01*
X010207Y033922D02*
X010993Y033922D01*
X010993Y033921D02*
X010207Y033921D01*
X010207Y033920D02*
X010993Y033920D01*
X010993Y033919D02*
X010207Y033919D01*
X010207Y033918D02*
X010993Y033918D01*
X010993Y033917D02*
X010207Y033917D01*
X010207Y033916D02*
X010993Y033916D01*
X010993Y033915D02*
X010207Y033915D01*
X010207Y033914D02*
X010993Y033914D01*
X010993Y033913D02*
X010207Y033913D01*
X010207Y033912D02*
X010993Y033912D01*
X010993Y033911D02*
X010207Y033911D01*
X010207Y033910D02*
X010993Y033910D01*
X010993Y033909D02*
X010207Y033909D01*
X010207Y033908D02*
X010993Y033908D01*
X010993Y033907D02*
X010207Y033907D01*
X010207Y033906D02*
X010993Y033906D01*
X010993Y033905D02*
X010207Y033905D01*
X010207Y033904D02*
X010993Y033904D01*
X010993Y033903D02*
X010207Y033903D01*
X010207Y033902D02*
X010993Y033902D01*
X010993Y033901D02*
X010207Y033901D01*
X010207Y033900D02*
X010993Y033900D01*
X010993Y033899D02*
X010207Y033899D01*
X010207Y033898D02*
X010993Y033898D01*
X010993Y033897D02*
X010207Y033897D01*
X010207Y033896D02*
X010993Y033896D01*
X010993Y033895D02*
X010207Y033895D01*
X010207Y033894D02*
X010993Y033894D01*
X010993Y033893D02*
X010207Y033893D01*
X010207Y033892D02*
X010993Y033892D01*
X010993Y033891D02*
X010207Y033891D01*
X010207Y033890D02*
X010993Y033890D01*
X010993Y033889D02*
X010207Y033889D01*
X010207Y033888D02*
X010993Y033888D01*
X010993Y033887D02*
X010207Y033887D01*
X010207Y033886D02*
X010993Y033886D01*
X010993Y033885D02*
X010207Y033885D01*
X010207Y033884D02*
X010993Y033884D01*
X010993Y033883D02*
X010207Y033883D01*
X010207Y033882D02*
X010993Y033882D01*
X010993Y033881D02*
X010207Y033881D01*
X010207Y033880D02*
X010993Y033880D01*
X010993Y033879D02*
X010207Y033879D01*
X010207Y033878D02*
X010993Y033878D01*
X010993Y033877D02*
X010207Y033877D01*
X010207Y033876D02*
X010993Y033876D01*
X010993Y033875D02*
X010207Y033875D01*
X010207Y033874D02*
X010993Y033874D01*
X010993Y033873D02*
X010207Y033873D01*
X010207Y033872D02*
X010993Y033872D01*
X010993Y033871D02*
X010207Y033871D01*
X010207Y033870D02*
X010993Y033870D01*
X010993Y033869D02*
X010207Y033869D01*
X010207Y033868D02*
X010993Y033868D01*
X010993Y033867D02*
X010207Y033867D01*
X010207Y033866D02*
X010993Y033866D01*
X010993Y033865D02*
X010207Y033865D01*
X010207Y033864D02*
X010993Y033864D01*
X010993Y033863D02*
X010207Y033863D01*
X010207Y033862D02*
X010993Y033862D01*
X010993Y033861D02*
X010207Y033861D01*
X010207Y033860D02*
X010993Y033860D01*
X010993Y033859D02*
X010207Y033859D01*
X010207Y033858D02*
X010993Y033858D01*
X010993Y033857D02*
X010207Y033857D01*
X010207Y033856D02*
X010993Y033856D01*
X010993Y033855D02*
X010207Y033855D01*
X010207Y033854D02*
X010993Y033854D01*
X010993Y033853D02*
X010207Y033853D01*
X010207Y033852D02*
X010993Y033852D01*
X010993Y033851D02*
X010207Y033851D01*
X010207Y033850D02*
X010993Y033850D01*
X010993Y033849D02*
X010207Y033849D01*
X010207Y033848D02*
X010993Y033848D01*
X010993Y033847D02*
X010207Y033847D01*
X010207Y033846D02*
X010993Y033846D01*
X010993Y033845D02*
X010207Y033845D01*
X010207Y033844D02*
X010993Y033844D01*
X010993Y033843D02*
X010207Y033843D01*
X010207Y033842D02*
X010993Y033842D01*
X010993Y033841D02*
X010207Y033841D01*
X010207Y033840D02*
X010993Y033840D01*
X010993Y033839D02*
X010207Y033839D01*
X010207Y033838D02*
X010993Y033838D01*
X010993Y033837D02*
X010207Y033837D01*
X010207Y033836D02*
X010993Y033836D01*
X010993Y033835D02*
X010207Y033835D01*
X010207Y033834D02*
X010993Y033834D01*
X010993Y033833D02*
X010207Y033833D01*
X010207Y033832D02*
X010993Y033832D01*
X010993Y033831D02*
X010207Y033831D01*
X010207Y033830D02*
X010993Y033830D01*
X010993Y033829D02*
X010207Y033829D01*
X010207Y033828D02*
X010993Y033828D01*
X010993Y033827D02*
X010207Y033827D01*
X010207Y033826D02*
X010993Y033826D01*
X010993Y033825D02*
X010207Y033825D01*
X010207Y033824D02*
X010993Y033824D01*
X010993Y033823D02*
X010207Y033823D01*
X010207Y033822D02*
X010993Y033822D01*
X010993Y033821D02*
X010207Y033821D01*
X010207Y033820D02*
X010993Y033820D01*
X010993Y033819D02*
X010207Y033819D01*
X010207Y033818D02*
X010993Y033818D01*
X010993Y033817D02*
X010207Y033817D01*
X010207Y033816D02*
X010993Y033816D01*
X010993Y033815D02*
X010207Y033815D01*
X010207Y033814D02*
X010993Y033814D01*
X010993Y033813D02*
X010207Y033813D01*
X010207Y033812D02*
X010993Y033812D01*
X010993Y033811D02*
X010207Y033811D01*
X010207Y033810D02*
X010993Y033810D01*
X010993Y033809D02*
X010207Y033809D01*
X010207Y033808D02*
X010993Y033808D01*
X010993Y033807D02*
X010207Y033807D01*
X010207Y033806D02*
X010993Y033806D01*
X010993Y033805D02*
X010207Y033805D01*
X010207Y033804D02*
X010993Y033804D01*
X010993Y033803D02*
X010207Y033803D01*
X010207Y033802D02*
X010993Y033802D01*
X010993Y033801D02*
X010207Y033801D01*
X010207Y033800D02*
X010993Y033800D01*
X010993Y033799D02*
X010207Y033799D01*
X010207Y033798D02*
X010993Y033798D01*
X010993Y033797D02*
X010207Y033797D01*
X010207Y033796D02*
X010993Y033796D01*
X010993Y033795D02*
X010207Y033795D01*
X010207Y033794D02*
X010993Y033794D01*
X010993Y033793D02*
X010207Y033793D01*
X010207Y033792D02*
X010993Y033792D01*
X010993Y033791D02*
X010207Y033791D01*
X010207Y033790D02*
X010993Y033790D01*
X010993Y033789D02*
X010207Y033789D01*
X010207Y033788D02*
X010993Y033788D01*
X010993Y033787D02*
X010207Y033787D01*
X010207Y033786D02*
X010993Y033786D01*
X010993Y033785D02*
X010207Y033785D01*
X010207Y033784D02*
X010993Y033784D01*
X010993Y033783D02*
X010207Y033783D01*
X010207Y033782D02*
X010993Y033782D01*
X010993Y033781D02*
X010207Y033781D01*
X010207Y033780D02*
X010993Y033780D01*
X010993Y033779D02*
X010207Y033779D01*
X010207Y033778D02*
X010993Y033778D01*
X010993Y033777D02*
X010207Y033777D01*
X010207Y033776D02*
X010993Y033776D01*
X010993Y033775D02*
X010207Y033775D01*
X010207Y033774D02*
X010993Y033774D01*
X010993Y033773D02*
X010207Y033773D01*
X010207Y033772D02*
X010993Y033772D01*
X010993Y033771D02*
X010207Y033771D01*
X010207Y033770D02*
X010993Y033770D01*
X010993Y033769D02*
X010207Y033769D01*
X010207Y033768D02*
X010993Y033768D01*
X010993Y033767D02*
X010207Y033767D01*
X010207Y033766D02*
X010993Y033766D01*
X010993Y033765D02*
X010207Y033765D01*
X010207Y033764D02*
X010993Y033764D01*
X010993Y033763D02*
X010207Y033763D01*
X010207Y033762D02*
X010993Y033762D01*
X010993Y033761D02*
X010207Y033761D01*
X010207Y033760D02*
X010993Y033760D01*
X010993Y033759D02*
X010207Y033759D01*
X010207Y033758D02*
X010993Y033758D01*
X010993Y033757D02*
X010207Y033757D01*
X010207Y033756D02*
X010993Y033756D01*
X010993Y033755D02*
X010207Y033755D01*
X010207Y033754D02*
X010993Y033754D01*
X010993Y033753D02*
X010207Y033753D01*
X010207Y033752D02*
X010993Y033752D01*
X010993Y033751D02*
X010207Y033751D01*
X010207Y033750D02*
X010993Y033750D01*
X010993Y033749D02*
X010207Y033749D01*
X010207Y033748D02*
X010993Y033748D01*
X010993Y033747D02*
X010207Y033747D01*
X010207Y033746D02*
X010993Y033746D01*
X010993Y033745D02*
X010207Y033745D01*
X010207Y033744D02*
X010993Y033744D01*
X010993Y033743D02*
X010207Y033743D01*
X010207Y033742D02*
X010993Y033742D01*
X010993Y033741D02*
X010207Y033741D01*
X010207Y033740D02*
X010993Y033740D01*
X010993Y033739D02*
X010207Y033739D01*
X010207Y033738D02*
X010993Y033738D01*
X010993Y033737D02*
X010207Y033737D01*
X010207Y033736D02*
X010993Y033736D01*
X010993Y033735D02*
X010207Y033735D01*
X010207Y033734D02*
X010993Y033734D01*
X010993Y033733D02*
X010207Y033733D01*
X010207Y033732D02*
X010993Y033732D01*
X010993Y033731D02*
X010207Y033731D01*
X010207Y033730D02*
X010993Y033730D01*
X010993Y033729D02*
X010207Y033729D01*
X010207Y033728D02*
X010993Y033728D01*
X010993Y033727D02*
X010207Y033727D01*
X010207Y033726D02*
X010993Y033726D01*
X010993Y033725D02*
X010207Y033725D01*
X010207Y033724D02*
X010993Y033724D01*
X010993Y033723D02*
X010207Y033723D01*
X010207Y033722D02*
X010993Y033722D01*
X010993Y033721D02*
X010207Y033721D01*
X010207Y033720D02*
X010993Y033720D01*
X010993Y033719D02*
X010207Y033719D01*
X010207Y033718D02*
X010993Y033718D01*
X010993Y033717D02*
X010207Y033717D01*
X010207Y033716D02*
X010993Y033716D01*
X010993Y033715D02*
X010207Y033715D01*
X010207Y033714D02*
X010993Y033714D01*
X010993Y033713D02*
X010207Y033713D01*
X010207Y033712D02*
X010993Y033712D01*
X010993Y033711D02*
X010207Y033711D01*
X010207Y033710D02*
X010993Y033710D01*
X010993Y033709D02*
X010207Y033709D01*
X010207Y033708D02*
X010993Y033708D01*
X010993Y033707D02*
X010207Y033707D01*
X010207Y033706D02*
X010993Y033706D01*
X010993Y033705D02*
X010207Y033705D01*
X010207Y033704D02*
X010993Y033704D01*
X010993Y033703D02*
X010207Y033703D01*
X010207Y033702D02*
X010993Y033702D01*
X010993Y033701D02*
X010207Y033701D01*
X010207Y033700D02*
X010993Y033700D01*
X010993Y033699D02*
X010207Y033699D01*
X010207Y033698D02*
X010993Y033698D01*
X010993Y033697D02*
X010207Y033697D01*
X010207Y033696D02*
X010993Y033696D01*
X010993Y033695D02*
X010207Y033695D01*
X010207Y033694D02*
X010993Y033694D01*
X010993Y033693D02*
X010207Y033693D01*
X010207Y033692D02*
X010993Y033692D01*
X010993Y033691D02*
X010207Y033691D01*
X010207Y033690D02*
X010993Y033690D01*
X010993Y033689D02*
X010207Y033689D01*
X010207Y033688D02*
X010993Y033688D01*
X010993Y033687D02*
X010207Y033687D01*
X010207Y033686D02*
X010993Y033686D01*
X010993Y033685D02*
X010207Y033685D01*
X010207Y033684D02*
X010993Y033684D01*
X010993Y033683D02*
X010207Y033683D01*
X010207Y033682D02*
X010993Y033682D01*
X010993Y033681D02*
X010207Y033681D01*
X010207Y033680D02*
X010993Y033680D01*
X010993Y033679D02*
X010207Y033679D01*
X010207Y033678D02*
X010993Y033678D01*
X010993Y033677D02*
X010207Y033677D01*
X010207Y033676D02*
X010993Y033676D01*
X010993Y033675D02*
X010207Y033675D01*
X010207Y033674D02*
X010993Y033674D01*
X010993Y033673D02*
X010207Y033673D01*
X010207Y033672D02*
X010993Y033672D01*
X010993Y033671D02*
X010207Y033671D01*
X010207Y033670D02*
X010993Y033670D01*
X010993Y033669D02*
X010207Y033669D01*
X010207Y033668D02*
X010993Y033668D01*
X010993Y033667D02*
X010207Y033667D01*
X010207Y033666D02*
X010993Y033666D01*
X010993Y033665D02*
X010207Y033665D01*
X010207Y033664D02*
X010993Y033664D01*
X010993Y033663D02*
X010207Y033663D01*
X010207Y033662D02*
X010993Y033662D01*
X010993Y033661D02*
X010207Y033661D01*
X010207Y033660D02*
X010993Y033660D01*
X010993Y033659D02*
X010207Y033659D01*
X010207Y033658D02*
X010993Y033658D01*
X010993Y033657D02*
X010207Y033657D01*
X010207Y033656D02*
X010993Y033656D01*
X010993Y033655D02*
X010207Y033655D01*
X010207Y033654D02*
X010993Y033654D01*
X010993Y033653D02*
X010207Y033653D01*
X010207Y033652D02*
X010993Y033652D01*
X010993Y033651D02*
X010207Y033651D01*
X010207Y033650D02*
X010993Y033650D01*
X010993Y033649D02*
X010207Y033649D01*
X010207Y033648D02*
X010993Y033648D01*
X010993Y033647D02*
X010207Y033647D01*
X010207Y033646D02*
X010993Y033646D01*
X010993Y033645D02*
X010207Y033645D01*
X010207Y033644D02*
X010993Y033644D01*
X010993Y033643D02*
X010207Y033643D01*
X010207Y033642D02*
X010993Y033642D01*
X010993Y033641D02*
X010207Y033641D01*
X010207Y033640D02*
X010993Y033640D01*
X010993Y033639D02*
X010207Y033639D01*
X010207Y033638D02*
X010993Y033638D01*
X010993Y033637D02*
X010207Y033637D01*
X010207Y033636D02*
X010993Y033636D01*
X010993Y033635D02*
X010207Y033635D01*
X010207Y033634D02*
X010993Y033634D01*
X010993Y033633D02*
X010207Y033633D01*
X010207Y033632D02*
X010993Y033632D01*
X010993Y033631D02*
X010207Y033631D01*
X010207Y033630D02*
X010993Y033630D01*
X010993Y033629D02*
X010207Y033629D01*
X010207Y033628D02*
X010993Y033628D01*
X010993Y033627D02*
X010207Y033627D01*
X010207Y033626D02*
X010993Y033626D01*
X010993Y033625D02*
X010207Y033625D01*
X010207Y033624D02*
X010993Y033624D01*
X010993Y033623D02*
X010207Y033623D01*
X010207Y033622D02*
X010993Y033622D01*
X010993Y033621D02*
X010207Y033621D01*
X010207Y033620D02*
X010993Y033620D01*
X010993Y033619D02*
X010207Y033619D01*
X010207Y033618D02*
X010993Y033618D01*
X010993Y033617D02*
X010207Y033617D01*
X010207Y033616D02*
X010993Y033616D01*
X010993Y033615D02*
X010207Y033615D01*
X010207Y033614D02*
X010993Y033614D01*
X010993Y033613D02*
X010207Y033613D01*
X010207Y033612D02*
X010993Y033612D01*
X010993Y033611D02*
X010207Y033611D01*
X010207Y033610D02*
X010993Y033610D01*
X010993Y033609D02*
X010207Y033609D01*
X010207Y033608D02*
X010993Y033608D01*
X010993Y033607D02*
X010207Y033607D01*
X010207Y033606D02*
X010993Y033606D01*
X010993Y033605D02*
X010207Y033605D01*
X010207Y033604D02*
X010993Y033604D01*
X010993Y033603D02*
X010207Y033603D01*
X010207Y033602D02*
X010993Y033602D01*
X010993Y033601D02*
X010207Y033601D01*
X010207Y033600D02*
X010993Y033600D01*
X010993Y033599D02*
X010207Y033599D01*
X010207Y033598D02*
X010993Y033598D01*
X010993Y033597D02*
X010207Y033597D01*
X010207Y033596D02*
X010993Y033596D01*
X010993Y033595D02*
X010207Y033595D01*
X010207Y033594D02*
X010993Y033594D01*
X010993Y033593D02*
X010207Y033593D01*
X010207Y033592D02*
X010993Y033592D01*
X010993Y033591D02*
X010207Y033591D01*
X010207Y033590D02*
X010993Y033590D01*
X010993Y033589D02*
X010207Y033589D01*
X010207Y033588D02*
X010993Y033588D01*
X010993Y033587D02*
X010207Y033587D01*
X010207Y033586D02*
X010993Y033586D01*
X010993Y033585D02*
X010207Y033585D01*
X010207Y033584D02*
X010993Y033584D01*
X010993Y033583D02*
X010207Y033583D01*
X010207Y033582D02*
X010993Y033582D01*
X010993Y033581D02*
X010207Y033581D01*
X010207Y033580D02*
X010993Y033580D01*
X010993Y033579D02*
X010207Y033579D01*
X010207Y033578D02*
X010993Y033578D01*
X010993Y033577D02*
X010207Y033577D01*
X010207Y033576D02*
X010993Y033576D01*
X010993Y033575D02*
X010207Y033575D01*
X010207Y033574D02*
X010993Y033574D01*
X010993Y033573D02*
X010207Y033573D01*
X010207Y033572D02*
X010993Y033572D01*
X010993Y033571D02*
X010207Y033571D01*
X010207Y033570D02*
X010993Y033570D01*
X010993Y033569D02*
X010207Y033569D01*
X010207Y033568D02*
X010993Y033568D01*
X010993Y033567D02*
X010207Y033567D01*
X010207Y033566D02*
X010993Y033566D01*
X010993Y033565D02*
X010207Y033565D01*
X010207Y033564D02*
X010993Y033564D01*
X010993Y033563D02*
X010207Y033563D01*
X010207Y033562D02*
X010993Y033562D01*
X010993Y033561D02*
X010207Y033561D01*
X010207Y033560D02*
X010993Y033560D01*
X010993Y033559D02*
X010207Y033559D01*
X010207Y033558D02*
X010993Y033558D01*
X010993Y033557D02*
X010207Y033557D01*
X010207Y033556D02*
X010993Y033556D01*
X010993Y033555D02*
X010207Y033555D01*
X010207Y033554D02*
X010993Y033554D01*
X010993Y033553D02*
X010207Y033553D01*
X010207Y033552D02*
X010993Y033552D01*
X010993Y033551D02*
X010207Y033551D01*
X010207Y033550D02*
X010993Y033550D01*
X010993Y033549D02*
X010207Y033549D01*
X010207Y033548D02*
X010993Y033548D01*
X010993Y033547D02*
X010207Y033547D01*
X010207Y033546D02*
X010993Y033546D01*
X010993Y033545D02*
X010207Y033545D01*
X010207Y033544D02*
X010993Y033544D01*
X010993Y033543D02*
X010207Y033543D01*
X010207Y033542D02*
X010993Y033542D01*
X010993Y033541D02*
X010207Y033541D01*
X010207Y033540D02*
X010993Y033540D01*
X010993Y033539D02*
X010207Y033539D01*
X010207Y033538D02*
X010993Y033538D01*
X010993Y033537D02*
X010207Y033537D01*
X010207Y033536D02*
X010993Y033536D01*
X010993Y033535D02*
X010207Y033535D01*
X010207Y033534D02*
X010993Y033534D01*
X010993Y033533D02*
X010207Y033533D01*
X010207Y033532D02*
X010993Y033532D01*
X010993Y033531D02*
X010207Y033531D01*
X010207Y033530D02*
X010993Y033530D01*
X010993Y033529D02*
X010207Y033529D01*
X010207Y033528D02*
X010993Y033528D01*
X010993Y033527D02*
X010207Y033527D01*
X010207Y033526D02*
X010993Y033526D01*
X010993Y033525D02*
X010207Y033525D01*
X010207Y033524D02*
X010993Y033524D01*
X010993Y033523D02*
X010207Y033523D01*
X010207Y033522D02*
X010993Y033522D01*
X010993Y033521D02*
X010207Y033521D01*
X010207Y033520D02*
X010993Y033520D01*
X010993Y033519D02*
X010207Y033519D01*
X010207Y033518D02*
X010993Y033518D01*
X010993Y033517D02*
X010207Y033517D01*
X010207Y033516D02*
X010993Y033516D01*
X010993Y033515D02*
X010207Y033515D01*
X010207Y033514D02*
X010993Y033514D01*
X010993Y033513D02*
X010207Y033513D01*
X010207Y033512D02*
X010993Y033512D01*
X010993Y033511D02*
X010207Y033511D01*
X010207Y033510D02*
X010993Y033510D01*
X010993Y033509D02*
X010207Y033509D01*
X010207Y033508D02*
X010993Y033508D01*
X010993Y033507D02*
X010207Y033507D01*
X010207Y033506D02*
X010993Y033506D01*
X010993Y033505D02*
X010207Y033505D01*
X010207Y033504D02*
X010993Y033504D01*
X010993Y033503D02*
X010207Y033503D01*
X010207Y033502D02*
X010993Y033502D01*
X010993Y033501D02*
X010207Y033501D01*
X010207Y033500D02*
X010993Y033500D01*
X010993Y033499D02*
X010207Y033499D01*
X010207Y033498D02*
X010993Y033498D01*
X010993Y033497D02*
X010207Y033497D01*
X010207Y033496D02*
X010993Y033496D01*
X010993Y033495D02*
X010207Y033495D01*
X010207Y033494D02*
X010993Y033494D01*
X010993Y033493D02*
X010207Y033493D01*
X010207Y033492D02*
X010993Y033492D01*
X010993Y033491D02*
X010207Y033491D01*
X010207Y033490D02*
X010993Y033490D01*
X010993Y033489D02*
X010207Y033489D01*
X010207Y033488D02*
X010993Y033488D01*
X010993Y033487D02*
X010207Y033487D01*
X010207Y033486D02*
X010993Y033486D01*
X010993Y033485D02*
X010207Y033485D01*
X010207Y033484D02*
X010993Y033484D01*
X010993Y033483D02*
X010207Y033483D01*
X010207Y033482D02*
X010993Y033482D01*
X010993Y033481D02*
X010207Y033481D01*
X010207Y033480D02*
X010993Y033480D01*
X010993Y033479D02*
X010207Y033479D01*
X010207Y033478D02*
X010993Y033478D01*
X010993Y033477D02*
X010207Y033477D01*
X010207Y033476D02*
X010993Y033476D01*
X010993Y033475D02*
X010207Y033475D01*
X010207Y033474D02*
X010993Y033474D01*
X010993Y033473D02*
X010207Y033473D01*
X010207Y033472D02*
X010993Y033472D01*
X010993Y033471D02*
X010207Y033471D01*
X010207Y033470D02*
X010993Y033470D01*
X010993Y033469D02*
X010207Y033469D01*
X010207Y033468D02*
X010993Y033468D01*
X010993Y033467D02*
X010207Y033467D01*
X010207Y033466D02*
X010993Y033466D01*
X010993Y033465D02*
X010207Y033465D01*
X010207Y033464D02*
X010993Y033464D01*
X010993Y033463D02*
X010207Y033463D01*
X010207Y033462D02*
X010993Y033462D01*
X010993Y033461D02*
X010207Y033461D01*
X010207Y033460D02*
X010993Y033460D01*
X010993Y033459D02*
X010207Y033459D01*
X010207Y033458D02*
X010993Y033458D01*
X010993Y033457D02*
X010207Y033457D01*
X010207Y033456D02*
X010993Y033456D01*
X010993Y033455D02*
X010207Y033455D01*
X010207Y033454D02*
X010993Y033454D01*
X010993Y033453D02*
X010207Y033453D01*
X010207Y033452D02*
X010993Y033452D01*
X010993Y033451D02*
X010207Y033451D01*
X010207Y033450D02*
X010993Y033450D01*
X010993Y033449D02*
X010207Y033449D01*
X010207Y033448D02*
X010993Y033448D01*
X010993Y033447D02*
X010207Y033447D01*
X010207Y033446D02*
X010993Y033446D01*
X010993Y033445D02*
X010207Y033445D01*
X010207Y033444D02*
X010993Y033444D01*
X010993Y033443D02*
X010207Y033443D01*
X010207Y033442D02*
X010993Y033442D01*
X010993Y033441D02*
X010207Y033441D01*
X010207Y033440D02*
X010993Y033440D01*
X010993Y033439D02*
X010207Y033439D01*
X010207Y033438D02*
X010993Y033438D01*
X010993Y033437D02*
X010207Y033437D01*
X010207Y033436D02*
X010993Y033436D01*
X010993Y033435D02*
X010207Y033435D01*
X010207Y033434D02*
X010993Y033434D01*
X010993Y033433D02*
X010207Y033433D01*
X010207Y033432D02*
X010993Y033432D01*
X010993Y033431D02*
X010207Y033431D01*
X010207Y033430D02*
X010993Y033430D01*
X010993Y033429D02*
X010207Y033429D01*
X010207Y033428D02*
X010993Y033428D01*
X010993Y033427D02*
X010207Y033427D01*
X010207Y033426D02*
X010993Y033426D01*
X010993Y033425D02*
X010207Y033425D01*
X010207Y033424D02*
X010993Y033424D01*
X010993Y033423D02*
X010207Y033423D01*
X010207Y033422D02*
X010993Y033422D01*
X010993Y033421D02*
X010207Y033421D01*
X010207Y033420D02*
X010993Y033420D01*
X010993Y033419D02*
X010207Y033419D01*
X010207Y033418D02*
X010993Y033418D01*
X010993Y033417D02*
X010207Y033417D01*
X010207Y033416D02*
X010993Y033416D01*
X010993Y033415D02*
X010207Y033415D01*
X010207Y033414D02*
X010993Y033414D01*
X010993Y033413D02*
X010207Y033413D01*
X010207Y033412D02*
X010993Y033412D01*
X010993Y033411D02*
X010207Y033411D01*
X010207Y033410D02*
X010993Y033410D01*
X010993Y033409D02*
X010207Y033409D01*
X010207Y033408D02*
X010993Y033408D01*
X010993Y033407D02*
X010207Y033407D01*
X010207Y033406D02*
X010993Y033406D01*
X010993Y033405D02*
X010207Y033405D01*
X010207Y033404D02*
X010993Y033404D01*
X010993Y033403D02*
X010207Y033403D01*
X010207Y033402D02*
X010993Y033402D01*
X010993Y033401D02*
X010207Y033401D01*
X010207Y033400D02*
X010993Y033400D01*
X010993Y033399D02*
X010207Y033399D01*
X010207Y033398D02*
X010993Y033398D01*
X010993Y033397D02*
X010207Y033397D01*
X010207Y033396D02*
X010993Y033396D01*
X010993Y033395D02*
X010207Y033395D01*
X010207Y033394D02*
X010993Y033394D01*
X010993Y033393D02*
X010207Y033393D01*
X010207Y033392D02*
X010993Y033392D01*
X010993Y033391D02*
X010207Y033391D01*
X010207Y033390D02*
X010993Y033390D01*
X010993Y033389D02*
X010207Y033389D01*
X010207Y033388D02*
X010993Y033388D01*
X010993Y033387D02*
X010207Y033387D01*
X010207Y033386D02*
X010993Y033386D01*
X010993Y033385D02*
X010207Y033385D01*
X010207Y033384D02*
X010993Y033384D01*
X010993Y033383D02*
X010207Y033383D01*
X010207Y033382D02*
X010993Y033382D01*
X010993Y033381D02*
X010207Y033381D01*
X010207Y033380D02*
X010993Y033380D01*
X010993Y033379D02*
X010207Y033379D01*
X010207Y033378D02*
X010993Y033378D01*
X010993Y033377D02*
X010207Y033377D01*
X010207Y033376D02*
X010993Y033376D01*
X010993Y033375D02*
X010207Y033375D01*
X010207Y033374D02*
X010993Y033374D01*
X010993Y033373D02*
X010207Y033373D01*
X010207Y033372D02*
X010993Y033372D01*
X010993Y033371D02*
X010207Y033371D01*
X010207Y033370D02*
X010993Y033370D01*
X010993Y033369D02*
X010207Y033369D01*
X010207Y033368D02*
X010993Y033368D01*
X010993Y033367D02*
X010207Y033367D01*
X010207Y033366D02*
X010993Y033366D01*
X010993Y033365D02*
X010207Y033365D01*
X010207Y033364D02*
X010993Y033364D01*
X010993Y033363D02*
X010207Y033363D01*
X010207Y033362D02*
X010993Y033362D01*
X010993Y033361D02*
X010207Y033361D01*
X010207Y033360D02*
X010993Y033360D01*
X010993Y033359D02*
X010207Y033359D01*
X010207Y033358D02*
X010993Y033358D01*
X010993Y033357D02*
X010207Y033357D01*
X010207Y033356D02*
X010993Y033356D01*
X010993Y033355D02*
X010207Y033355D01*
X010207Y033354D02*
X010993Y033354D01*
X010993Y033353D02*
X010207Y033353D01*
X010207Y033352D02*
X010993Y033352D01*
X010993Y033351D02*
X010207Y033351D01*
X010207Y033350D02*
X010993Y033350D01*
X010993Y033349D02*
X010207Y033349D01*
X010207Y033348D02*
X010993Y033348D01*
X010993Y033347D02*
X010207Y033347D01*
X010207Y033346D02*
X010993Y033346D01*
X010993Y033345D02*
X010207Y033345D01*
X010207Y033344D02*
X010993Y033344D01*
X010993Y033343D02*
X010207Y033343D01*
X010207Y033342D02*
X010993Y033342D01*
X010993Y033341D02*
X010207Y033341D01*
X010207Y033340D02*
X010993Y033340D01*
X010993Y033339D02*
X010207Y033339D01*
X010207Y033338D02*
X010993Y033338D01*
X010993Y033337D02*
X010207Y033337D01*
X010207Y033336D02*
X010993Y033336D01*
X010993Y033335D02*
X010207Y033335D01*
X010207Y033334D02*
X010993Y033334D01*
X010993Y033333D02*
X010207Y033333D01*
X010207Y033332D02*
X010993Y033332D01*
X010993Y033331D02*
X010207Y033331D01*
X010207Y033330D02*
X010993Y033330D01*
X010993Y033329D02*
X010207Y033329D01*
X010207Y033328D02*
X010993Y033328D01*
X010993Y033327D02*
X010207Y033327D01*
X010207Y033326D02*
X010993Y033326D01*
X010993Y033325D02*
X010207Y033325D01*
X010207Y033324D02*
X010993Y033324D01*
X010993Y033323D02*
X010207Y033323D01*
X010207Y033322D02*
X010993Y033322D01*
X010993Y033321D02*
X010207Y033321D01*
X010207Y033320D02*
X010993Y033320D01*
X010993Y033319D02*
X010207Y033319D01*
X010207Y033318D02*
X010993Y033318D01*
X010993Y033317D02*
X010207Y033317D01*
X010207Y033316D02*
X010993Y033316D01*
X010993Y033315D02*
X010207Y033315D01*
X010207Y033314D02*
X010993Y033314D01*
X010993Y033313D02*
X010207Y033313D01*
X010207Y033312D02*
X010993Y033312D01*
X010993Y033311D02*
X010207Y033311D01*
X010207Y033310D02*
X010993Y033310D01*
X010993Y033309D02*
X010207Y033309D01*
X010207Y033308D02*
X010993Y033308D01*
X010993Y033307D02*
X010207Y033307D01*
X010207Y033306D02*
X010993Y033306D01*
X010993Y033305D02*
X010207Y033305D01*
X010207Y033304D02*
X010993Y033304D01*
X010993Y033303D02*
X010207Y033303D01*
X010207Y033302D02*
X010993Y033302D01*
X010993Y033301D02*
X010207Y033301D01*
X010207Y033300D02*
X010993Y033300D01*
X010993Y033299D02*
X010207Y033299D01*
X010207Y033298D02*
X010993Y033298D01*
X010993Y033297D02*
X010207Y033297D01*
X010207Y033296D02*
X010993Y033296D01*
X010993Y033295D02*
X010207Y033295D01*
X010207Y033294D02*
X010993Y033294D01*
X010993Y033293D02*
X010207Y033293D01*
X010207Y033292D02*
X010993Y033292D01*
X010993Y033291D02*
X010207Y033291D01*
X010207Y033290D02*
X010993Y033290D01*
X010993Y033289D02*
X010207Y033289D01*
X010207Y033288D02*
X010993Y033288D01*
X010993Y033287D02*
X010207Y033287D01*
X010207Y033286D02*
X010993Y033286D01*
X010993Y033285D02*
X010207Y033285D01*
X010207Y033284D02*
X010993Y033284D01*
X010993Y033283D02*
X010207Y033283D01*
X010207Y033282D02*
X010993Y033282D01*
X010993Y033281D02*
X010207Y033281D01*
X010207Y033280D02*
X010993Y033280D01*
X010993Y033279D02*
X010207Y033279D01*
X010207Y033278D02*
X010993Y033278D01*
X010993Y033277D02*
X010207Y033277D01*
X010207Y033276D02*
X010993Y033276D01*
X010993Y033275D02*
X010207Y033275D01*
X010207Y033274D02*
X010993Y033274D01*
X010993Y033273D02*
X010207Y033273D01*
X010207Y033272D02*
X010993Y033272D01*
X010993Y033271D02*
X010207Y033271D01*
X010207Y033270D02*
X010993Y033270D01*
X010993Y033269D02*
X010207Y033269D01*
X010207Y033268D02*
X010993Y033268D01*
X010993Y033267D02*
X010207Y033267D01*
X010207Y033266D02*
X010993Y033266D01*
X010993Y033265D02*
X010207Y033265D01*
X010207Y033264D02*
X010993Y033264D01*
X010993Y033263D02*
X010207Y033263D01*
X010207Y033262D02*
X010993Y033262D01*
X010993Y033261D02*
X010207Y033261D01*
X010207Y033260D02*
X010993Y033260D01*
X010993Y033259D02*
X010207Y033259D01*
X010207Y033258D02*
X010993Y033258D01*
X010993Y033257D02*
X010207Y033257D01*
X010207Y033256D02*
X010993Y033256D01*
X010993Y033255D02*
X010207Y033255D01*
X010207Y033254D02*
X010993Y033254D01*
X010993Y033253D02*
X010207Y033253D01*
X010207Y033252D02*
X010993Y033252D01*
X010993Y033251D02*
X010207Y033251D01*
X010207Y033250D02*
X010993Y033250D01*
X010993Y033249D02*
X010207Y033249D01*
X010207Y033248D02*
X010993Y033248D01*
X010993Y033247D02*
X010207Y033247D01*
X010207Y033246D02*
X010993Y033246D01*
X010993Y033245D02*
X010207Y033245D01*
X010207Y033244D02*
X010993Y033244D01*
X010993Y033243D02*
X010207Y033243D01*
X010207Y033242D02*
X010993Y033242D01*
X010993Y033241D02*
X010207Y033241D01*
X010207Y033240D02*
X010993Y033240D01*
X010993Y033239D02*
X010207Y033239D01*
X010207Y033238D02*
X010993Y033238D01*
X010993Y033237D02*
X010207Y033237D01*
X010207Y033236D02*
X010993Y033236D01*
X010993Y033235D02*
X010207Y033235D01*
X010207Y033234D02*
X010993Y033234D01*
X010993Y033233D02*
X010207Y033233D01*
X010207Y033232D02*
X010993Y033232D01*
X010993Y033231D02*
X010207Y033231D01*
X010207Y033230D02*
X010993Y033230D01*
X010993Y033229D02*
X010207Y033229D01*
X010207Y033228D02*
X010993Y033228D01*
X010993Y033227D02*
X010207Y033227D01*
X010207Y033226D02*
X010993Y033226D01*
X010993Y033225D02*
X010207Y033225D01*
X010207Y033224D02*
X010993Y033224D01*
X010993Y033223D02*
X010207Y033223D01*
X010207Y033222D02*
X010993Y033222D01*
X010993Y033221D02*
X010207Y033221D01*
X010207Y033220D02*
X010993Y033220D01*
X010993Y033219D02*
X010207Y033219D01*
X010207Y033218D02*
X010993Y033218D01*
X010993Y033217D02*
X010207Y033217D01*
X010207Y033216D02*
X010993Y033216D01*
X010993Y033215D02*
X010207Y033215D01*
X010207Y033214D02*
X010993Y033214D01*
X010993Y033213D02*
X010207Y033213D01*
X010207Y033212D02*
X010993Y033212D01*
X010993Y033211D02*
X010207Y033211D01*
X010207Y033210D02*
X010993Y033210D01*
X010993Y033209D02*
X010207Y033209D01*
X010207Y033208D02*
X010993Y033208D01*
X010993Y033207D02*
X010207Y033207D01*
X010207Y033206D02*
X010993Y033206D01*
X010993Y033205D02*
X010207Y033205D01*
X010207Y033204D02*
X010993Y033204D01*
X010993Y033203D02*
X010207Y033203D01*
X010207Y033202D02*
X010993Y033202D01*
X010993Y033201D02*
X010207Y033201D01*
X010207Y033200D02*
X010993Y033200D01*
X010993Y033199D02*
X010207Y033199D01*
X010207Y033198D02*
X010993Y033198D01*
X010993Y033197D02*
X010207Y033197D01*
X010207Y033196D02*
X010993Y033196D01*
X010993Y033195D02*
X010207Y033195D01*
X010207Y033194D02*
X010993Y033194D01*
X010993Y033193D02*
X010207Y033193D01*
X010207Y033192D02*
X010993Y033192D01*
X010993Y033191D02*
X010207Y033191D01*
X010207Y033190D02*
X010993Y033190D01*
X010993Y033189D02*
X010207Y033189D01*
X010207Y033188D02*
X010993Y033188D01*
X010993Y033187D02*
X010207Y033187D01*
X010207Y033186D02*
X010993Y033186D01*
X010993Y033185D02*
X010207Y033185D01*
X010207Y033184D02*
X010993Y033184D01*
X010993Y033183D02*
X010207Y033183D01*
X010207Y033182D02*
X010993Y033182D01*
X010993Y033181D02*
X010207Y033181D01*
X010207Y033180D02*
X010993Y033180D01*
X010993Y033179D02*
X010207Y033179D01*
X010207Y033178D02*
X010993Y033178D01*
X010993Y033177D02*
X010207Y033177D01*
X010207Y033176D02*
X010993Y033176D01*
X010993Y033175D02*
X010207Y033175D01*
X010207Y033174D02*
X010993Y033174D01*
X010993Y033173D02*
X010207Y033173D01*
X010207Y033172D02*
X010993Y033172D01*
X010993Y033171D02*
X010207Y033171D01*
X010207Y033170D02*
X010993Y033170D01*
X010993Y033169D02*
X010207Y033169D01*
X010207Y033168D02*
X010993Y033168D01*
X010993Y033167D02*
X010207Y033167D01*
X010207Y033166D02*
X010993Y033166D01*
X010993Y033165D02*
X010207Y033165D01*
X010207Y033164D02*
X010993Y033164D01*
X010993Y033163D02*
X010207Y033163D01*
X010207Y033162D02*
X010993Y033162D01*
X010993Y033161D02*
X010207Y033161D01*
X010207Y033160D02*
X010993Y033160D01*
X010993Y033159D02*
X010207Y033159D01*
X010207Y033158D02*
X010993Y033158D01*
X010993Y033157D02*
X010207Y033157D01*
X010207Y033156D02*
X010993Y033156D01*
X010993Y033155D02*
X010207Y033155D01*
X010207Y033154D02*
X010993Y033154D01*
X010993Y033153D02*
X010207Y033153D01*
X010207Y033152D02*
X010993Y033152D01*
X010993Y033151D02*
X010207Y033151D01*
X010207Y033150D02*
X010993Y033150D01*
X010993Y033149D02*
X010207Y033149D01*
X010207Y033148D02*
X010993Y033148D01*
X010993Y033147D02*
X010207Y033147D01*
X010207Y033146D02*
X010993Y033146D01*
X010993Y033145D02*
X010207Y033145D01*
X010207Y033144D02*
X010993Y033144D01*
X010993Y033143D02*
X010207Y033143D01*
X010207Y033142D02*
X010993Y033142D01*
X010993Y033141D02*
X010207Y033141D01*
X010207Y033140D02*
X010993Y033140D01*
X010993Y033139D02*
X010207Y033139D01*
X010207Y033138D02*
X010993Y033138D01*
X010993Y033137D02*
X010207Y033137D01*
X010207Y033136D02*
X010993Y033136D01*
X010993Y033135D02*
X010207Y033135D01*
X010207Y033134D02*
X010993Y033134D01*
X010993Y033133D02*
X010207Y033133D01*
X010207Y033132D02*
X010993Y033132D01*
X010993Y033131D02*
X010207Y033131D01*
X010207Y033130D02*
X010993Y033130D01*
X010993Y033129D02*
X010207Y033129D01*
X010207Y033128D02*
X010993Y033128D01*
X010993Y033127D02*
X010207Y033127D01*
X010207Y033126D02*
X010993Y033126D01*
X010993Y033125D02*
X010207Y033125D01*
X010207Y033124D02*
X010993Y033124D01*
X010993Y033123D02*
X010207Y033123D01*
X010207Y033122D02*
X010993Y033122D01*
X010993Y033121D02*
X010207Y033121D01*
X010207Y033120D02*
X010993Y033120D01*
X010993Y033119D02*
X010207Y033119D01*
X010207Y033118D02*
X010993Y033118D01*
X010993Y033117D02*
X010207Y033117D01*
X010207Y033116D02*
X010993Y033116D01*
X010993Y033115D02*
X010207Y033115D01*
X010207Y033114D02*
X010993Y033114D01*
X010993Y033113D02*
X010207Y033113D01*
X010207Y033112D02*
X010993Y033112D01*
X010993Y033111D02*
X010207Y033111D01*
X010207Y033110D02*
X010993Y033110D01*
X010993Y033109D02*
X010207Y033109D01*
X010207Y033108D02*
X010993Y033108D01*
X010993Y033107D02*
X010207Y033107D01*
X010207Y033106D02*
X010993Y033106D01*
X010993Y033105D02*
X010207Y033105D01*
X010207Y033104D02*
X010993Y033104D01*
X010993Y033103D02*
X010207Y033103D01*
X010207Y033102D02*
X010993Y033102D01*
X010993Y033101D02*
X010207Y033101D01*
X010207Y033100D02*
X010993Y033100D01*
X010993Y033099D02*
X010207Y033099D01*
X010207Y033098D02*
X010993Y033098D01*
X010993Y033097D02*
X010207Y033097D01*
X010207Y033096D02*
X010993Y033096D01*
X010993Y033095D02*
X010207Y033095D01*
X010207Y033094D02*
X010993Y033094D01*
X010993Y033093D02*
X010207Y033093D01*
X010207Y033092D02*
X010993Y033092D01*
X010993Y033091D02*
X010207Y033091D01*
X010207Y033090D02*
X010993Y033090D01*
X010993Y033089D02*
X010207Y033089D01*
X010207Y033088D02*
X010993Y033088D01*
X010207Y033088D01*
X010207Y033087D02*
X010993Y033087D01*
X010993Y033086D02*
X010207Y033086D01*
X010207Y033085D02*
X010993Y033085D01*
X010993Y033084D02*
X010207Y033084D01*
X010207Y033083D02*
X010993Y033083D01*
X010993Y033082D02*
X010207Y033082D01*
X010207Y033081D02*
X010993Y033081D01*
X010993Y033080D02*
X010207Y033080D01*
X010207Y033079D02*
X010993Y033079D01*
X010993Y033078D02*
X010207Y033078D01*
X010207Y033077D02*
X010993Y033077D01*
X010993Y033076D02*
X010207Y033076D01*
X010207Y033075D02*
X010993Y033075D01*
X010993Y033074D02*
X010207Y033074D01*
X010207Y033073D02*
X010993Y033073D01*
X010993Y033072D02*
X010207Y033072D01*
X010207Y033071D02*
X010993Y033071D01*
X010993Y033070D02*
X010207Y033070D01*
X010207Y033069D02*
X010993Y033069D01*
X010993Y033068D02*
X010207Y033068D01*
X010207Y033067D02*
X010993Y033067D01*
X010993Y033066D02*
X010207Y033066D01*
X010207Y033065D02*
X010993Y033065D01*
X010993Y033064D02*
X010207Y033064D01*
X010207Y033063D02*
X010993Y033063D01*
X010993Y033062D02*
X010207Y033062D01*
X010207Y033061D02*
X010993Y033061D01*
X010993Y033060D02*
X010207Y033060D01*
X010207Y033059D02*
X010993Y033059D01*
X010993Y033058D02*
X010207Y033058D01*
X010207Y033057D02*
X010993Y033057D01*
X010993Y033056D02*
X010207Y033056D01*
X010207Y033055D02*
X010993Y033055D01*
X010993Y033054D02*
X010207Y033054D01*
X010207Y033053D02*
X010993Y033053D01*
X010993Y033052D02*
X010207Y033052D01*
X010207Y033051D02*
X010993Y033051D01*
X010993Y033050D02*
X010207Y033050D01*
X010207Y033049D02*
X010993Y033049D01*
X010993Y033048D02*
X010207Y033048D01*
X010207Y033047D02*
X010993Y033047D01*
X010993Y033046D02*
X010207Y033046D01*
X010207Y033045D02*
X010993Y033045D01*
X010993Y033044D02*
X010207Y033044D01*
X010207Y033043D02*
X010993Y033043D01*
X010993Y033042D02*
X010207Y033042D01*
X010207Y033041D02*
X010993Y033041D01*
X010993Y033040D02*
X010207Y033040D01*
X010207Y033039D02*
X010993Y033039D01*
X010993Y033038D02*
X010207Y033038D01*
X010207Y033037D02*
X010993Y033037D01*
X010993Y033036D02*
X010207Y033036D01*
X010207Y033035D02*
X010993Y033035D01*
X010993Y033034D02*
X010207Y033034D01*
X010207Y033033D02*
X010993Y033033D01*
X010993Y033032D02*
X010207Y033032D01*
X010207Y033031D02*
X010993Y033031D01*
X010993Y033030D02*
X010207Y033030D01*
X010207Y033029D02*
X010993Y033029D01*
X010993Y033028D02*
X010207Y033028D01*
X010207Y033027D02*
X010993Y033027D01*
X010993Y033026D02*
X010207Y033026D01*
X010207Y033025D02*
X010993Y033025D01*
X010993Y033024D02*
X010207Y033024D01*
X010207Y033023D02*
X010993Y033023D01*
X010993Y033022D02*
X010207Y033022D01*
X010207Y033021D02*
X010993Y033021D01*
X010993Y033020D02*
X010207Y033020D01*
X010207Y033019D02*
X010993Y033019D01*
X010993Y033018D02*
X010207Y033018D01*
X010207Y033017D02*
X010993Y033017D01*
X010993Y033016D02*
X010207Y033016D01*
X010207Y033015D02*
X010993Y033015D01*
X010993Y033014D02*
X010207Y033014D01*
X010207Y033013D02*
X010993Y033013D01*
X010993Y033012D02*
X010207Y033012D01*
X010207Y033011D02*
X010993Y033011D01*
X010993Y033010D02*
X010207Y033010D01*
X010207Y033009D02*
X010993Y033009D01*
X010993Y033008D02*
X010207Y033008D01*
X010207Y033007D02*
X010993Y033007D01*
X010993Y033006D02*
X010207Y033006D01*
X010207Y033005D02*
X010993Y033005D01*
X010993Y033004D02*
X010207Y033004D01*
X010207Y033003D02*
X010993Y033003D01*
X010993Y033002D02*
X010207Y033002D01*
X010207Y033001D02*
X010993Y033001D01*
X010993Y033000D02*
X010207Y033000D01*
X010207Y032999D02*
X010993Y032999D01*
X010993Y032998D02*
X010207Y032998D01*
X010207Y032997D02*
X010993Y032997D01*
X010993Y032996D02*
X010207Y032996D01*
X010207Y032995D02*
X010993Y032995D01*
X010993Y032994D02*
X010207Y032994D01*
X010207Y032993D02*
X010993Y032993D01*
X010993Y032992D02*
X010207Y032992D01*
X010207Y032991D02*
X010993Y032991D01*
X010993Y032990D02*
X010207Y032990D01*
X010207Y032989D02*
X010993Y032989D01*
X010993Y032988D02*
X010207Y032988D01*
X010207Y032987D02*
X010993Y032987D01*
X010993Y032986D02*
X010207Y032986D01*
X010207Y032985D02*
X010993Y032985D01*
X010993Y032984D02*
X010207Y032984D01*
X010207Y032983D02*
X010993Y032983D01*
X010993Y032982D02*
X010207Y032982D01*
X010207Y032981D02*
X010993Y032981D01*
X010993Y032980D02*
X010207Y032980D01*
X010207Y032979D02*
X010993Y032979D01*
X010993Y032978D02*
X010207Y032978D01*
X010207Y032977D02*
X010993Y032977D01*
X010993Y032976D02*
X010207Y032976D01*
X010207Y032975D02*
X010993Y032975D01*
X010993Y032974D02*
X010207Y032974D01*
X010207Y032973D02*
X010993Y032973D01*
X010993Y032972D02*
X010207Y032972D01*
X010207Y032971D02*
X010993Y032971D01*
X010993Y032970D02*
X010207Y032970D01*
X010207Y032969D02*
X010993Y032969D01*
X010993Y032968D02*
X010207Y032968D01*
X010207Y032967D02*
X010993Y032967D01*
X010993Y032966D02*
X010207Y032966D01*
X010207Y032965D02*
X010993Y032965D01*
X010993Y032964D02*
X010207Y032964D01*
X010207Y032963D02*
X010993Y032963D01*
X010993Y032962D02*
X010207Y032962D01*
X010207Y032961D02*
X010993Y032961D01*
X010993Y032960D02*
X010207Y032960D01*
X010207Y032959D02*
X010993Y032959D01*
X010993Y032958D02*
X010207Y032958D01*
X010207Y032957D02*
X010993Y032957D01*
X010993Y032956D02*
X010207Y032956D01*
X010207Y032955D02*
X010993Y032955D01*
X010993Y032954D02*
X010207Y032954D01*
X010207Y032953D02*
X010993Y032953D01*
X010993Y032952D02*
X010207Y032952D01*
X010207Y032951D02*
X010993Y032951D01*
X010993Y032950D02*
X010207Y032950D01*
X010207Y032949D02*
X010993Y032949D01*
X010993Y032948D02*
X010207Y032948D01*
X010207Y032947D02*
X010993Y032947D01*
X010993Y032946D02*
X010207Y032946D01*
X010207Y032945D02*
X010993Y032945D01*
X010993Y032944D02*
X010207Y032944D01*
X010207Y032943D02*
X010993Y032943D01*
X010993Y032942D02*
X010207Y032942D01*
X010207Y032941D02*
X010993Y032941D01*
X010993Y032940D02*
X010207Y032940D01*
X010207Y032939D02*
X010993Y032939D01*
X010993Y032938D02*
X010207Y032938D01*
X010207Y032937D02*
X010993Y032937D01*
X010993Y032936D02*
X010207Y032936D01*
X010207Y032935D02*
X010993Y032935D01*
X010993Y032934D02*
X010207Y032934D01*
X010207Y032933D02*
X010993Y032933D01*
X010993Y032932D02*
X010207Y032932D01*
X010207Y032931D02*
X010993Y032931D01*
X010993Y032930D02*
X010207Y032930D01*
X010207Y032929D02*
X010993Y032929D01*
X010993Y032928D02*
X010207Y032928D01*
X010207Y032927D02*
X010993Y032927D01*
X010993Y032926D02*
X010207Y032926D01*
X010207Y032925D02*
X010993Y032925D01*
X010993Y032924D02*
X010207Y032924D01*
X010207Y032923D02*
X010993Y032923D01*
X010993Y032922D02*
X010207Y032922D01*
X010207Y032921D02*
X010993Y032921D01*
X010993Y032920D02*
X010207Y032920D01*
X010207Y032919D02*
X010993Y032919D01*
X010993Y032918D02*
X010207Y032918D01*
X010207Y032917D02*
X010993Y032917D01*
X010993Y032916D02*
X010207Y032916D01*
X010207Y032915D02*
X010993Y032915D01*
X010993Y032914D02*
X010207Y032914D01*
X010207Y032913D02*
X010993Y032913D01*
X010993Y032912D02*
X010207Y032912D01*
X010207Y032911D02*
X010993Y032911D01*
X010993Y032910D02*
X010207Y032910D01*
X010207Y032909D02*
X010993Y032909D01*
X010993Y032908D02*
X010207Y032908D01*
X010207Y032907D02*
X010993Y032907D01*
X010993Y032906D02*
X010207Y032906D01*
X010207Y032905D02*
X010993Y032905D01*
X010993Y032904D02*
X010207Y032904D01*
X010207Y032903D02*
X010993Y032903D01*
X010993Y032902D02*
X010207Y032902D01*
X010207Y032901D02*
X010993Y032901D01*
X010993Y032900D02*
X010207Y032900D01*
X010207Y032899D02*
X010993Y032899D01*
X010993Y032898D02*
X010207Y032898D01*
X010207Y032897D02*
X010993Y032897D01*
X010993Y032896D02*
X010207Y032896D01*
X010207Y032895D02*
X010993Y032895D01*
X010993Y032894D02*
X010207Y032894D01*
X010207Y032893D02*
X010993Y032893D01*
X010993Y032892D02*
X010207Y032892D01*
X010207Y032891D02*
X010993Y032891D01*
X010993Y032890D02*
X010207Y032890D01*
X010207Y032889D02*
X010993Y032889D01*
X010993Y032888D02*
X010207Y032888D01*
X010207Y032887D02*
X010993Y032887D01*
X010993Y032886D02*
X010207Y032886D01*
X010207Y032885D02*
X010993Y032885D01*
X010993Y032884D02*
X010207Y032884D01*
X010207Y032883D02*
X010993Y032883D01*
X010993Y032882D02*
X010207Y032882D01*
X010207Y032881D02*
X010993Y032881D01*
X010993Y032880D02*
X010207Y032880D01*
X010207Y032879D02*
X010993Y032879D01*
X010993Y032878D02*
X010207Y032878D01*
X010207Y032877D02*
X010993Y032877D01*
X010993Y032876D02*
X010207Y032876D01*
X010207Y032875D02*
X010993Y032875D01*
X010993Y032874D02*
X010207Y032874D01*
X010207Y032873D02*
X010993Y032873D01*
X010993Y032872D02*
X010207Y032872D01*
X010207Y032871D02*
X010993Y032871D01*
X010993Y032870D02*
X010207Y032870D01*
X010207Y032869D02*
X010993Y032869D01*
X010993Y032868D02*
X010207Y032868D01*
X010207Y032867D02*
X010993Y032867D01*
X010993Y032866D02*
X010207Y032866D01*
X010207Y032865D02*
X010993Y032865D01*
X010993Y032864D02*
X010207Y032864D01*
X010207Y032863D02*
X010993Y032863D01*
X010993Y032862D02*
X010207Y032862D01*
X010207Y032861D02*
X010993Y032861D01*
X010993Y032860D02*
X010207Y032860D01*
X010207Y032859D02*
X010993Y032859D01*
X010993Y032858D02*
X010207Y032858D01*
X010207Y032857D02*
X010993Y032857D01*
X010993Y032856D02*
X010207Y032856D01*
X010207Y032855D02*
X010993Y032855D01*
X010993Y032854D02*
X010207Y032854D01*
X010207Y032853D02*
X010993Y032853D01*
X010993Y032852D02*
X010207Y032852D01*
X010207Y032851D02*
X010993Y032851D01*
X010993Y032850D02*
X010207Y032850D01*
X010207Y032849D02*
X010993Y032849D01*
X010993Y032848D02*
X010207Y032848D01*
X010207Y032847D02*
X010993Y032847D01*
X010993Y032846D02*
X010207Y032846D01*
X010207Y032845D02*
X010993Y032845D01*
X010993Y032844D02*
X010207Y032844D01*
X010207Y032843D02*
X010993Y032843D01*
X010993Y032842D02*
X010207Y032842D01*
X010207Y032841D02*
X010993Y032841D01*
X010993Y032840D02*
X010207Y032840D01*
X010207Y032839D02*
X010993Y032839D01*
X010993Y032838D02*
X010207Y032838D01*
X010207Y032837D02*
X010993Y032837D01*
X010993Y032836D02*
X010207Y032836D01*
X010207Y032835D02*
X010993Y032835D01*
X010993Y032834D02*
X010207Y032834D01*
X010207Y032833D02*
X010993Y032833D01*
X010993Y032832D02*
X010207Y032832D01*
X010207Y032831D02*
X010993Y032831D01*
X010993Y032830D02*
X010207Y032830D01*
X010207Y032829D02*
X010993Y032829D01*
X010993Y032828D02*
X010207Y032828D01*
X010207Y032827D02*
X010993Y032827D01*
X010993Y032826D02*
X010207Y032826D01*
X010207Y032825D02*
X010993Y032825D01*
X010993Y032824D02*
X010207Y032824D01*
X010207Y032823D02*
X010993Y032823D01*
X010993Y032822D02*
X010207Y032822D01*
X010207Y032821D02*
X010993Y032821D01*
X010993Y032820D02*
X010207Y032820D01*
X010207Y032819D02*
X010993Y032819D01*
X010993Y032818D02*
X010207Y032818D01*
X010207Y032817D02*
X010993Y032817D01*
X010993Y032816D02*
X010207Y032816D01*
X010207Y032815D02*
X010993Y032815D01*
X010993Y032814D02*
X010207Y032814D01*
X010207Y032813D02*
X010993Y032813D01*
X010993Y032812D02*
X010207Y032812D01*
X010207Y032811D02*
X010993Y032811D01*
X010993Y032810D02*
X010207Y032810D01*
X010207Y032809D02*
X010993Y032809D01*
X010993Y032808D02*
X010207Y032808D01*
X010207Y032807D02*
X010993Y032807D01*
X010993Y032806D02*
X010207Y032806D01*
X010207Y032805D02*
X010993Y032805D01*
X010993Y032804D02*
X010207Y032804D01*
X010207Y032803D02*
X010993Y032803D01*
X010993Y032802D02*
X010207Y032802D01*
X010207Y032801D02*
X010993Y032801D01*
X010993Y032800D02*
X010207Y032800D01*
X010207Y032799D02*
X010993Y032799D01*
X010993Y032798D02*
X010207Y032798D01*
X010207Y032797D02*
X010993Y032797D01*
X010993Y032796D02*
X010207Y032796D01*
X010207Y032795D02*
X010993Y032795D01*
X010993Y032794D02*
X010207Y032794D01*
X010207Y032793D02*
X010993Y032793D01*
X010993Y032792D02*
X010207Y032792D01*
X010207Y032791D02*
X010993Y032791D01*
X010993Y032790D02*
X010207Y032790D01*
X010207Y032789D02*
X010993Y032789D01*
X010993Y032788D02*
X010207Y032788D01*
X010207Y032787D02*
X010993Y032787D01*
X010993Y032786D02*
X010207Y032786D01*
X010207Y032785D02*
X010993Y032785D01*
X010993Y032784D02*
X010207Y032784D01*
X010207Y032783D02*
X010993Y032783D01*
X010993Y032782D02*
X010207Y032782D01*
X010207Y032781D02*
X010993Y032781D01*
X010993Y032780D02*
X010207Y032780D01*
X010207Y032779D02*
X010993Y032779D01*
X010993Y032778D02*
X010207Y032778D01*
X010207Y032777D02*
X010993Y032777D01*
X010993Y032776D02*
X010207Y032776D01*
X010207Y032775D02*
X010993Y032775D01*
X010993Y032774D02*
X010207Y032774D01*
X010207Y032773D02*
X010993Y032773D01*
X010993Y032772D02*
X010207Y032772D01*
X010207Y032771D02*
X010993Y032771D01*
X010993Y032770D02*
X010207Y032770D01*
X010207Y032769D02*
X010993Y032769D01*
X010993Y032768D02*
X010207Y032768D01*
X010207Y032767D02*
X010993Y032767D01*
X010993Y032766D02*
X010207Y032766D01*
X010207Y032765D02*
X010993Y032765D01*
X010993Y032764D02*
X010207Y032764D01*
X010207Y032763D02*
X010993Y032763D01*
X010993Y032762D02*
X010207Y032762D01*
X010207Y032761D02*
X010993Y032761D01*
X010993Y032760D02*
X010207Y032760D01*
X010207Y032759D02*
X010993Y032759D01*
X010993Y032758D02*
X010207Y032758D01*
X010207Y032757D02*
X010993Y032757D01*
X010993Y032756D02*
X010207Y032756D01*
X010207Y032755D02*
X010993Y032755D01*
X010993Y032754D02*
X010207Y032754D01*
X010207Y032753D02*
X010993Y032753D01*
X010993Y032752D02*
X010207Y032752D01*
X010207Y032751D02*
X010993Y032751D01*
X010993Y032750D02*
X010207Y032750D01*
X010207Y032749D02*
X010993Y032749D01*
X010993Y032748D02*
X010207Y032748D01*
X010207Y032747D02*
X010993Y032747D01*
X010993Y032746D02*
X010207Y032746D01*
X010207Y032745D02*
X010993Y032745D01*
X010993Y032744D02*
X010207Y032744D01*
X010207Y032743D02*
X010993Y032743D01*
X010993Y032742D02*
X010207Y032742D01*
X010207Y032741D02*
X010993Y032741D01*
X010993Y032740D02*
X010207Y032740D01*
X010207Y032739D02*
X010993Y032739D01*
X010993Y032738D02*
X010207Y032738D01*
X010207Y032737D02*
X010993Y032737D01*
X010993Y032736D02*
X010207Y032736D01*
X010207Y032735D02*
X010993Y032735D01*
X010993Y032734D02*
X010207Y032734D01*
X010207Y032733D02*
X010993Y032733D01*
X010993Y032732D02*
X010207Y032732D01*
X010207Y032731D02*
X010993Y032731D01*
X010993Y032730D02*
X010207Y032730D01*
X010207Y032729D02*
X010993Y032729D01*
X010993Y032728D02*
X010207Y032728D01*
X010207Y032727D02*
X010993Y032727D01*
X010993Y032726D02*
X010207Y032726D01*
X010207Y032725D02*
X010993Y032725D01*
X010993Y032724D02*
X010207Y032724D01*
X010207Y032723D02*
X010993Y032723D01*
X010993Y032722D02*
X010207Y032722D01*
X010207Y032721D02*
X010993Y032721D01*
X010993Y032720D02*
X010207Y032720D01*
X010207Y032719D02*
X010993Y032719D01*
X010993Y032718D02*
X010207Y032718D01*
X010207Y032717D02*
X010993Y032717D01*
X010993Y032716D02*
X010207Y032716D01*
X010207Y032715D02*
X010993Y032715D01*
X010993Y032714D02*
X010207Y032714D01*
X010207Y032713D02*
X010993Y032713D01*
X010993Y032712D02*
X010207Y032712D01*
X010207Y032711D02*
X010993Y032711D01*
X010993Y032710D02*
X010207Y032710D01*
X010207Y032709D02*
X010993Y032709D01*
X010993Y032708D02*
X010207Y032708D01*
X010207Y032707D02*
X010993Y032707D01*
X010993Y032706D02*
X010207Y032706D01*
X010207Y032705D02*
X010993Y032705D01*
X010993Y032704D02*
X010207Y032704D01*
X010207Y032703D02*
X010993Y032703D01*
X010993Y032702D02*
X010207Y032702D01*
X010207Y032701D02*
X010993Y032701D01*
X010993Y032700D02*
X010207Y032700D01*
X010207Y032699D02*
X010993Y032699D01*
X010993Y032698D02*
X010207Y032698D01*
X010207Y032697D02*
X010993Y032697D01*
X010993Y032696D02*
X010207Y032696D01*
X010207Y032695D02*
X010993Y032695D01*
X010993Y032694D02*
X010207Y032694D01*
X010207Y032693D02*
X010993Y032693D01*
X010993Y032692D02*
X010207Y032692D01*
X010207Y032691D02*
X010993Y032691D01*
X010993Y032690D02*
X010207Y032690D01*
X010207Y032689D02*
X010993Y032689D01*
X010993Y032688D02*
X010207Y032688D01*
X010207Y032687D02*
X010993Y032687D01*
X010993Y032686D02*
X010207Y032686D01*
X010207Y032685D02*
X010993Y032685D01*
X010993Y032684D02*
X010207Y032684D01*
X010207Y032683D02*
X010993Y032683D01*
X010993Y032682D02*
X010207Y032682D01*
X010207Y032681D02*
X010993Y032681D01*
X010993Y032680D02*
X010207Y032680D01*
X010207Y032679D02*
X010993Y032679D01*
X010993Y032678D02*
X010207Y032678D01*
X010207Y032677D02*
X010993Y032677D01*
X010993Y032676D02*
X010207Y032676D01*
X010207Y032675D02*
X010993Y032675D01*
X010993Y032674D02*
X010207Y032674D01*
X010207Y032673D02*
X010993Y032673D01*
X010993Y032672D02*
X010207Y032672D01*
X010207Y032671D02*
X010993Y032671D01*
X010993Y032670D02*
X010207Y032670D01*
X010207Y032669D02*
X010993Y032669D01*
X010993Y032668D02*
X010207Y032668D01*
X010207Y032667D02*
X010993Y032667D01*
X010993Y032666D02*
X010207Y032666D01*
X010207Y032665D02*
X010993Y032665D01*
X010993Y032664D02*
X010207Y032664D01*
X010207Y032663D02*
X010993Y032663D01*
X010993Y032662D02*
X010207Y032662D01*
X010207Y032661D02*
X010993Y032661D01*
X010993Y032660D02*
X010207Y032660D01*
X010207Y032659D02*
X010993Y032659D01*
X010993Y032658D02*
X010207Y032658D01*
X010207Y032657D02*
X010993Y032657D01*
X010993Y032656D02*
X010207Y032656D01*
X010207Y032655D02*
X010993Y032655D01*
X010993Y032654D02*
X010207Y032654D01*
X010207Y032653D02*
X010993Y032653D01*
X010993Y032652D02*
X010207Y032652D01*
X010207Y032651D02*
X010993Y032651D01*
X010993Y032650D02*
X010207Y032650D01*
X010207Y032649D02*
X010993Y032649D01*
X010993Y032648D02*
X010207Y032648D01*
X010207Y032647D02*
X010993Y032647D01*
X010993Y032646D02*
X010207Y032646D01*
X010207Y032645D02*
X010993Y032645D01*
X010993Y032644D02*
X010207Y032644D01*
X010207Y032643D02*
X010993Y032643D01*
X010993Y032642D02*
X010207Y032642D01*
X010207Y032641D02*
X010993Y032641D01*
X010993Y032640D02*
X010207Y032640D01*
X010207Y032639D02*
X010993Y032639D01*
X010993Y032638D02*
X010207Y032638D01*
X010207Y032637D02*
X010993Y032637D01*
X010993Y032636D02*
X010207Y032636D01*
X010207Y032635D02*
X010993Y032635D01*
X010993Y032634D02*
X010207Y032634D01*
X010207Y032633D02*
X010993Y032633D01*
X010993Y032632D02*
X010207Y032632D01*
X010207Y032631D02*
X010993Y032631D01*
X010993Y032630D02*
X010207Y032630D01*
X010207Y032629D02*
X010993Y032629D01*
X010993Y032628D02*
X010207Y032628D01*
X010207Y032627D02*
X010993Y032627D01*
X010993Y032626D02*
X010207Y032626D01*
X010207Y032625D02*
X010993Y032625D01*
X010993Y032624D02*
X010207Y032624D01*
X010207Y032623D02*
X010993Y032623D01*
X010993Y032622D02*
X010207Y032622D01*
X010207Y032621D02*
X010993Y032621D01*
X010993Y032620D02*
X010207Y032620D01*
X010207Y032619D02*
X010993Y032619D01*
X010993Y032618D02*
X010207Y032618D01*
X010207Y032617D02*
X010993Y032617D01*
X010993Y032616D02*
X010207Y032616D01*
X010207Y032615D02*
X010993Y032615D01*
X010993Y032614D02*
X010207Y032614D01*
X010207Y032613D02*
X010993Y032613D01*
X010993Y032612D02*
X010207Y032612D01*
X010207Y032611D02*
X010993Y032611D01*
X010993Y032610D02*
X010207Y032610D01*
X010207Y032609D02*
X010993Y032609D01*
X010993Y032608D02*
X010207Y032608D01*
X010207Y032607D02*
X010993Y032607D01*
X010993Y032606D02*
X010207Y032606D01*
X010207Y032605D02*
X010993Y032605D01*
X010993Y032604D02*
X010207Y032604D01*
X010207Y032603D02*
X010993Y032603D01*
X010993Y032602D02*
X010207Y032602D01*
X010207Y032601D02*
X010993Y032601D01*
X010993Y032600D02*
X010207Y032600D01*
X010207Y032599D02*
X010993Y032599D01*
X010993Y032598D02*
X010207Y032598D01*
X010207Y032597D02*
X010993Y032597D01*
X010993Y032596D02*
X010207Y032596D01*
X010207Y032595D02*
X010993Y032595D01*
X010993Y032594D02*
X010207Y032594D01*
X010207Y032593D02*
X010993Y032593D01*
X010993Y032592D02*
X010207Y032592D01*
X010207Y032591D02*
X010993Y032591D01*
X010993Y032590D02*
X010207Y032590D01*
X010207Y032589D02*
X010993Y032589D01*
X010993Y032588D02*
X010207Y032588D01*
X010207Y032587D02*
X010993Y032587D01*
X010993Y032586D02*
X010207Y032586D01*
X010207Y032585D02*
X010993Y032585D01*
X010993Y032584D02*
X010207Y032584D01*
X010207Y032583D02*
X010993Y032583D01*
X010993Y032582D02*
X010207Y032582D01*
X010207Y032581D02*
X010993Y032581D01*
X010993Y032580D02*
X010207Y032580D01*
X010207Y032579D02*
X010993Y032579D01*
X010993Y032578D02*
X010207Y032578D01*
X010207Y032577D02*
X010993Y032577D01*
X010993Y032576D02*
X010207Y032576D01*
X010207Y032575D02*
X010993Y032575D01*
X010993Y032574D02*
X010207Y032574D01*
X010207Y032573D02*
X010993Y032573D01*
X010993Y032572D02*
X010207Y032572D01*
X010207Y032571D02*
X010993Y032571D01*
X010993Y032570D02*
X010207Y032570D01*
X010207Y032569D02*
X010993Y032569D01*
X010993Y032568D02*
X010207Y032568D01*
X010207Y032567D02*
X010993Y032567D01*
X010993Y032566D02*
X010207Y032566D01*
X010207Y032565D02*
X010993Y032565D01*
X010993Y032564D02*
X010207Y032564D01*
X010207Y032563D02*
X010993Y032563D01*
X010993Y032562D02*
X010207Y032562D01*
X010207Y032561D02*
X010993Y032561D01*
X010993Y032560D02*
X010207Y032560D01*
X010207Y032559D02*
X010993Y032559D01*
X010993Y032558D02*
X010207Y032558D01*
X010207Y032557D02*
X010993Y032557D01*
X010993Y032556D02*
X010207Y032556D01*
X010207Y032555D02*
X010993Y032555D01*
X010993Y032554D02*
X010207Y032554D01*
X010207Y032553D02*
X010993Y032553D01*
X010993Y032552D02*
X010207Y032552D01*
X010207Y032551D02*
X010993Y032551D01*
X010993Y032550D02*
X010207Y032550D01*
X010207Y032549D02*
X010993Y032549D01*
X010993Y032548D02*
X010207Y032548D01*
X010207Y032547D02*
X010993Y032547D01*
X010993Y032546D02*
X010207Y032546D01*
X010207Y032545D02*
X010993Y032545D01*
X010993Y032544D02*
X010207Y032544D01*
X010207Y032543D02*
X010993Y032543D01*
X010993Y032542D02*
X010207Y032542D01*
X010207Y032541D02*
X010993Y032541D01*
X010993Y032540D02*
X010207Y032540D01*
X010207Y032539D02*
X010993Y032539D01*
X010993Y032538D02*
X010207Y032538D01*
X010207Y032537D02*
X010993Y032537D01*
X010993Y032536D02*
X010207Y032536D01*
X010207Y032535D02*
X010993Y032535D01*
X010993Y032534D02*
X010207Y032534D01*
X010207Y032533D02*
X010993Y032533D01*
X010993Y032532D02*
X010207Y032532D01*
X010207Y032531D02*
X010993Y032531D01*
X010993Y032530D02*
X010207Y032530D01*
X010207Y032529D02*
X010993Y032529D01*
X010993Y032528D02*
X010207Y032528D01*
X010207Y032527D02*
X010993Y032527D01*
X010993Y032526D02*
X010207Y032526D01*
X010207Y032525D02*
X010993Y032525D01*
X010993Y032524D02*
X010207Y032524D01*
X010207Y032523D02*
X010993Y032523D01*
X010993Y032522D02*
X010207Y032522D01*
X010207Y032521D02*
X010993Y032521D01*
X010993Y032520D02*
X010207Y032520D01*
X010207Y032519D02*
X010993Y032519D01*
X010993Y032518D02*
X010207Y032518D01*
X010207Y032517D02*
X010993Y032517D01*
X010993Y032516D02*
X010207Y032516D01*
X010207Y032515D02*
X010993Y032515D01*
X010993Y032514D02*
X010207Y032514D01*
X010207Y032513D02*
X010993Y032513D01*
X010993Y032512D02*
X010207Y032512D01*
X010207Y032511D02*
X010993Y032511D01*
X010993Y032510D02*
X010207Y032510D01*
X010207Y032509D02*
X010993Y032509D01*
X010993Y032508D02*
X010207Y032508D01*
X010207Y032507D02*
X010993Y032507D01*
X010993Y032506D02*
X010207Y032506D01*
X010207Y032505D02*
X010993Y032505D01*
X010993Y034149D02*
X010207Y034149D01*
X010207Y034150D02*
X010993Y034150D01*
X010993Y034151D02*
X010207Y034151D01*
X010207Y034152D02*
X010993Y034152D01*
X010993Y034153D02*
X010207Y034153D01*
X010207Y034154D02*
X010993Y034154D01*
X010993Y034155D02*
X010207Y034155D01*
X010207Y034156D02*
X010993Y034156D01*
X010993Y034157D02*
X010207Y034157D01*
X010207Y034158D02*
X010993Y034158D01*
X010993Y034159D02*
X010207Y034159D01*
X010207Y034160D02*
X010993Y034160D01*
X010993Y034161D02*
X010207Y034161D01*
X010207Y034162D02*
X010993Y034162D01*
X010993Y034163D02*
X010207Y034163D01*
X010207Y034164D02*
X010993Y034164D01*
X010993Y034165D02*
X010207Y034165D01*
X010207Y034166D02*
X010993Y034166D01*
X010993Y034167D02*
X010207Y034167D01*
X010207Y034168D02*
X010993Y034168D01*
X010993Y034169D02*
X010207Y034169D01*
X010207Y034170D02*
X010993Y034170D01*
X010993Y034171D02*
X010207Y034171D01*
X010207Y034172D02*
X010993Y034172D01*
X010993Y034173D02*
X010207Y034173D01*
X010207Y034174D02*
X010993Y034174D01*
X010993Y034175D02*
X010207Y034175D01*
X010207Y034176D02*
X010993Y034176D01*
X010993Y034177D02*
X010207Y034177D01*
X010207Y034178D02*
X010993Y034178D01*
X010993Y034179D02*
X010207Y034179D01*
X010207Y034180D02*
X010993Y034180D01*
X010993Y034181D02*
X010207Y034181D01*
X010207Y034182D02*
X010993Y034182D01*
X010993Y034183D02*
X010207Y034183D01*
X010207Y034184D02*
X010993Y034184D01*
X010993Y034185D02*
X010207Y034185D01*
X010207Y034186D02*
X010993Y034186D01*
X010993Y034187D02*
X010207Y034187D01*
X010207Y034188D02*
X010993Y034188D01*
X010993Y034189D02*
X010207Y034189D01*
X010207Y034190D02*
X010993Y034190D01*
X010993Y034191D02*
X010207Y034191D01*
X010207Y034192D02*
X010993Y034192D01*
X010993Y034193D02*
X010207Y034193D01*
X010207Y034194D02*
X010993Y034194D01*
X010993Y034195D02*
X010207Y034195D01*
X010207Y034196D02*
X010993Y034196D01*
X010993Y034197D02*
X010207Y034197D01*
X010207Y034198D02*
X010993Y034198D01*
X010993Y034199D02*
X010207Y034199D01*
X010207Y034200D02*
X010993Y034200D01*
X010993Y034201D02*
X010207Y034201D01*
X010207Y034202D02*
X010993Y034202D01*
X010993Y034203D02*
X010207Y034203D01*
X010207Y034204D02*
X010993Y034204D01*
X010993Y034205D02*
X010207Y034205D01*
X010207Y034206D02*
X010993Y034206D01*
X010993Y034207D02*
X010207Y034207D01*
X010207Y034208D02*
X010993Y034208D01*
X010993Y034209D02*
X010207Y034209D01*
X010207Y034210D02*
X010993Y034210D01*
X010993Y034211D02*
X010207Y034211D01*
X010207Y034212D02*
X010993Y034212D01*
X010993Y034213D02*
X010207Y034213D01*
X010207Y034214D02*
X010993Y034214D01*
X010993Y034215D02*
X010207Y034215D01*
X010207Y034216D02*
X010993Y034216D01*
X010993Y034217D02*
X010207Y034217D01*
X010207Y034218D02*
X010993Y034218D01*
X010993Y034219D02*
X010207Y034219D01*
X010207Y034220D02*
X010993Y034220D01*
X010993Y034221D02*
X010207Y034221D01*
X010207Y034222D02*
X010993Y034222D01*
X010993Y034223D02*
X010207Y034223D01*
X010207Y034224D02*
X010993Y034224D01*
X010993Y034225D02*
X010207Y034225D01*
X010207Y034226D02*
X010993Y034226D01*
X010993Y034227D02*
X010207Y034227D01*
X010207Y034228D02*
X010993Y034228D01*
X010993Y034229D02*
X010207Y034229D01*
X010207Y034230D02*
X010993Y034230D01*
X010993Y034231D02*
X010207Y034231D01*
X010207Y034232D02*
X010993Y034232D01*
X010993Y034233D02*
X010207Y034233D01*
X010207Y034234D02*
X010993Y034234D01*
X010993Y034235D02*
X010207Y034235D01*
X010207Y034236D02*
X010993Y034236D01*
X010993Y034237D02*
X010207Y034237D01*
X010207Y034238D02*
X010993Y034238D01*
X010993Y034239D02*
X010207Y034239D01*
X010207Y034240D02*
X010993Y034240D01*
X010993Y034241D02*
X010207Y034241D01*
X010207Y034242D02*
X010993Y034242D01*
X010993Y034243D02*
X010207Y034243D01*
X010207Y034244D02*
X010993Y034244D01*
X010993Y034245D02*
X010207Y034245D01*
X010207Y034246D02*
X010993Y034246D01*
X010993Y034247D02*
X010207Y034247D01*
X010207Y034248D02*
X010993Y034248D01*
X010993Y034249D02*
X010207Y034249D01*
X010207Y034250D02*
X010993Y034250D01*
X010993Y034251D02*
X010207Y034251D01*
X010207Y034252D02*
X010993Y034252D01*
X010993Y034253D02*
X010207Y034253D01*
X010207Y034254D02*
X010993Y034254D01*
X010993Y034255D02*
X010207Y034255D01*
X010207Y034256D02*
X010993Y034256D01*
X010993Y034257D02*
X010207Y034257D01*
X010207Y034258D02*
X010993Y034258D01*
X010993Y034259D02*
X010207Y034259D01*
X010207Y034260D02*
X010993Y034260D01*
X010993Y034261D02*
X010207Y034261D01*
X010207Y034262D02*
X010993Y034262D01*
X010993Y034263D02*
X010207Y034263D01*
X010207Y034264D02*
X010993Y034264D01*
X010993Y034265D02*
X010207Y034265D01*
X010207Y034266D02*
X010993Y034266D01*
X010993Y034267D02*
X010207Y034267D01*
X010207Y034268D02*
X010993Y034268D01*
X010993Y034269D02*
X010207Y034269D01*
X010207Y034270D02*
X010993Y034270D01*
X010993Y034271D02*
X010207Y034271D01*
X010207Y034272D02*
X010993Y034272D01*
X010993Y034273D02*
X010207Y034273D01*
X010207Y034274D02*
X010993Y034274D01*
X010993Y034275D02*
X010207Y034275D01*
X010207Y034276D02*
X010993Y034276D01*
X010993Y034277D02*
X010207Y034277D01*
X010207Y034278D02*
X010993Y034278D01*
X010993Y034279D02*
X010207Y034279D01*
X010207Y034280D02*
X010993Y034280D01*
X010993Y034281D02*
X010207Y034281D01*
X010207Y034282D02*
X010993Y034282D01*
X010993Y034283D02*
X010207Y034283D01*
X010207Y034284D02*
X010993Y034284D01*
X010993Y034285D02*
X010207Y034285D01*
X010207Y034286D02*
X010993Y034286D01*
X010993Y034287D02*
X010207Y034287D01*
X010207Y034288D02*
X010993Y034288D01*
X010993Y034289D02*
X010207Y034289D01*
X010207Y034290D02*
X010993Y034290D01*
X010993Y034291D02*
X010207Y034291D01*
X010207Y034292D02*
X010993Y034292D01*
X010993Y034293D02*
X010207Y034293D01*
X010207Y034294D02*
X010993Y034294D01*
X010993Y034295D02*
X010207Y034295D01*
X010207Y034296D02*
X010993Y034296D01*
X010993Y034297D02*
X010207Y034297D01*
X010207Y034298D02*
X010993Y034298D01*
X010993Y034299D02*
X010207Y034299D01*
X010207Y034300D02*
X010993Y034300D01*
X010993Y034301D02*
X010207Y034301D01*
X010207Y034302D02*
X010993Y034302D01*
X010993Y034303D02*
X010207Y034303D01*
X010207Y034304D02*
X010993Y034304D01*
X010993Y034305D02*
X010207Y034305D01*
X010207Y034306D02*
X010993Y034306D01*
X010993Y034307D02*
X010207Y034307D01*
X010207Y034308D02*
X010993Y034308D01*
X010993Y034309D02*
X010207Y034309D01*
X010207Y034310D02*
X010993Y034310D01*
X010993Y034311D02*
X010207Y034311D01*
X010207Y034312D02*
X010993Y034312D01*
X010993Y034313D02*
X010207Y034313D01*
X010207Y034314D02*
X010993Y034314D01*
X010993Y034315D02*
X010207Y034315D01*
X010207Y034316D02*
X010993Y034316D01*
X010993Y034317D02*
X010207Y034317D01*
X010207Y034318D02*
X010993Y034318D01*
X010993Y034319D02*
X010207Y034319D01*
X010207Y034320D02*
X010993Y034320D01*
X010993Y034321D02*
X010207Y034321D01*
X010207Y034322D02*
X010993Y034322D01*
X010993Y034323D02*
X010207Y034323D01*
X010207Y034324D02*
X010993Y034324D01*
X010993Y034325D02*
X010207Y034325D01*
X010207Y034326D02*
X010993Y034326D01*
X010993Y034327D02*
X010207Y034327D01*
X010207Y034328D02*
X010993Y034328D01*
X010993Y034329D02*
X010207Y034329D01*
X010207Y034330D02*
X010993Y034330D01*
X010993Y034331D02*
X010207Y034331D01*
X010207Y034332D02*
X010993Y034332D01*
X010993Y034333D02*
X010207Y034333D01*
X010207Y034334D02*
X010993Y034334D01*
X010993Y034335D02*
X010207Y034335D01*
X010207Y034336D02*
X010993Y034336D01*
X010993Y034337D02*
X010207Y034337D01*
X010207Y034338D02*
X010993Y034338D01*
X010993Y034339D02*
X010207Y034339D01*
X010207Y034340D02*
X010993Y034340D01*
X010993Y034341D02*
X010207Y034341D01*
X010207Y034342D02*
X010993Y034342D01*
X010993Y034343D02*
X010207Y034343D01*
X010207Y034344D02*
X010993Y034344D01*
X010993Y034345D02*
X010207Y034345D01*
X010207Y034346D02*
X010993Y034346D01*
X010993Y034347D02*
X010207Y034347D01*
X010207Y034348D02*
X010993Y034348D01*
X010993Y034349D02*
X010207Y034349D01*
X010207Y034350D02*
X010993Y034350D01*
X010993Y034351D02*
X010207Y034351D01*
X010207Y034352D02*
X010993Y034352D01*
X010993Y034353D02*
X010207Y034353D01*
X010207Y034354D02*
X010993Y034354D01*
X010993Y034355D02*
X010207Y034355D01*
X010207Y034356D02*
X010993Y034356D01*
X010993Y034357D02*
X010207Y034357D01*
X010207Y034358D02*
X010993Y034358D01*
X010993Y034359D02*
X010207Y034359D01*
X010207Y034360D02*
X010993Y034360D01*
X010993Y034361D02*
X010207Y034361D01*
X010207Y034362D02*
X010993Y034362D01*
X010993Y034363D02*
X010207Y034363D01*
X010207Y034364D02*
X010993Y034364D01*
X010993Y034365D02*
X010207Y034365D01*
X010207Y034366D02*
X010993Y034366D01*
X010993Y034367D02*
X010207Y034367D01*
X010207Y034368D02*
X010993Y034368D01*
X010993Y034369D02*
X010207Y034369D01*
X010207Y034370D02*
X010993Y034370D01*
X010993Y034371D02*
X010207Y034371D01*
X010207Y034372D02*
X010993Y034372D01*
X010993Y034373D02*
X010207Y034373D01*
X010207Y034374D02*
X010993Y034374D01*
X010993Y034375D02*
X010207Y034375D01*
X010207Y034376D02*
X010993Y034376D01*
X010993Y034377D02*
X010207Y034377D01*
X010207Y034378D02*
X010993Y034378D01*
X010993Y034379D02*
X010207Y034379D01*
X010207Y034380D02*
X010993Y034380D01*
X010993Y034381D02*
X010207Y034381D01*
X010207Y034382D02*
X010993Y034382D01*
X010993Y034383D02*
X010207Y034383D01*
X010207Y034384D02*
X010993Y034384D01*
X010993Y034385D02*
X010207Y034385D01*
X010207Y034386D02*
X010993Y034386D01*
X010993Y034387D02*
X010207Y034387D01*
X010207Y034388D02*
X010993Y034388D01*
X010993Y034389D02*
X010207Y034389D01*
X010207Y034390D02*
X010993Y034390D01*
X010993Y034391D02*
X010207Y034391D01*
X010207Y034392D02*
X010993Y034392D01*
X010993Y034393D02*
X010207Y034393D01*
X010207Y034394D02*
X010993Y034394D01*
X010993Y034395D02*
X010207Y034395D01*
X010207Y034396D02*
X010993Y034396D01*
X010993Y034397D02*
X010207Y034397D01*
X010207Y034398D02*
X010993Y034398D01*
X010993Y034399D02*
X010207Y034399D01*
X010207Y034400D02*
X010993Y034400D01*
X010993Y034401D02*
X010207Y034401D01*
X010207Y034402D02*
X010993Y034402D01*
X010993Y034403D02*
X010207Y034403D01*
X010207Y034404D02*
X010993Y034404D01*
X010993Y034405D02*
X010207Y034405D01*
X010207Y034406D02*
X010993Y034406D01*
X010993Y034407D02*
X010207Y034407D01*
X010207Y034408D02*
X010993Y034408D01*
X010993Y034409D02*
X010207Y034409D01*
X010207Y034410D02*
X010993Y034410D01*
X010993Y034411D02*
X010207Y034411D01*
X010207Y034412D02*
X010993Y034412D01*
X010993Y034413D02*
X010207Y034413D01*
X010207Y034414D02*
X010993Y034414D01*
X010993Y034415D02*
X010207Y034415D01*
X010207Y034416D02*
X010993Y034416D01*
X010993Y034417D02*
X010207Y034417D01*
X010207Y034418D02*
X010993Y034418D01*
X010993Y034419D02*
X010207Y034419D01*
X010207Y034420D02*
X010993Y034420D01*
X010993Y034421D02*
X010207Y034421D01*
X010207Y034422D02*
X010993Y034422D01*
X010993Y034423D02*
X010207Y034423D01*
X010207Y034424D02*
X010993Y034424D01*
X010993Y034425D02*
X010207Y034425D01*
X010207Y034426D02*
X010993Y034426D01*
X010993Y034427D02*
X010207Y034427D01*
X010207Y034428D02*
X010993Y034428D01*
X010993Y034429D02*
X010207Y034429D01*
X010207Y034430D02*
X010993Y034430D01*
X010993Y034431D02*
X010207Y034431D01*
X010207Y034432D02*
X010993Y034432D01*
X010993Y034433D02*
X010207Y034433D01*
X010207Y034434D02*
X010993Y034434D01*
X010993Y034435D02*
X010207Y034435D01*
X010207Y034436D02*
X010993Y034436D01*
X010993Y034437D02*
X010207Y034437D01*
X010207Y034438D02*
X010993Y034438D01*
X010993Y034439D02*
X010207Y034439D01*
X010207Y034440D02*
X010993Y034440D01*
X010993Y034441D02*
X010207Y034441D01*
X010207Y034442D02*
X010993Y034442D01*
X010993Y034443D02*
X010207Y034443D01*
X010207Y034444D02*
X010993Y034444D01*
X010993Y034445D02*
X010207Y034445D01*
X010207Y034446D02*
X010993Y034446D01*
X010993Y034447D02*
X010207Y034447D01*
X010207Y034448D02*
X010993Y034448D01*
X010993Y034449D02*
X010207Y034449D01*
X010207Y034450D02*
X010993Y034450D01*
X010993Y034451D02*
X010207Y034451D01*
X010207Y034452D02*
X010993Y034452D01*
X010993Y034453D02*
X010207Y034453D01*
X010207Y034454D02*
X010993Y034454D01*
X010993Y034455D02*
X010207Y034455D01*
X010207Y034456D02*
X010993Y034456D01*
X010993Y034457D02*
X010207Y034457D01*
X010207Y034458D02*
X010993Y034458D01*
X010993Y034459D02*
X010207Y034459D01*
X010207Y034460D02*
X010993Y034460D01*
X010993Y034461D02*
X010207Y034461D01*
X010207Y034462D02*
X010993Y034462D01*
X010993Y034463D02*
X010207Y034463D01*
X010207Y034464D02*
X010993Y034464D01*
X010993Y034465D02*
X010207Y034465D01*
X010207Y034466D02*
X010993Y034466D01*
X010993Y034467D02*
X010207Y034467D01*
X010207Y034468D02*
X010993Y034468D01*
X010993Y034469D02*
X010207Y034469D01*
X010207Y034470D02*
X010993Y034470D01*
X010993Y034471D02*
X010207Y034471D01*
X010207Y034472D02*
X010993Y034472D01*
X010993Y034473D02*
X010207Y034473D01*
X010207Y034474D02*
X010993Y034474D01*
X010993Y034475D02*
X010207Y034475D01*
X010207Y034476D02*
X010993Y034476D01*
X010993Y034477D02*
X010207Y034477D01*
X010207Y034478D02*
X010993Y034478D01*
X010993Y034479D02*
X010207Y034479D01*
X010207Y034480D02*
X010993Y034480D01*
X010993Y034481D02*
X010207Y034481D01*
X010207Y034482D02*
X010993Y034482D01*
X010993Y034483D02*
X010207Y034483D01*
X010207Y034484D02*
X010993Y034484D01*
X010993Y034485D02*
X010207Y034485D01*
X010207Y034486D02*
X010993Y034486D01*
X010993Y034487D02*
X010207Y034487D01*
X010207Y034488D02*
X010993Y034488D01*
X010993Y034489D02*
X010207Y034489D01*
X010207Y034490D02*
X010993Y034490D01*
X010993Y034491D02*
X010207Y034491D01*
X010207Y034492D02*
X010993Y034492D01*
X010993Y034493D02*
X010207Y034493D01*
X010207Y034494D02*
X010993Y034494D01*
X010993Y034495D02*
X010207Y034495D01*
X010207Y034496D02*
X010993Y034496D01*
X010993Y034497D02*
X010207Y034497D01*
X010207Y034498D02*
X010993Y034498D01*
X010993Y034499D02*
X010207Y034499D01*
X010207Y034500D02*
X010993Y034500D01*
X010993Y034501D02*
X010207Y034501D01*
X010207Y034502D02*
X010993Y034502D01*
X010993Y034503D02*
X010207Y034503D01*
X010207Y034504D02*
X010993Y034504D01*
X010993Y034505D02*
X010207Y034505D01*
X010207Y034506D02*
X010993Y034506D01*
X010993Y034507D02*
X010207Y034507D01*
X010207Y034508D02*
X010993Y034508D01*
X010993Y034509D02*
X010207Y034509D01*
X010207Y034510D02*
X010993Y034510D01*
X010993Y034511D02*
X010207Y034511D01*
X010207Y034512D02*
X010993Y034512D01*
X010993Y034513D02*
X010207Y034513D01*
X010207Y034514D02*
X010993Y034514D01*
X010993Y034515D02*
X010207Y034515D01*
X010207Y034516D02*
X010993Y034516D01*
X010993Y034517D02*
X010207Y034517D01*
X010207Y034518D02*
X010993Y034518D01*
X010993Y034519D02*
X010207Y034519D01*
X010207Y034520D02*
X010993Y034520D01*
X010993Y034521D02*
X010207Y034521D01*
X010207Y034522D02*
X010993Y034522D01*
X010993Y034523D02*
X010207Y034523D01*
X010207Y034524D02*
X010993Y034524D01*
X010993Y034525D02*
X010207Y034525D01*
X010207Y034526D02*
X010993Y034526D01*
X010993Y034527D02*
X010207Y034527D01*
X010207Y034528D02*
X010993Y034528D01*
X010993Y034529D02*
X010207Y034529D01*
X010207Y034530D02*
X010993Y034530D01*
X010993Y034531D02*
X010207Y034531D01*
X010207Y034532D02*
X010993Y034532D01*
X010993Y034533D02*
X010207Y034533D01*
X010207Y034534D02*
X010993Y034534D01*
X010993Y034535D02*
X010207Y034535D01*
X010207Y034536D02*
X010993Y034536D01*
X010993Y034537D02*
X010207Y034537D01*
X010207Y034538D02*
X010993Y034538D01*
X010993Y034539D02*
X010207Y034539D01*
X010207Y034540D02*
X010993Y034540D01*
X010993Y034541D02*
X010207Y034541D01*
X010207Y034542D02*
X010993Y034542D01*
X010993Y034543D02*
X010207Y034543D01*
X010207Y034544D02*
X010993Y034544D01*
X010993Y034545D02*
X010207Y034545D01*
X010207Y034546D02*
X010993Y034546D01*
X010993Y034547D02*
X010207Y034547D01*
X010207Y034548D02*
X010993Y034548D01*
X010993Y034549D02*
X010207Y034549D01*
X010207Y034550D02*
X010993Y034550D01*
X010993Y034551D02*
X010207Y034551D01*
X010207Y034552D02*
X010993Y034552D01*
X010993Y034553D02*
X010207Y034553D01*
X010207Y034554D02*
X010993Y034554D01*
X010993Y034555D02*
X010207Y034555D01*
X010207Y034556D02*
X010993Y034556D01*
X010993Y034557D02*
X010207Y034557D01*
X010207Y034558D02*
X010993Y034558D01*
X010993Y034559D02*
X010207Y034559D01*
X010207Y034560D02*
X010993Y034560D01*
X010993Y034561D02*
X010207Y034561D01*
X010207Y034562D02*
X010993Y034562D01*
X010993Y034563D02*
X010207Y034563D01*
X010207Y034564D02*
X010993Y034564D01*
X010993Y034565D02*
X010207Y034565D01*
X010207Y034566D02*
X010993Y034566D01*
X010993Y034567D02*
X010207Y034567D01*
X010207Y034568D02*
X010993Y034568D01*
X010993Y034569D02*
X010207Y034569D01*
X010207Y034570D02*
X010993Y034570D01*
X010993Y034571D02*
X010207Y034571D01*
X010207Y034572D02*
X010993Y034572D01*
X010993Y034573D02*
X010207Y034573D01*
X010207Y034574D02*
X010993Y034574D01*
X010993Y034575D02*
X010207Y034575D01*
X010207Y034576D02*
X010993Y034576D01*
X010993Y034577D02*
X010207Y034577D01*
X010207Y034578D02*
X010993Y034578D01*
X010993Y034579D02*
X010207Y034579D01*
X010207Y034580D02*
X010993Y034580D01*
X010993Y034581D02*
X010207Y034581D01*
X010207Y034582D02*
X010993Y034582D01*
X010993Y034583D02*
X010207Y034583D01*
X010207Y034584D02*
X010993Y034584D01*
X010993Y034585D02*
X010207Y034585D01*
X010207Y034586D02*
X010993Y034586D01*
X010993Y034587D02*
X010207Y034587D01*
X010207Y034588D02*
X010993Y034588D01*
X010993Y034589D02*
X010207Y034589D01*
X010207Y034590D02*
X010993Y034590D01*
X010993Y034591D02*
X010207Y034591D01*
X010207Y034592D02*
X010993Y034592D01*
X010993Y034593D02*
X010207Y034593D01*
X010207Y034594D02*
X010993Y034594D01*
X010993Y034595D02*
X010207Y034595D01*
X010207Y034596D02*
X010993Y034596D01*
X010993Y034597D02*
X010207Y034597D01*
X010207Y034598D02*
X010993Y034598D01*
X010993Y034599D02*
X010207Y034599D01*
X010207Y034600D02*
X010993Y034600D01*
X010993Y034601D02*
X010207Y034601D01*
X010207Y034602D02*
X010993Y034602D01*
X010993Y034603D02*
X010207Y034603D01*
X010207Y034604D02*
X010993Y034604D01*
X010993Y034605D02*
X010207Y034605D01*
X010207Y034606D02*
X010993Y034606D01*
X010993Y034607D02*
X010207Y034607D01*
X010207Y034608D02*
X010993Y034608D01*
X010993Y034609D02*
X010207Y034609D01*
X010207Y034610D02*
X010993Y034610D01*
X010993Y034611D02*
X010207Y034611D01*
X010207Y034612D02*
X010993Y034612D01*
X010993Y034613D02*
X010207Y034613D01*
X010207Y034614D02*
X010993Y034614D01*
X010993Y034615D02*
X010207Y034615D01*
X010207Y034616D02*
X010993Y034616D01*
X010993Y034617D02*
X010207Y034617D01*
X010207Y034618D02*
X010993Y034618D01*
X010993Y034619D02*
X010207Y034619D01*
X010207Y034620D02*
X010993Y034620D01*
X010993Y034621D02*
X010207Y034621D01*
X010207Y034622D02*
X010993Y034622D01*
X010993Y034623D02*
X010207Y034623D01*
X010207Y034624D02*
X010993Y034624D01*
X010993Y034625D02*
X010207Y034625D01*
X010207Y034626D02*
X010993Y034626D01*
X010993Y034627D02*
X010207Y034627D01*
X010207Y034628D02*
X010993Y034628D01*
X010993Y034629D02*
X010207Y034629D01*
X010207Y034630D02*
X010993Y034630D01*
X010993Y034631D02*
X010207Y034631D01*
X010207Y034632D02*
X010993Y034632D01*
X010993Y034633D02*
X010207Y034633D01*
X010207Y034634D02*
X010993Y034634D01*
X010993Y034635D02*
X010207Y034635D01*
X010207Y034636D02*
X010993Y034636D01*
X010993Y034637D02*
X010207Y034637D01*
X010207Y034638D02*
X010993Y034638D01*
X010993Y034639D02*
X010207Y034639D01*
X010207Y034640D02*
X010993Y034640D01*
X010993Y034641D02*
X010207Y034641D01*
X010207Y034642D02*
X010993Y034642D01*
X010993Y034643D02*
X010207Y034643D01*
X010207Y034644D02*
X010993Y034644D01*
X010993Y034645D02*
X010207Y034645D01*
X010207Y034646D02*
X010993Y034646D01*
X010993Y034647D02*
X010207Y034647D01*
X010207Y034648D02*
X010993Y034648D01*
X010993Y034649D02*
X010207Y034649D01*
X010207Y034650D02*
X010993Y034650D01*
X010993Y034651D02*
X010207Y034651D01*
X010207Y034652D02*
X010993Y034652D01*
X010993Y034653D02*
X010207Y034653D01*
X010207Y034654D02*
X010993Y034654D01*
X010993Y034655D02*
X010207Y034655D01*
X010207Y034656D02*
X010993Y034656D01*
X010993Y034657D02*
X010207Y034657D01*
X010207Y034658D02*
X010993Y034658D01*
X010993Y034659D02*
X010207Y034659D01*
X010207Y034660D02*
X010993Y034660D01*
X010993Y034661D02*
X010207Y034661D01*
X010207Y034662D02*
X010993Y034662D01*
X010993Y034663D02*
X010207Y034663D01*
X010207Y034664D02*
X010993Y034664D01*
X010993Y034665D02*
X010207Y034665D01*
X010207Y034666D02*
X010993Y034666D01*
X010993Y034667D02*
X010207Y034667D01*
X010207Y034668D02*
X010993Y034668D01*
X010993Y034669D02*
X010207Y034669D01*
X010207Y034670D02*
X010993Y034670D01*
X010993Y034671D02*
X010207Y034671D01*
X010207Y034672D02*
X010993Y034672D01*
X010993Y034673D02*
X010207Y034673D01*
X010207Y034674D02*
X010993Y034674D01*
X010993Y034675D02*
X010207Y034675D01*
X010207Y034676D02*
X010993Y034676D01*
X010993Y034677D02*
X010207Y034677D01*
X010207Y034678D02*
X010993Y034678D01*
X010993Y034679D02*
X010207Y034679D01*
X010207Y034680D02*
X010993Y034680D01*
X010993Y034681D02*
X010207Y034681D01*
X010207Y034682D02*
X010993Y034682D01*
X010993Y034683D02*
X010207Y034683D01*
X010207Y034684D02*
X010993Y034684D01*
X010993Y034685D02*
X010207Y034685D01*
X010207Y034686D02*
X010993Y034686D01*
X010993Y034687D02*
X010207Y034687D01*
X010207Y034688D02*
X010993Y034688D01*
X010993Y034689D02*
X010207Y034689D01*
X010207Y034690D02*
X010993Y034690D01*
X010993Y034691D02*
X010207Y034691D01*
X010207Y034692D02*
X010993Y034692D01*
X010993Y034693D02*
X010207Y034693D01*
X010207Y034694D02*
X010993Y034694D01*
X010993Y034695D02*
X010207Y034695D01*
X010207Y034696D02*
X010993Y034696D01*
X010993Y034697D02*
X010207Y034697D01*
X010207Y034698D02*
X010993Y034698D01*
X010993Y034699D02*
X010207Y034699D01*
X010207Y034700D02*
X010993Y034700D01*
X010993Y034701D02*
X010207Y034701D01*
X010207Y034702D02*
X010993Y034702D01*
X010993Y034703D02*
X010207Y034703D01*
X010207Y034704D02*
X010993Y034704D01*
X010993Y034705D02*
X010207Y034705D01*
X010207Y034706D02*
X010993Y034706D01*
X010993Y034707D02*
X010207Y034707D01*
X010207Y034708D02*
X010993Y034708D01*
X010993Y034709D02*
X010207Y034709D01*
X010207Y034710D02*
X010993Y034710D01*
X010993Y034711D02*
X010207Y034711D01*
X010207Y034712D02*
X010993Y034712D01*
X010993Y034713D02*
X010207Y034713D01*
X010207Y034714D02*
X010993Y034714D01*
X010993Y034715D02*
X010207Y034715D01*
X010207Y034716D02*
X010993Y034716D01*
X010993Y034717D02*
X010207Y034717D01*
X010207Y034718D02*
X010993Y034718D01*
X010993Y034719D02*
X010207Y034719D01*
X010207Y034720D02*
X010993Y034720D01*
X010993Y034721D02*
X010207Y034721D01*
X010207Y034722D02*
X010993Y034722D01*
X010993Y034723D02*
X010207Y034723D01*
X010207Y034724D02*
X010993Y034724D01*
X010993Y034725D02*
X010207Y034725D01*
X010207Y034726D02*
X010993Y034726D01*
X010993Y034727D02*
X010207Y034727D01*
X010207Y034728D02*
X010993Y034728D01*
X010993Y034729D02*
X010207Y034729D01*
X010207Y034730D02*
X010993Y034730D01*
X010993Y034731D02*
X010207Y034731D01*
X010207Y034732D02*
X010993Y034732D01*
X010993Y034733D02*
X010207Y034733D01*
X010207Y034734D02*
X010993Y034734D01*
X010993Y034735D02*
X010207Y034735D01*
X010207Y034736D02*
X010993Y034736D01*
X010993Y034737D02*
X010207Y034737D01*
X010207Y034738D02*
X010993Y034738D01*
X010993Y034739D02*
X010207Y034739D01*
X010207Y034740D02*
X010993Y034740D01*
X010993Y034741D02*
X010207Y034741D01*
X010207Y034742D02*
X010993Y034742D01*
X010993Y034743D02*
X010207Y034743D01*
X010207Y034744D02*
X010993Y034744D01*
X010993Y034745D02*
X010207Y034745D01*
X010207Y034746D02*
X010993Y034746D01*
X010993Y034747D02*
X010207Y034747D01*
X010207Y034748D02*
X010993Y034748D01*
X010993Y034749D02*
X010207Y034749D01*
X010207Y034750D02*
X010993Y034750D01*
X010993Y034751D02*
X010207Y034751D01*
X010207Y034752D02*
X010993Y034752D01*
X010993Y034753D02*
X010207Y034753D01*
X010207Y034754D02*
X010993Y034754D01*
X010993Y034755D02*
X010207Y034755D01*
X010207Y034756D02*
X010993Y034756D01*
X010993Y034757D02*
X010207Y034757D01*
X010207Y034758D02*
X010993Y034758D01*
X010993Y034759D02*
X010207Y034759D01*
X010207Y034760D02*
X010993Y034760D01*
X010993Y034761D02*
X010207Y034761D01*
X010207Y034762D02*
X010993Y034762D01*
X010993Y034763D02*
X010207Y034763D01*
X010207Y034764D02*
X010993Y034764D01*
X010993Y034765D02*
X010207Y034765D01*
X010207Y034766D02*
X010993Y034766D01*
X010993Y034767D02*
X010207Y034767D01*
X010207Y034768D02*
X010993Y034768D01*
X010993Y034769D02*
X010207Y034769D01*
X010207Y034770D02*
X010993Y034770D01*
X010993Y034771D02*
X010207Y034771D01*
X010207Y034772D02*
X010993Y034772D01*
X010993Y034773D02*
X010207Y034773D01*
X010207Y034774D02*
X010993Y034774D01*
X010993Y034775D02*
X010207Y034775D01*
X010207Y034776D02*
X010993Y034776D01*
X010993Y034777D02*
X010207Y034777D01*
X010207Y034778D02*
X010993Y034778D01*
X010993Y034779D02*
X010207Y034779D01*
X010207Y034780D02*
X010993Y034780D01*
X010993Y034781D02*
X010207Y034781D01*
X010207Y034782D02*
X010993Y034782D01*
X010993Y034783D02*
X010207Y034783D01*
X010207Y034784D02*
X010993Y034784D01*
X010993Y034785D02*
X010207Y034785D01*
X010207Y034786D02*
X010993Y034786D01*
X010993Y034787D02*
X010207Y034787D01*
X010207Y034788D02*
X010993Y034788D01*
X010993Y034789D02*
X010207Y034789D01*
X010207Y034790D02*
X010993Y034790D01*
X010993Y034791D02*
X010207Y034791D01*
X010207Y034792D02*
X010993Y034792D01*
X010993Y034793D02*
X010207Y034793D01*
X010207Y034794D02*
X010993Y034794D01*
X010993Y034795D02*
X010207Y034795D01*
X010207Y034796D02*
X010993Y034796D01*
X010993Y034797D02*
X010207Y034797D01*
X010207Y034798D02*
X010993Y034798D01*
X010993Y034799D02*
X010207Y034799D01*
X010207Y034800D02*
X010993Y034800D01*
X010993Y034801D02*
X010207Y034801D01*
X010207Y034802D02*
X010993Y034802D01*
X010993Y034803D02*
X010207Y034803D01*
X010207Y034804D02*
X010993Y034804D01*
X010993Y034805D02*
X010207Y034805D01*
X010207Y034806D02*
X010993Y034806D01*
X010993Y034807D02*
X010207Y034807D01*
X010207Y034808D02*
X010993Y034808D01*
X010993Y034809D02*
X010207Y034809D01*
X010207Y034810D02*
X010993Y034810D01*
X010993Y034811D02*
X010207Y034811D01*
X010207Y034812D02*
X010993Y034812D01*
X010993Y034813D02*
X010207Y034813D01*
X010207Y034814D02*
X010993Y034814D01*
X010993Y034815D02*
X010207Y034815D01*
X010207Y034816D02*
X010993Y034816D01*
X010993Y034817D02*
X010207Y034817D01*
X010207Y034818D02*
X010993Y034818D01*
X010993Y034819D02*
X010207Y034819D01*
X010207Y034820D02*
X010993Y034820D01*
X010993Y034821D02*
X010207Y034821D01*
X010207Y034822D02*
X010993Y034822D01*
X010993Y034823D02*
X010207Y034823D01*
X010207Y034824D02*
X010993Y034824D01*
X010993Y034825D02*
X010207Y034825D01*
X010207Y034826D02*
X010993Y034826D01*
X010993Y034827D02*
X010207Y034827D01*
X010207Y034828D02*
X010993Y034828D01*
X010993Y034829D02*
X010207Y034829D01*
X010207Y034830D02*
X010993Y034830D01*
X010993Y034831D02*
X010207Y034831D01*
X010207Y034832D02*
X010993Y034832D01*
X010993Y034833D02*
X010207Y034833D01*
X010207Y034834D02*
X010993Y034834D01*
X010993Y034835D02*
X010207Y034835D01*
X010207Y034836D02*
X010993Y034836D01*
X010993Y034837D02*
X010207Y034837D01*
X010207Y034838D02*
X010993Y034838D01*
X010993Y034839D02*
X010207Y034839D01*
X010207Y034840D02*
X010993Y034840D01*
X010993Y034841D02*
X010207Y034841D01*
X010207Y034842D02*
X010993Y034842D01*
X010993Y034843D02*
X010207Y034843D01*
X010207Y034844D02*
X010993Y034844D01*
X010993Y034845D02*
X010207Y034845D01*
X010207Y034846D02*
X010993Y034846D01*
X010993Y034847D02*
X010207Y034847D01*
X010207Y034848D02*
X010993Y034848D01*
X010993Y034849D02*
X010207Y034849D01*
X010207Y034850D02*
X010993Y034850D01*
X010993Y034851D02*
X010207Y034851D01*
X010207Y034852D02*
X010993Y034852D01*
X010993Y034853D02*
X010207Y034853D01*
X010207Y034854D02*
X010993Y034854D01*
X010993Y034855D02*
X010207Y034855D01*
X010207Y034856D02*
X010993Y034856D01*
X010993Y034857D02*
X010207Y034857D01*
X010207Y034858D02*
X010993Y034858D01*
X010993Y034859D02*
X010207Y034859D01*
X010207Y034860D02*
X010993Y034860D01*
X010993Y034861D02*
X010207Y034861D01*
X010207Y034862D02*
X010993Y034862D01*
X010993Y034863D02*
X010207Y034863D01*
X010207Y034864D02*
X010993Y034864D01*
X010993Y034865D02*
X010207Y034865D01*
X010207Y034866D02*
X010993Y034866D01*
X010993Y034867D02*
X010207Y034867D01*
X010207Y034868D02*
X010993Y034868D01*
X010993Y034869D02*
X010207Y034869D01*
X010207Y034870D02*
X010993Y034870D01*
X010993Y034871D02*
X010207Y034871D01*
X010207Y034872D02*
X010993Y034872D01*
X010993Y034873D02*
X010207Y034873D01*
X010207Y034874D02*
X010993Y034874D01*
X010993Y034875D02*
X010207Y034875D01*
X010207Y034876D02*
X010993Y034876D01*
X010993Y034877D02*
X010207Y034877D01*
X010207Y034878D02*
X010993Y034878D01*
X010993Y034879D02*
X010207Y034879D01*
X010207Y034880D02*
X010993Y034880D01*
X010993Y034881D02*
X010207Y034881D01*
X010207Y034882D02*
X010993Y034882D01*
X010993Y034883D02*
X010207Y034883D01*
X010207Y034884D02*
X010993Y034884D01*
X010993Y034885D02*
X010207Y034885D01*
X010207Y034886D02*
X010993Y034886D01*
X010993Y034887D02*
X010207Y034887D01*
X010207Y034888D02*
X010993Y034888D01*
X010993Y034889D02*
X010207Y034889D01*
X010207Y034890D02*
X010993Y034890D01*
X010993Y034891D02*
X010207Y034891D01*
X010207Y034892D02*
X010993Y034892D01*
X010993Y034893D02*
X010207Y034893D01*
X010207Y034894D02*
X010993Y034894D01*
X010993Y034895D02*
X010207Y034895D01*
X010207Y034896D02*
X010993Y034896D01*
X010993Y034897D02*
X010207Y034897D01*
X010207Y034898D02*
X010993Y034898D01*
X010993Y034899D02*
X010207Y034899D01*
X010207Y034900D02*
X010993Y034900D01*
X010993Y034901D02*
X010207Y034901D01*
X010207Y034902D02*
X010993Y034902D01*
X010993Y034903D02*
X010207Y034903D01*
X010207Y034904D02*
X010993Y034904D01*
X010993Y034905D02*
X010207Y034905D01*
X010207Y034906D02*
X010993Y034906D01*
X010993Y034907D02*
X010207Y034907D01*
X010207Y034908D02*
X010993Y034908D01*
X010993Y034909D02*
X010207Y034909D01*
X010207Y034910D02*
X010993Y034910D01*
X010993Y034911D02*
X010207Y034911D01*
X010207Y034912D02*
X010993Y034912D01*
X010993Y034913D02*
X010207Y034913D01*
X010207Y034914D02*
X010993Y034914D01*
X010993Y034915D02*
X010207Y034915D01*
X010207Y034916D02*
X010993Y034916D01*
X010993Y034917D02*
X010207Y034917D01*
X010207Y034918D02*
X010993Y034918D01*
X010993Y034919D02*
X010207Y034919D01*
X010207Y034920D02*
X010993Y034920D01*
X010993Y034921D02*
X010207Y034921D01*
X010207Y034922D02*
X010993Y034922D01*
X010993Y034923D02*
X010207Y034923D01*
X010207Y034924D02*
X010993Y034924D01*
X010993Y034925D02*
X010207Y034925D01*
X010207Y034926D02*
X010993Y034926D01*
X010993Y034927D02*
X010207Y034927D01*
X010207Y034928D02*
X010993Y034928D01*
X010993Y034929D02*
X010207Y034929D01*
X010207Y034930D02*
X010993Y034930D01*
X010993Y034931D02*
X010207Y034931D01*
X010207Y034932D02*
X010993Y034932D01*
X010993Y034933D02*
X010207Y034933D01*
X010207Y034934D02*
X010993Y034934D01*
X010993Y034935D02*
X010207Y034935D01*
X010207Y034936D02*
X010993Y034936D01*
X010993Y034937D02*
X010207Y034937D01*
X010207Y034938D02*
X010993Y034938D01*
X010993Y034939D02*
X010207Y034939D01*
X010207Y034940D02*
X010993Y034940D01*
X010993Y034941D02*
X010207Y034941D01*
X010207Y034942D02*
X010993Y034942D01*
X010993Y034943D02*
X010207Y034943D01*
X010207Y034944D02*
X010993Y034944D01*
X010993Y034945D02*
X010207Y034945D01*
X010207Y034946D02*
X010993Y034946D01*
X010993Y034947D02*
X010207Y034947D01*
X010207Y034948D02*
X010993Y034948D01*
X010993Y034949D02*
X010207Y034949D01*
X010207Y034950D02*
X010993Y034950D01*
X010993Y034951D02*
X010207Y034951D01*
X010207Y034952D02*
X010993Y034952D01*
X010993Y034953D02*
X010207Y034953D01*
X010207Y034954D02*
X010993Y034954D01*
X010993Y034955D02*
X010207Y034955D01*
X010207Y034956D02*
X010993Y034956D01*
X010993Y034957D02*
X010207Y034957D01*
X010207Y034958D02*
X010993Y034958D01*
X010993Y034959D02*
X010207Y034959D01*
X010207Y034960D02*
X010993Y034960D01*
X010993Y034961D02*
X010207Y034961D01*
X010207Y034962D02*
X010993Y034962D01*
X010993Y034963D02*
X010207Y034963D01*
X010207Y034964D02*
X010993Y034964D01*
X010993Y034965D02*
X010207Y034965D01*
X010207Y034966D02*
X010993Y034966D01*
X010993Y034967D02*
X010207Y034967D01*
X010207Y034968D02*
X010993Y034968D01*
X010993Y034969D02*
X010207Y034969D01*
X010207Y034970D02*
X010993Y034970D01*
X010993Y034971D02*
X010207Y034971D01*
X010207Y034972D02*
X010993Y034972D01*
X010993Y034973D02*
X010207Y034973D01*
X010207Y034974D02*
X010993Y034974D01*
X010993Y034975D02*
X010207Y034975D01*
X010207Y034976D02*
X010993Y034976D01*
X010993Y034977D02*
X010207Y034977D01*
X010207Y034978D02*
X010993Y034978D01*
X010993Y034979D02*
X010207Y034979D01*
X010207Y034980D02*
X010993Y034980D01*
X010993Y034981D02*
X010207Y034981D01*
X010207Y034982D02*
X010993Y034982D01*
X010993Y034983D02*
X010207Y034983D01*
X010207Y034984D02*
X010993Y034984D01*
X010993Y034985D02*
X010207Y034985D01*
X010207Y034986D02*
X010993Y034986D01*
X010993Y034987D02*
X010207Y034987D01*
X010207Y034988D02*
X010993Y034988D01*
X010993Y034989D02*
X010207Y034989D01*
X010207Y034990D02*
X010993Y034990D01*
X010993Y034991D02*
X010207Y034991D01*
X010207Y034992D02*
X010993Y034992D01*
X010993Y034993D02*
X010207Y034993D01*
X010207Y034994D02*
X010993Y034994D01*
X010993Y034995D02*
X010207Y034995D01*
X010207Y034996D02*
X010993Y034996D01*
X010993Y034997D02*
X010207Y034997D01*
X010207Y034998D02*
X010993Y034998D01*
X010993Y034999D02*
X010207Y034999D01*
X010207Y035000D02*
X010993Y035000D01*
X010993Y035001D02*
X010207Y035001D01*
X010207Y035002D02*
X010993Y035002D01*
X010993Y035003D02*
X010207Y035003D01*
X010207Y035004D02*
X010993Y035004D01*
X010993Y035005D02*
X010207Y035005D01*
X010207Y035006D02*
X010993Y035006D01*
X010993Y035007D02*
X010207Y035007D01*
X010207Y035008D02*
X010993Y035008D01*
X010993Y035009D02*
X010207Y035009D01*
X010207Y035010D02*
X010993Y035010D01*
X010993Y035011D02*
X010207Y035011D01*
X010207Y035012D02*
X010993Y035012D01*
X010993Y035013D02*
X010207Y035013D01*
X010207Y035014D02*
X010993Y035014D01*
X010993Y035015D02*
X010207Y035015D01*
X010207Y035016D02*
X010993Y035016D01*
X010993Y035017D02*
X010207Y035017D01*
X010207Y035018D02*
X010993Y035018D01*
X010993Y035019D02*
X010207Y035019D01*
X010207Y035020D02*
X010993Y035020D01*
X010993Y035021D02*
X010207Y035021D01*
X010207Y035022D02*
X010993Y035022D01*
X010993Y035023D02*
X010207Y035023D01*
X010207Y035024D02*
X010993Y035024D01*
X010993Y035025D02*
X010207Y035025D01*
X010207Y035026D02*
X010993Y035026D01*
X010993Y035027D02*
X010207Y035027D01*
X010207Y035028D02*
X010993Y035028D01*
X010993Y035029D02*
X010207Y035029D01*
X010207Y035030D02*
X010993Y035030D01*
X010993Y035031D02*
X010207Y035031D01*
X010207Y035032D02*
X010993Y035032D01*
X010993Y035033D02*
X010207Y035033D01*
X010207Y035034D02*
X010993Y035034D01*
X010993Y035035D02*
X010207Y035035D01*
X010207Y035036D02*
X010993Y035036D01*
X010993Y035037D02*
X010207Y035037D01*
X010207Y035038D02*
X010993Y035038D01*
X010993Y035039D02*
X010207Y035039D01*
X010207Y035040D02*
X010993Y035040D01*
X010993Y035041D02*
X010207Y035041D01*
X010207Y035042D02*
X010993Y035042D01*
X010993Y035043D02*
X010207Y035043D01*
X010207Y035044D02*
X010993Y035044D01*
X010993Y035045D02*
X010207Y035045D01*
X010207Y035046D02*
X010993Y035046D01*
X010993Y035047D02*
X010207Y035047D01*
X010207Y035048D02*
X010993Y035048D01*
X010993Y035049D02*
X010207Y035049D01*
X010207Y035050D02*
X010993Y035050D01*
X010993Y035051D02*
X010207Y035051D01*
X010207Y035052D02*
X010993Y035052D01*
X010993Y035053D02*
X010207Y035053D01*
X010207Y035054D02*
X010993Y035054D01*
X010993Y035055D02*
X010207Y035055D01*
X010207Y035056D02*
X010993Y035056D01*
X010993Y035057D02*
X010207Y035057D01*
X010207Y035058D02*
X010993Y035058D01*
X010993Y035059D02*
X010207Y035059D01*
X010207Y035060D02*
X010993Y035060D01*
X010993Y035061D02*
X010207Y035061D01*
X010207Y035062D02*
X010993Y035062D01*
X010993Y035063D02*
X010207Y035063D01*
X010207Y035064D02*
X010993Y035064D01*
X010993Y035065D02*
X010207Y035065D01*
X010207Y035066D02*
X010993Y035066D01*
X010993Y035067D02*
X010207Y035067D01*
X010207Y035068D02*
X010993Y035068D01*
X010993Y035069D02*
X010207Y035069D01*
X010207Y035070D02*
X010993Y035070D01*
X010993Y035071D02*
X010207Y035071D01*
X010207Y035072D02*
X010993Y035072D01*
X010993Y035073D02*
X010207Y035073D01*
X010207Y035074D02*
X010993Y035074D01*
X010993Y035075D02*
X010207Y035075D01*
X010207Y035076D02*
X010993Y035076D01*
X010993Y035077D02*
X010207Y035077D01*
X010207Y035078D02*
X010993Y035078D01*
X010993Y035079D02*
X010207Y035079D01*
X010207Y035080D02*
X010993Y035080D01*
X010993Y035081D02*
X010207Y035081D01*
X010207Y035082D02*
X010993Y035082D01*
X010993Y035083D02*
X010207Y035083D01*
X010207Y035084D02*
X010993Y035084D01*
X010993Y035085D02*
X010207Y035085D01*
X010207Y035086D02*
X010993Y035086D01*
X010993Y035087D02*
X010207Y035087D01*
X010207Y035088D02*
X010993Y035088D01*
X010993Y035089D02*
X010207Y035089D01*
X010207Y035090D02*
X010993Y035090D01*
X010993Y035091D02*
X010207Y035091D01*
X010207Y035092D02*
X010993Y035092D01*
X010993Y035093D02*
X010207Y035093D01*
X010207Y035094D02*
X010993Y035094D01*
X010993Y035095D02*
X010207Y035095D01*
X010207Y035096D02*
X010993Y035096D01*
X010993Y035097D02*
X010207Y035097D01*
X010207Y035098D02*
X010993Y035098D01*
X010993Y035099D02*
X010207Y035099D01*
X010207Y035100D02*
X010993Y035100D01*
X010993Y035101D02*
X010207Y035101D01*
X010207Y035102D02*
X010993Y035102D01*
X010993Y035103D02*
X010207Y035103D01*
X010207Y035104D02*
X010993Y035104D01*
X010993Y035105D02*
X010207Y035105D01*
X010207Y035106D02*
X010993Y035106D01*
X010993Y035107D02*
X010207Y035107D01*
X010207Y035108D02*
X010993Y035108D01*
X010993Y035109D02*
X010207Y035109D01*
X010207Y035110D02*
X010993Y035110D01*
X010993Y035111D02*
X010207Y035111D01*
X010207Y035112D02*
X010993Y035112D01*
X010993Y035113D02*
X010207Y035113D01*
X010207Y035114D02*
X010993Y035114D01*
X010993Y035115D02*
X010207Y035115D01*
X010207Y035116D02*
X010993Y035116D01*
X010993Y035117D02*
X010207Y035117D01*
X010207Y035118D02*
X010993Y035118D01*
X010207Y035118D01*
X010207Y035119D02*
X010993Y035119D01*
X010993Y035120D02*
X010207Y035120D01*
X010207Y035121D02*
X010993Y035121D01*
X010993Y035122D02*
X010207Y035122D01*
X010207Y035123D02*
X010993Y035123D01*
X010993Y035124D02*
X010207Y035124D01*
X010207Y035125D02*
X010993Y035125D01*
X010993Y035126D02*
X010207Y035126D01*
X010207Y035127D02*
X010993Y035127D01*
X010993Y035128D02*
X010207Y035128D01*
X010207Y035129D02*
X010993Y035129D01*
X010993Y035130D02*
X010207Y035130D01*
X010207Y035131D02*
X010993Y035131D01*
X010993Y035132D02*
X010207Y035132D01*
X010207Y035133D02*
X010993Y035133D01*
X010993Y035134D02*
X010207Y035134D01*
X010207Y035135D02*
X010993Y035135D01*
X010993Y035136D02*
X010207Y035136D01*
X010207Y035137D02*
X010993Y035137D01*
X010993Y035138D02*
X010207Y035138D01*
X010207Y035139D02*
X010993Y035139D01*
X010993Y035140D02*
X010207Y035140D01*
X010207Y035141D02*
X010993Y035141D01*
X010993Y035142D02*
X010207Y035142D01*
X010207Y035143D02*
X010993Y035143D01*
X010993Y035144D02*
X010207Y035144D01*
X010207Y035145D02*
X010993Y035145D01*
X010993Y035146D02*
X010207Y035146D01*
X010207Y035147D02*
X010993Y035147D01*
X010993Y035148D02*
X010207Y035148D01*
X010207Y035149D02*
X010993Y035149D01*
X010993Y035150D02*
X010207Y035150D01*
X010207Y035151D02*
X010993Y035151D01*
X010993Y035152D02*
X010207Y035152D01*
X010207Y035153D02*
X010993Y035153D01*
X010993Y035154D02*
X010207Y035154D01*
X010207Y035155D02*
X010993Y035155D01*
X010993Y035156D02*
X010207Y035156D01*
X010207Y035157D02*
X010993Y035157D01*
X010993Y035158D02*
X010207Y035158D01*
X010207Y035159D02*
X010993Y035159D01*
X010993Y035160D02*
X010207Y035160D01*
X010207Y035161D02*
X010993Y035161D01*
X010993Y035162D02*
X010207Y035162D01*
X010207Y035163D02*
X010993Y035163D01*
X010993Y035164D02*
X010207Y035164D01*
X010207Y035165D02*
X010993Y035165D01*
X010993Y035166D02*
X010207Y035166D01*
X010207Y035167D02*
X010993Y035167D01*
X010993Y035168D02*
X010207Y035168D01*
X010207Y035169D02*
X010993Y035169D01*
X010993Y035170D02*
X010207Y035170D01*
X010207Y035171D02*
X010993Y035171D01*
X010993Y035172D02*
X010207Y035172D01*
X010207Y035173D02*
X010993Y035173D01*
X010993Y035174D02*
X010207Y035174D01*
X010207Y035175D02*
X010993Y035175D01*
X010993Y035176D02*
X010207Y035176D01*
X010207Y035177D02*
X010993Y035177D01*
X010993Y035178D02*
X010207Y035178D01*
X010207Y035179D02*
X010993Y035179D01*
X010993Y035180D02*
X010207Y035180D01*
X010207Y035181D02*
X010993Y035181D01*
X010993Y035182D02*
X010207Y035182D01*
X010207Y035183D02*
X010993Y035183D01*
X010993Y035184D02*
X010207Y035184D01*
X010207Y035185D02*
X010993Y035185D01*
X010993Y035186D02*
X010207Y035186D01*
X010207Y035187D02*
X010993Y035187D01*
X010993Y035188D02*
X010207Y035188D01*
X010207Y035189D02*
X010993Y035189D01*
X010993Y035190D02*
X010207Y035190D01*
X010207Y035191D02*
X010993Y035191D01*
X010993Y035192D02*
X010207Y035192D01*
X010207Y035193D02*
X010993Y035193D01*
X010993Y035194D02*
X010207Y035194D01*
X010207Y035195D02*
X010993Y035195D01*
X010993Y035196D02*
X010207Y035196D01*
X010207Y035197D02*
X010993Y035197D01*
X010993Y035198D02*
X010207Y035198D01*
X010207Y035199D02*
X010993Y035199D01*
X010993Y035200D02*
X010207Y035200D01*
X010207Y035201D02*
X010993Y035201D01*
X010993Y035202D02*
X010207Y035202D01*
X010207Y035203D02*
X010993Y035203D01*
X010993Y035204D02*
X010207Y035204D01*
X010207Y035205D02*
X010993Y035205D01*
X010993Y035206D02*
X010207Y035206D01*
X010207Y035207D02*
X010993Y035207D01*
X010993Y035208D02*
X010207Y035208D01*
X010207Y035209D02*
X010993Y035209D01*
X010993Y035210D02*
X010207Y035210D01*
X010207Y035211D02*
X010993Y035211D01*
X010993Y035212D02*
X010207Y035212D01*
X010207Y035213D02*
X010993Y035213D01*
X010993Y035214D02*
X010207Y035214D01*
X010207Y035215D02*
X010993Y035215D01*
X010993Y035216D02*
X010207Y035216D01*
X010207Y035217D02*
X010993Y035217D01*
X010993Y035218D02*
X010207Y035218D01*
X010207Y035219D02*
X010993Y035219D01*
X010993Y035220D02*
X010207Y035220D01*
X010207Y035221D02*
X010993Y035221D01*
X010993Y035222D02*
X010207Y035222D01*
X010207Y035223D02*
X010993Y035223D01*
X010993Y035224D02*
X010207Y035224D01*
X010207Y035225D02*
X010993Y035225D01*
X010993Y035226D02*
X010207Y035226D01*
X010207Y035227D02*
X010993Y035227D01*
X010993Y035228D02*
X010207Y035228D01*
X010207Y035229D02*
X010993Y035229D01*
X010993Y035230D02*
X010207Y035230D01*
X010207Y035231D02*
X010993Y035231D01*
X010993Y035232D02*
X010207Y035232D01*
X010207Y035233D02*
X010993Y035233D01*
X010993Y035234D02*
X010207Y035234D01*
X010207Y035235D02*
X010993Y035235D01*
X010993Y035236D02*
X010207Y035236D01*
X010207Y035237D02*
X010993Y035237D01*
X010993Y035238D02*
X010207Y035238D01*
X010207Y035239D02*
X010993Y035239D01*
X010993Y035240D02*
X010207Y035240D01*
X010207Y035241D02*
X010993Y035241D01*
X010993Y035242D02*
X010207Y035242D01*
X010207Y035243D02*
X010993Y035243D01*
X010993Y035244D02*
X010207Y035244D01*
X010207Y035245D02*
X010993Y035245D01*
X010993Y035246D02*
X010207Y035246D01*
X010207Y035247D02*
X010993Y035247D01*
X010993Y035248D02*
X010207Y035248D01*
X010207Y035249D02*
X010993Y035249D01*
X010993Y035250D02*
X010207Y035250D01*
X010207Y035251D02*
X010993Y035251D01*
X010993Y035252D02*
X010207Y035252D01*
X010207Y035253D02*
X010993Y035253D01*
X010993Y035254D02*
X010207Y035254D01*
X010207Y035255D02*
X010993Y035255D01*
X010993Y035256D02*
X010207Y035256D01*
X010207Y035257D02*
X010993Y035257D01*
X010993Y035258D02*
X010207Y035258D01*
X010207Y035259D02*
X010993Y035259D01*
X010993Y035260D02*
X010207Y035260D01*
X010207Y035261D02*
X010993Y035261D01*
X010993Y035262D02*
X010207Y035262D01*
X010207Y035263D02*
X010993Y035263D01*
X010993Y035264D02*
X010207Y035264D01*
X010207Y035265D02*
X010993Y035265D01*
X010993Y035266D02*
X010207Y035266D01*
X010207Y035267D02*
X010993Y035267D01*
X010993Y035268D02*
X010207Y035268D01*
X010207Y035269D02*
X010993Y035269D01*
X010993Y035270D02*
X010207Y035270D01*
X010207Y035271D02*
X010993Y035271D01*
X010993Y035272D02*
X010207Y035272D01*
X010207Y035273D02*
X010993Y035273D01*
X010993Y035274D02*
X010207Y035274D01*
X010207Y035275D02*
X010993Y035275D01*
X010993Y035276D02*
X010207Y035276D01*
X010207Y035277D02*
X010993Y035277D01*
X010993Y035278D02*
X010207Y035278D01*
X010207Y035279D02*
X010993Y035279D01*
X010993Y035280D02*
X010207Y035280D01*
X010207Y035281D02*
X010993Y035281D01*
X010993Y035282D02*
X010207Y035282D01*
X010207Y035283D02*
X010993Y035283D01*
X010993Y035284D02*
X010207Y035284D01*
X010207Y035285D02*
X010993Y035285D01*
X010993Y035286D02*
X010207Y035286D01*
X010207Y035287D02*
X010993Y035287D01*
X010993Y035288D02*
X010207Y035288D01*
X010207Y035289D02*
X010993Y035289D01*
X010993Y035290D02*
X010207Y035290D01*
X010207Y035291D02*
X010993Y035291D01*
X010993Y035292D02*
X010207Y035292D01*
X010207Y035293D02*
X010993Y035293D01*
X010993Y035294D02*
X010207Y035294D01*
X010207Y035295D02*
X010993Y035295D01*
X010993Y035296D02*
X010207Y035296D01*
X010207Y035297D02*
X010993Y035297D01*
X010993Y035298D02*
X010207Y035298D01*
X010207Y035299D02*
X010993Y035299D01*
X010993Y035300D02*
X010207Y035300D01*
X010207Y035301D02*
X010993Y035301D01*
X010993Y035302D02*
X010207Y035302D01*
X010207Y035303D02*
X010993Y035303D01*
X010993Y035304D02*
X010207Y035304D01*
X010207Y035305D02*
X010993Y035305D01*
X010993Y035306D02*
X010207Y035306D01*
X010207Y035307D02*
X010993Y035307D01*
X010993Y035308D02*
X010207Y035308D01*
X010207Y035309D02*
X010993Y035309D01*
X010993Y035310D02*
X010207Y035310D01*
X010207Y035311D02*
X010993Y035311D01*
X010993Y035312D02*
X010207Y035312D01*
X010207Y035313D02*
X010993Y035313D01*
X010993Y035314D02*
X010207Y035314D01*
X010207Y035315D02*
X010993Y035315D01*
X010993Y035316D02*
X010207Y035316D01*
X010207Y035317D02*
X010993Y035317D01*
X010993Y035318D02*
X010207Y035318D01*
X010207Y035319D02*
X010993Y035319D01*
X010993Y035320D02*
X010207Y035320D01*
X010207Y035321D02*
X010993Y035321D01*
X010993Y035322D02*
X010207Y035322D01*
X010207Y035323D02*
X010993Y035323D01*
X010993Y035324D02*
X010207Y035324D01*
X010207Y035325D02*
X010993Y035325D01*
X010993Y035326D02*
X010207Y035326D01*
X010207Y035327D02*
X010993Y035327D01*
X010993Y035328D02*
X010207Y035328D01*
X010207Y035329D02*
X010993Y035329D01*
X010993Y035330D02*
X010207Y035330D01*
X010207Y035331D02*
X010993Y035331D01*
X010993Y035332D02*
X010207Y035332D01*
X010207Y035333D02*
X010993Y035333D01*
X010993Y035334D02*
X010207Y035334D01*
X010207Y035335D02*
X010993Y035335D01*
X010993Y035336D02*
X010207Y035336D01*
X010207Y035337D02*
X010993Y035337D01*
X010993Y035338D02*
X010207Y035338D01*
X010207Y035339D02*
X010993Y035339D01*
X010993Y035340D02*
X010207Y035340D01*
X010207Y035341D02*
X010993Y035341D01*
X010993Y035342D02*
X010207Y035342D01*
X010207Y035343D02*
X010993Y035343D01*
X010993Y035344D02*
X010207Y035344D01*
X010207Y035345D02*
X010993Y035345D01*
X010993Y035346D02*
X010207Y035346D01*
X010207Y035347D02*
X010993Y035347D01*
X010993Y035348D02*
X010207Y035348D01*
X010207Y035349D02*
X010993Y035349D01*
X010993Y035350D02*
X010207Y035350D01*
X010207Y035351D02*
X010993Y035351D01*
X010993Y035352D02*
X010207Y035352D01*
X010207Y035353D02*
X010993Y035353D01*
X010993Y035354D02*
X010207Y035354D01*
X010207Y035355D02*
X010993Y035355D01*
X010993Y035356D02*
X010207Y035356D01*
X010207Y035357D02*
X010993Y035357D01*
X010993Y035358D02*
X010207Y035358D01*
X010207Y035359D02*
X010993Y035359D01*
X010993Y035360D02*
X010207Y035360D01*
X010207Y035361D02*
X010993Y035361D01*
X010993Y035362D02*
X010207Y035362D01*
X010207Y035363D02*
X010993Y035363D01*
X010993Y035364D02*
X010207Y035364D01*
X010207Y035365D02*
X010993Y035365D01*
X010993Y035366D02*
X010207Y035366D01*
X010207Y035367D02*
X010993Y035367D01*
X010993Y035368D02*
X010207Y035368D01*
X010207Y035369D02*
X010993Y035369D01*
X010993Y035370D02*
X010207Y035370D01*
X010207Y035371D02*
X010993Y035371D01*
X010993Y035372D02*
X010207Y035372D01*
X010207Y035373D02*
X010993Y035373D01*
X010993Y035374D02*
X010207Y035374D01*
X010207Y035375D02*
X010993Y035375D01*
X010993Y035376D02*
X010207Y035376D01*
X010207Y035377D02*
X010993Y035377D01*
X010993Y035378D02*
X010207Y035378D01*
X010207Y035379D02*
X010993Y035379D01*
X010993Y035380D02*
X010207Y035380D01*
X010207Y035381D02*
X010993Y035381D01*
X010993Y035382D02*
X010207Y035382D01*
X010207Y035383D02*
X010993Y035383D01*
X010993Y035384D02*
X010207Y035384D01*
X010207Y035385D02*
X010993Y035385D01*
X010993Y035386D02*
X010207Y035386D01*
X010207Y035387D02*
X010993Y035387D01*
X010993Y035388D02*
X010207Y035388D01*
X010207Y035389D02*
X010993Y035389D01*
X010993Y035390D02*
X010207Y035390D01*
X010207Y035391D02*
X010993Y035391D01*
X010993Y035392D02*
X010207Y035392D01*
X010207Y035393D02*
X010993Y035393D01*
X010993Y035394D02*
X010207Y035394D01*
X010207Y035395D02*
X010993Y035395D01*
X010993Y035396D02*
X010207Y035396D01*
X010207Y035397D02*
X010993Y035397D01*
X010993Y035398D02*
X010207Y035398D01*
X010207Y035399D02*
X010993Y035399D01*
X010993Y035400D02*
X010207Y035400D01*
X010207Y035401D02*
X010993Y035401D01*
X010993Y035402D02*
X010207Y035402D01*
X010207Y035403D02*
X010993Y035403D01*
X010993Y035404D02*
X010207Y035404D01*
X010207Y035405D02*
X010993Y035405D01*
X010993Y035406D02*
X010207Y035406D01*
X010207Y035407D02*
X010993Y035407D01*
X010993Y035408D02*
X010207Y035408D01*
X010207Y035409D02*
X010993Y035409D01*
X010993Y035410D02*
X010207Y035410D01*
X010207Y035411D02*
X010993Y035411D01*
X010993Y035412D02*
X010207Y035412D01*
X010207Y035413D02*
X010993Y035413D01*
X010993Y035414D02*
X010207Y035414D01*
X010207Y035415D02*
X010993Y035415D01*
X010993Y035416D02*
X010207Y035416D01*
X010207Y035417D02*
X010993Y035417D01*
X010993Y035418D02*
X010207Y035418D01*
X010207Y035419D02*
X010993Y035419D01*
X010993Y035420D02*
X010207Y035420D01*
X010207Y035421D02*
X010993Y035421D01*
X010993Y035422D02*
X010207Y035422D01*
X010207Y035423D02*
X010993Y035423D01*
X010993Y035424D02*
X010207Y035424D01*
X010207Y035425D02*
X010993Y035425D01*
X010993Y035426D02*
X010207Y035426D01*
X010207Y035427D02*
X010993Y035427D01*
X010993Y035428D02*
X010207Y035428D01*
X010207Y035429D02*
X010993Y035429D01*
X010993Y035430D02*
X010207Y035430D01*
X010207Y035431D02*
X010993Y035431D01*
X010993Y035432D02*
X010207Y035432D01*
X010207Y035433D02*
X010993Y035433D01*
X010993Y035434D02*
X010207Y035434D01*
X010207Y035435D02*
X010993Y035435D01*
X010993Y035436D02*
X010207Y035436D01*
X010207Y035437D02*
X010993Y035437D01*
X010993Y035438D02*
X010207Y035438D01*
X010207Y035439D02*
X010993Y035439D01*
X010993Y035440D02*
X010207Y035440D01*
X010207Y035441D02*
X010993Y035441D01*
X010993Y035442D02*
X010207Y035442D01*
X010207Y035443D02*
X010993Y035443D01*
X010993Y035444D02*
X010207Y035444D01*
X010207Y035445D02*
X010993Y035445D01*
X010993Y035446D02*
X010207Y035446D01*
X010207Y035447D02*
X010993Y035447D01*
X010993Y035448D02*
X010207Y035448D01*
X010207Y035449D02*
X010993Y035449D01*
X010993Y035450D02*
X010207Y035450D01*
X010207Y035451D02*
X010993Y035451D01*
X010993Y035452D02*
X010207Y035452D01*
X010207Y035453D02*
X010993Y035453D01*
X010993Y035454D02*
X010207Y035454D01*
X010207Y035455D02*
X010993Y035455D01*
X010993Y035456D02*
X010207Y035456D01*
X010207Y035457D02*
X010993Y035457D01*
X010993Y035458D02*
X010207Y035458D01*
X010207Y035459D02*
X010993Y035459D01*
X010993Y035460D02*
X010207Y035460D01*
X010207Y035461D02*
X010993Y035461D01*
X010993Y035462D02*
X010207Y035462D01*
X010207Y035463D02*
X010993Y035463D01*
X010993Y035464D02*
X010207Y035464D01*
X010207Y035465D02*
X010993Y035465D01*
X010993Y035466D02*
X010207Y035466D01*
X010207Y035467D02*
X010993Y035467D01*
X010993Y035468D02*
X010207Y035468D01*
X010207Y035469D02*
X010993Y035469D01*
X010993Y035470D02*
X010207Y035470D01*
X010207Y035471D02*
X010993Y035471D01*
X010993Y035472D02*
X010207Y035472D01*
X010207Y035473D02*
X010993Y035473D01*
X010993Y035474D02*
X010207Y035474D01*
X010207Y035475D02*
X010993Y035475D01*
X010993Y035476D02*
X010207Y035476D01*
X010207Y035477D02*
X010993Y035477D01*
X010993Y035478D02*
X010207Y035478D01*
X010207Y035479D02*
X010993Y035479D01*
X010993Y035480D02*
X010207Y035480D01*
X010207Y035481D02*
X010993Y035481D01*
X010993Y035482D02*
X010207Y035482D01*
X010207Y035483D02*
X010993Y035483D01*
X010993Y035484D02*
X010207Y035484D01*
X010207Y035485D02*
X010993Y035485D01*
X010993Y035486D02*
X010207Y035486D01*
X010207Y035487D02*
X010993Y035487D01*
X010993Y035488D02*
X010207Y035488D01*
X010207Y035489D02*
X010993Y035489D01*
X010993Y035490D02*
X010207Y035490D01*
X010207Y035491D02*
X010993Y035491D01*
X010993Y035492D02*
X010207Y035492D01*
X010207Y035493D02*
X010993Y035493D01*
X010993Y035494D02*
X010207Y035494D01*
X010207Y035495D02*
X010993Y035495D01*
X010993Y035496D02*
X010207Y035496D01*
X010207Y035497D02*
X010993Y035497D01*
X010993Y035498D02*
X010207Y035498D01*
X010207Y035499D02*
X010993Y035499D01*
X010993Y035500D02*
X010207Y035500D01*
X010207Y035501D02*
X010993Y035501D01*
X010993Y035502D02*
X010207Y035502D01*
X010207Y035503D02*
X010993Y035503D01*
X010993Y035504D02*
X010207Y035504D01*
X010207Y035505D02*
X010993Y035505D01*
X010993Y035506D02*
X010207Y035506D01*
X010207Y035507D02*
X010993Y035507D01*
X010993Y035508D02*
X010207Y035508D01*
X010207Y035509D02*
X010993Y035509D01*
X010993Y035510D02*
X010207Y035510D01*
X010207Y035511D02*
X010993Y035511D01*
X010993Y035512D02*
X010207Y035512D01*
X010207Y035513D02*
X010993Y035513D01*
X010993Y035514D02*
X010207Y035514D01*
X010207Y035515D02*
X010993Y035515D01*
X010993Y035516D02*
X010207Y035516D01*
X010207Y035517D02*
X010993Y035517D01*
X010993Y035518D02*
X010207Y035518D01*
X010207Y035519D02*
X010993Y035519D01*
X010993Y035520D02*
X010207Y035520D01*
X010207Y035521D02*
X010993Y035521D01*
X010993Y035522D02*
X010207Y035522D01*
X010207Y035523D02*
X010993Y035523D01*
X010993Y035524D02*
X010207Y035524D01*
X010207Y035525D02*
X010993Y035525D01*
X010993Y035526D02*
X010207Y035526D01*
X010207Y035527D02*
X010993Y035527D01*
X010993Y035528D02*
X010207Y035528D01*
X010207Y035529D02*
X010993Y035529D01*
X010993Y035530D02*
X010207Y035530D01*
X010207Y035531D02*
X010993Y035531D01*
X010993Y035532D02*
X010207Y035532D01*
X010207Y035533D02*
X010993Y035533D01*
X010993Y035534D02*
X010207Y035534D01*
X010207Y035535D02*
X010993Y035535D01*
X010993Y035536D02*
X010207Y035536D01*
X010207Y035537D02*
X010993Y035537D01*
X010993Y035538D02*
X010207Y035538D01*
X010207Y035539D02*
X010993Y035539D01*
X010993Y035540D02*
X010207Y035540D01*
X010207Y035541D02*
X010993Y035541D01*
X010993Y035542D02*
X010207Y035542D01*
X010207Y035543D02*
X010993Y035543D01*
X010993Y035544D02*
X010207Y035544D01*
X010207Y035545D02*
X010993Y035545D01*
X010993Y035546D02*
X010207Y035546D01*
X010207Y035547D02*
X010993Y035547D01*
X010993Y035548D02*
X010207Y035548D01*
X010207Y035549D02*
X010993Y035549D01*
X010993Y035550D02*
X010207Y035550D01*
X010207Y035551D02*
X010993Y035551D01*
X010993Y035552D02*
X010207Y035552D01*
X010207Y035553D02*
X010993Y035553D01*
X010993Y035554D02*
X010207Y035554D01*
X010207Y035555D02*
X010993Y035555D01*
X010993Y035556D02*
X010207Y035556D01*
X010207Y035557D02*
X010993Y035557D01*
X010993Y035558D02*
X010207Y035558D01*
X010207Y035559D02*
X010993Y035559D01*
X010993Y035560D02*
X010207Y035560D01*
X010207Y035561D02*
X010993Y035561D01*
X010993Y035562D02*
X010207Y035562D01*
X010207Y035563D02*
X010993Y035563D01*
X010993Y035564D02*
X010207Y035564D01*
X010207Y035565D02*
X010993Y035565D01*
X010993Y035566D02*
X010207Y035566D01*
X010207Y035567D02*
X010993Y035567D01*
X010993Y035568D02*
X010207Y035568D01*
X010207Y035569D02*
X010993Y035569D01*
X010993Y035570D02*
X010207Y035570D01*
X010207Y035571D02*
X010993Y035571D01*
X010993Y035572D02*
X010207Y035572D01*
X010207Y035573D02*
X010993Y035573D01*
X010993Y035574D02*
X010207Y035574D01*
X010207Y035575D02*
X010993Y035575D01*
X010993Y035576D02*
X010207Y035576D01*
X010207Y035577D02*
X010993Y035577D01*
X010993Y035578D02*
X010207Y035578D01*
X010207Y035579D02*
X010993Y035579D01*
X010993Y035580D02*
X010207Y035580D01*
X010207Y035581D02*
X010993Y035581D01*
X010993Y035582D02*
X010207Y035582D01*
X010207Y035583D02*
X010993Y035583D01*
X010993Y035584D02*
X010207Y035584D01*
X010207Y035585D02*
X010993Y035585D01*
X010993Y035586D02*
X010207Y035586D01*
X010207Y035587D02*
X010993Y035587D01*
X010993Y035588D02*
X010207Y035588D01*
X010207Y035589D02*
X010993Y035589D01*
X010993Y035590D02*
X010207Y035590D01*
X010207Y035591D02*
X010993Y035591D01*
X010993Y035592D02*
X010207Y035592D01*
X010207Y035593D02*
X010993Y035593D01*
X010993Y035594D02*
X010207Y035594D01*
X010207Y035595D02*
X010993Y035595D01*
X010993Y035596D02*
X010207Y035596D01*
X010207Y035597D02*
X010993Y035597D01*
X010993Y035598D02*
X010207Y035598D01*
X010207Y035599D02*
X010993Y035599D01*
X010993Y035600D02*
X010207Y035600D01*
X010207Y035601D02*
X010993Y035601D01*
X010993Y035602D02*
X010207Y035602D01*
X010207Y035603D02*
X010993Y035603D01*
X010993Y035604D02*
X010207Y035604D01*
X010207Y035605D02*
X010993Y035605D01*
X010993Y035606D02*
X010207Y035606D01*
X010207Y035607D02*
X010993Y035607D01*
X010993Y035608D02*
X010207Y035608D01*
X010207Y035609D02*
X010993Y035609D01*
X010993Y035610D02*
X010207Y035610D01*
X010207Y035611D02*
X010993Y035611D01*
X010993Y035612D02*
X010207Y035612D01*
X010207Y035613D02*
X010993Y035613D01*
X010993Y035614D02*
X010207Y035614D01*
X010207Y035615D02*
X010993Y035615D01*
X010993Y035616D02*
X010207Y035616D01*
X010207Y035617D02*
X010993Y035617D01*
X010993Y035618D02*
X010207Y035618D01*
X010207Y035619D02*
X010993Y035619D01*
X010993Y035620D02*
X010207Y035620D01*
X010207Y035621D02*
X010993Y035621D01*
X010993Y035622D02*
X010207Y035622D01*
X010207Y035623D02*
X010993Y035623D01*
X010993Y035624D02*
X010207Y035624D01*
X010207Y035625D02*
X010993Y035625D01*
X010993Y035626D02*
X010207Y035626D01*
X010207Y035627D02*
X010993Y035627D01*
X010993Y035628D02*
X010207Y035628D01*
X010207Y035629D02*
X010993Y035629D01*
X010993Y035630D02*
X010207Y035630D01*
X010207Y035631D02*
X010993Y035631D01*
X010993Y035632D02*
X010207Y035632D01*
X010207Y035633D02*
X010993Y035633D01*
X010993Y035634D02*
X010207Y035634D01*
X010207Y035635D02*
X010993Y035635D01*
X010993Y035636D02*
X010207Y035636D01*
X010207Y035637D02*
X010993Y035637D01*
X010993Y035638D02*
X010207Y035638D01*
X010207Y035639D02*
X010993Y035639D01*
X010993Y035640D02*
X010207Y035640D01*
X010207Y035641D02*
X010993Y035641D01*
X010993Y035642D02*
X010207Y035642D01*
X010207Y035643D02*
X010993Y035643D01*
X010993Y035644D02*
X010207Y035644D01*
X010207Y035645D02*
X010993Y035645D01*
X010993Y035646D02*
X010207Y035646D01*
X010207Y035647D02*
X010993Y035647D01*
X010993Y035648D02*
X010207Y035648D01*
X010207Y035649D02*
X010993Y035649D01*
X010993Y035650D02*
X010207Y035650D01*
X010207Y035651D02*
X010993Y035651D01*
X010993Y035652D02*
X010207Y035652D01*
X010207Y035653D02*
X010993Y035653D01*
X010993Y035654D02*
X010207Y035654D01*
X010207Y035655D02*
X010993Y035655D01*
X010993Y035656D02*
X010207Y035656D01*
X010207Y035657D02*
X010993Y035657D01*
X010993Y035658D02*
X010207Y035658D01*
X010207Y035659D02*
X010993Y035659D01*
X010993Y035660D02*
X010207Y035660D01*
X010207Y035661D02*
X010993Y035661D01*
X010993Y035662D02*
X010207Y035662D01*
X010207Y035663D02*
X010993Y035663D01*
X010993Y035664D02*
X010207Y035664D01*
X010207Y035665D02*
X010993Y035665D01*
X010993Y035666D02*
X010207Y035666D01*
X010207Y035667D02*
X010993Y035667D01*
X010993Y035668D02*
X010207Y035668D01*
X010207Y035669D02*
X010993Y035669D01*
X010993Y035670D02*
X010207Y035670D01*
X010207Y035671D02*
X010993Y035671D01*
X010993Y035672D02*
X010207Y035672D01*
X010207Y035673D02*
X010993Y035673D01*
X010993Y035674D02*
X010207Y035674D01*
X010207Y035675D02*
X010993Y035675D01*
X010993Y035676D02*
X010207Y035676D01*
X010207Y035677D02*
X010993Y035677D01*
X010993Y035678D02*
X010207Y035678D01*
X010207Y035679D02*
X010993Y035679D01*
X010993Y035680D02*
X010207Y035680D01*
X010207Y035681D02*
X010993Y035681D01*
X010993Y035682D02*
X010207Y035682D01*
X010207Y035683D02*
X010993Y035683D01*
X010993Y035684D02*
X010207Y035684D01*
X010207Y035685D02*
X010993Y035685D01*
X010993Y035686D02*
X010207Y035686D01*
X010207Y035687D02*
X010993Y035687D01*
X010993Y035688D02*
X010207Y035688D01*
X010207Y035689D02*
X010993Y035689D01*
X010993Y035690D02*
X010207Y035690D01*
X010207Y035691D02*
X010993Y035691D01*
X010993Y035692D02*
X010207Y035692D01*
X010207Y035693D02*
X010993Y035693D01*
X010993Y035694D02*
X010207Y035694D01*
X010207Y035695D02*
X010993Y035695D01*
X010993Y035696D02*
X010207Y035696D01*
X010207Y035697D02*
X010993Y035697D01*
X010993Y035698D02*
X010207Y035698D01*
X010207Y035699D02*
X010993Y035699D01*
X010993Y035700D02*
X010207Y035700D01*
X010207Y035701D02*
X010993Y035701D01*
X010993Y035702D02*
X010207Y035702D01*
X010207Y035703D02*
X010993Y035703D01*
X010993Y035704D02*
X010207Y035704D01*
X010207Y035705D02*
X010993Y035705D01*
X010993Y035706D02*
X010207Y035706D01*
X010207Y035707D02*
X010993Y035707D01*
X010993Y035708D02*
X010207Y035708D01*
X010207Y035709D02*
X010993Y035709D01*
X010993Y035710D02*
X010207Y035710D01*
X010207Y035711D02*
X010993Y035711D01*
X010993Y035712D02*
X010207Y035712D01*
X010207Y035713D02*
X010993Y035713D01*
X010993Y035714D02*
X010207Y035714D01*
X010207Y035715D02*
X010993Y035715D01*
X010993Y035716D02*
X010207Y035716D01*
X010207Y035717D02*
X010993Y035717D01*
X010993Y035718D02*
X010207Y035718D01*
X010207Y035719D02*
X010993Y035719D01*
X010993Y035720D02*
X010207Y035720D01*
X010207Y035721D02*
X010993Y035721D01*
X010993Y035722D02*
X010207Y035722D01*
X010207Y035723D02*
X010993Y035723D01*
X010993Y035724D02*
X010207Y035724D01*
X010207Y035725D02*
X010993Y035725D01*
X010993Y035726D02*
X010207Y035726D01*
X010207Y035727D02*
X010993Y035727D01*
X010993Y035728D02*
X010207Y035728D01*
X010207Y035729D02*
X010993Y035729D01*
X010993Y035730D02*
X010207Y035730D01*
X010207Y035731D02*
X010993Y035731D01*
X010993Y035732D02*
X010207Y035732D01*
X010207Y035733D02*
X010993Y035733D01*
X010993Y035734D02*
X010207Y035734D01*
X010207Y035735D02*
X010993Y035735D01*
X010993Y035736D02*
X010207Y035736D01*
X010207Y035737D02*
X010993Y035737D01*
X010993Y035738D02*
X010207Y035738D01*
X010207Y035739D02*
X010993Y035739D01*
X010993Y035740D02*
X010207Y035740D01*
X010207Y035741D02*
X010993Y035741D01*
X010993Y035742D02*
X010207Y035742D01*
X010207Y035743D02*
X010993Y035743D01*
X010993Y035744D02*
X010207Y035744D01*
X010207Y035745D02*
X010993Y035745D01*
X010993Y035746D02*
X010207Y035746D01*
X010207Y035747D02*
X010993Y035747D01*
X010993Y035748D02*
X010207Y035748D01*
X010207Y035749D02*
X010993Y035749D01*
X010993Y035750D02*
X010207Y035750D01*
X010207Y035751D02*
X010993Y035751D01*
X010993Y035752D02*
X010207Y035752D01*
X010207Y035753D02*
X010993Y035753D01*
X010993Y035754D02*
X010207Y035754D01*
X010207Y035755D02*
X010993Y035755D01*
X010993Y035756D02*
X010207Y035756D01*
X010207Y035757D02*
X010993Y035757D01*
X010993Y035758D02*
X010207Y035758D01*
X012238Y034426D02*
X020581Y034426D01*
X020581Y034425D02*
X012237Y034425D01*
X012236Y034424D02*
X020581Y034424D01*
X020581Y034423D02*
X012235Y034423D01*
X012234Y034422D02*
X020581Y034422D01*
X020581Y034421D02*
X012233Y034421D01*
X012232Y034420D02*
X020581Y034420D01*
X020581Y034419D02*
X012231Y034419D01*
X012230Y034418D02*
X020581Y034418D01*
X020581Y034417D02*
X012229Y034417D01*
X012228Y034416D02*
X020581Y034416D01*
X020581Y034415D02*
X012227Y034415D01*
X012226Y034414D02*
X020581Y034414D01*
X020581Y034413D02*
X012225Y034413D01*
X012224Y034412D02*
X020581Y034412D01*
X020581Y034411D02*
X012223Y034411D01*
X012222Y034410D02*
X020581Y034410D01*
X020581Y034409D02*
X012221Y034409D01*
X012220Y034408D02*
X020581Y034408D01*
X020581Y034407D02*
X012219Y034407D01*
X012218Y034406D02*
X020581Y034406D01*
X020581Y034405D02*
X012217Y034405D01*
X012216Y034404D02*
X020581Y034404D01*
X020581Y034403D02*
X012215Y034403D01*
X012214Y034402D02*
X020581Y034402D01*
X020581Y034401D02*
X012213Y034401D01*
X012212Y034400D02*
X020581Y034400D01*
X020581Y034399D02*
X012211Y034399D01*
X012210Y034398D02*
X020581Y034398D01*
X020581Y034397D02*
X012209Y034397D01*
X012208Y034396D02*
X020581Y034396D01*
X020581Y034395D02*
X012207Y034395D01*
X012206Y034394D02*
X020581Y034394D01*
X020581Y034393D02*
X012205Y034393D01*
X012204Y034392D02*
X020581Y034392D01*
X020581Y034391D02*
X012203Y034391D01*
X012202Y034390D02*
X020581Y034390D01*
X020581Y034389D02*
X012201Y034389D01*
X012200Y034388D02*
X020581Y034388D01*
X020581Y034387D02*
X012199Y034387D01*
X012198Y034386D02*
X020581Y034386D01*
X020581Y034385D02*
X012197Y034385D01*
X012196Y034384D02*
X020581Y034384D01*
X020581Y034383D02*
X019991Y034383D01*
X019992Y034382D02*
X020581Y034382D01*
X020581Y034381D02*
X019993Y034381D01*
X019994Y034380D02*
X020581Y034380D01*
X020581Y034379D02*
X019994Y034379D01*
X019995Y034378D02*
X020581Y034378D01*
X020581Y034377D02*
X019996Y034377D01*
X019997Y034376D02*
X020581Y034376D01*
X020581Y034375D02*
X019998Y034375D01*
X019999Y034374D02*
X020581Y034374D01*
X020581Y034373D02*
X019999Y034373D01*
X020000Y034372D02*
X020581Y034372D01*
X020581Y034371D02*
X020001Y034371D01*
X020002Y034370D02*
X020581Y034370D01*
X020581Y034369D02*
X020003Y034369D01*
X020004Y034368D02*
X020581Y034368D01*
X020581Y034367D02*
X020004Y034367D01*
X020005Y034366D02*
X020581Y034366D01*
X020581Y034365D02*
X020006Y034365D01*
X020007Y034364D02*
X020581Y034364D01*
X020581Y034363D02*
X020008Y034363D01*
X020009Y034362D02*
X020581Y034362D01*
X020581Y034361D02*
X020009Y034361D01*
X020010Y034360D02*
X020581Y034360D01*
X020581Y034359D02*
X020011Y034359D01*
X020012Y034358D02*
X020581Y034358D01*
X020581Y034357D02*
X020013Y034357D01*
X020014Y034356D02*
X020581Y034356D01*
X020581Y034355D02*
X020014Y034355D01*
X020015Y034354D02*
X020581Y034354D01*
X020581Y034353D02*
X020016Y034353D01*
X020017Y034352D02*
X020581Y034352D01*
X020581Y034351D02*
X020018Y034351D01*
X020019Y034350D02*
X020581Y034350D01*
X020581Y034349D02*
X020019Y034349D01*
X020020Y034348D02*
X020581Y034348D01*
X020581Y034347D02*
X020021Y034347D01*
X020022Y034346D02*
X020581Y034346D01*
X020581Y034345D02*
X020023Y034345D01*
X020024Y034344D02*
X020581Y034344D01*
X020581Y034343D02*
X020024Y034343D01*
X020025Y034342D02*
X020581Y034342D01*
X020581Y034341D02*
X020026Y034341D01*
X020027Y034340D02*
X020581Y034340D01*
X020581Y034339D02*
X020028Y034339D01*
X020029Y034338D02*
X020581Y034338D01*
X020581Y034337D02*
X020029Y034337D01*
X020030Y034336D02*
X020581Y034336D01*
X020581Y034335D02*
X020031Y034335D01*
X020032Y034334D02*
X020581Y034334D01*
X020581Y034333D02*
X020033Y034333D01*
X020034Y034332D02*
X020581Y034332D01*
X020581Y034331D02*
X020034Y034331D01*
X020035Y034330D02*
X020581Y034330D01*
X020581Y034329D02*
X020036Y034329D01*
X020037Y034328D02*
X020581Y034328D01*
X020581Y034327D02*
X020038Y034327D01*
X020039Y034326D02*
X020581Y034326D01*
X020581Y034325D02*
X020039Y034325D01*
X020040Y034324D02*
X020581Y034324D01*
X020581Y034323D02*
X020041Y034323D01*
X020042Y034322D02*
X020581Y034322D01*
X020581Y034321D02*
X020043Y034321D01*
X020044Y034320D02*
X020581Y034320D01*
X020581Y034319D02*
X020044Y034319D01*
X020045Y034318D02*
X020581Y034318D01*
X020581Y034317D02*
X020046Y034317D01*
X020047Y034316D02*
X020581Y034316D01*
X020581Y034315D02*
X020048Y034315D01*
X020049Y034314D02*
X020581Y034314D01*
X020581Y034313D02*
X020049Y034313D01*
X020050Y034312D02*
X020581Y034312D01*
X020581Y034311D02*
X020051Y034311D01*
X020052Y034310D02*
X020581Y034310D01*
X020581Y034309D02*
X020053Y034309D01*
X020054Y034308D02*
X020581Y034308D01*
X020581Y034307D02*
X020054Y034307D01*
X020055Y034306D02*
X020581Y034306D01*
X020581Y034305D02*
X020056Y034305D01*
X020057Y034304D02*
X020581Y034304D01*
X020581Y034303D02*
X020058Y034303D01*
X020059Y034302D02*
X020581Y034302D01*
X020581Y034301D02*
X020059Y034301D01*
X020060Y034300D02*
X020581Y034300D01*
X020581Y034299D02*
X020061Y034299D01*
X020062Y034298D02*
X020581Y034298D01*
X020581Y034297D02*
X020063Y034297D01*
X020064Y034296D02*
X020581Y034296D01*
X020581Y034295D02*
X020064Y034295D01*
X020065Y034294D02*
X020581Y034294D01*
X020581Y034293D02*
X020066Y034293D01*
X020067Y034292D02*
X020581Y034292D01*
X020581Y034291D02*
X020068Y034291D01*
X020069Y034290D02*
X020581Y034290D01*
X020581Y034289D02*
X020069Y034289D01*
X020070Y034288D02*
X020581Y034288D01*
X020581Y034287D02*
X020071Y034287D01*
X020072Y034286D02*
X020581Y034286D01*
X020581Y034285D02*
X020073Y034285D01*
X020074Y034284D02*
X020581Y034284D01*
X020581Y034283D02*
X020074Y034283D01*
X020075Y034282D02*
X020581Y034282D01*
X020581Y034281D02*
X020076Y034281D01*
X020077Y034280D02*
X020581Y034280D01*
X020581Y034279D02*
X020078Y034279D01*
X020079Y034278D02*
X020581Y034278D01*
X020581Y034277D02*
X020079Y034277D01*
X020080Y034276D02*
X020581Y034276D01*
X020581Y034275D02*
X020081Y034275D01*
X020082Y034274D02*
X020581Y034274D01*
X020581Y034273D02*
X020083Y034273D01*
X020084Y034272D02*
X020581Y034272D01*
X020581Y034271D02*
X020084Y034271D01*
X020085Y034270D02*
X020581Y034270D01*
X020581Y034269D02*
X020086Y034269D01*
X020087Y034268D02*
X020581Y034268D01*
X020581Y034267D02*
X020088Y034267D01*
X020089Y034266D02*
X020581Y034266D01*
X020581Y034265D02*
X020089Y034265D01*
X020090Y034264D02*
X020581Y034264D01*
X020581Y034263D02*
X020091Y034263D01*
X020092Y034262D02*
X020581Y034262D01*
X020581Y034261D02*
X020093Y034261D01*
X020094Y034260D02*
X020581Y034260D01*
X020581Y034259D02*
X020094Y034259D01*
X020095Y034258D02*
X020581Y034258D01*
X020581Y034257D02*
X020096Y034257D01*
X020097Y034256D02*
X020581Y034256D01*
X020581Y034255D02*
X020098Y034255D01*
X020099Y034254D02*
X020581Y034254D01*
X020581Y034253D02*
X020099Y034253D01*
X020100Y034252D02*
X020581Y034252D01*
X020581Y034251D02*
X020101Y034251D01*
X020102Y034250D02*
X020581Y034250D01*
X020581Y034249D02*
X020103Y034249D01*
X020104Y034248D02*
X020581Y034248D01*
X020581Y034247D02*
X020104Y034247D01*
X020105Y034246D02*
X020581Y034246D01*
X020581Y034245D02*
X020106Y034245D01*
X020107Y034244D02*
X020581Y034244D01*
X020581Y034243D02*
X020108Y034243D01*
X020109Y034242D02*
X020581Y034242D01*
X020581Y034241D02*
X020109Y034241D01*
X020110Y034240D02*
X020581Y034240D01*
X020581Y034239D02*
X020111Y034239D01*
X020112Y034238D02*
X020581Y034238D01*
X020581Y034237D02*
X020113Y034237D01*
X020114Y034236D02*
X020581Y034236D01*
X020581Y034235D02*
X020114Y034235D01*
X020115Y034234D02*
X020581Y034234D01*
X020581Y034233D02*
X020116Y034233D01*
X020117Y034232D02*
X020581Y034232D01*
X020581Y034231D02*
X020118Y034231D01*
X020119Y034230D02*
X020581Y034230D01*
X020581Y034229D02*
X020120Y034229D01*
X020120Y034228D02*
X020581Y034228D01*
X020581Y034227D02*
X020121Y034227D01*
X020122Y034226D02*
X020581Y034226D01*
X020581Y034225D02*
X020123Y034225D01*
X020124Y034224D02*
X020581Y034224D01*
X020581Y034223D02*
X020125Y034223D01*
X020125Y034222D02*
X020581Y034222D01*
X020581Y034221D02*
X020126Y034221D01*
X020127Y034220D02*
X020581Y034220D01*
X020581Y034219D02*
X020128Y034219D01*
X020129Y034218D02*
X020581Y034218D01*
X020581Y034217D02*
X020130Y034217D01*
X020130Y034216D02*
X020581Y034216D01*
X020581Y034215D02*
X020131Y034215D01*
X020132Y034214D02*
X020581Y034214D01*
X020581Y034213D02*
X020133Y034213D01*
X020134Y034212D02*
X020581Y034212D01*
X020581Y034211D02*
X020135Y034211D01*
X020135Y034210D02*
X020581Y034210D01*
X020581Y034209D02*
X020136Y034209D01*
X020137Y034208D02*
X020581Y034208D01*
X020581Y034207D02*
X020138Y034207D01*
X020139Y034206D02*
X020581Y034206D01*
X020581Y034205D02*
X020140Y034205D01*
X020140Y034204D02*
X020581Y034204D01*
X020581Y034203D02*
X020141Y034203D01*
X020142Y034202D02*
X020581Y034202D01*
X020581Y034201D02*
X020143Y034201D01*
X020144Y034200D02*
X020581Y034200D01*
X020581Y034199D02*
X020145Y034199D01*
X020145Y034198D02*
X020581Y034198D01*
X020581Y034197D02*
X020146Y034197D01*
X020147Y034196D02*
X020581Y034196D01*
X020581Y034195D02*
X020148Y034195D01*
X020149Y034194D02*
X020581Y034194D01*
X020581Y034193D02*
X020150Y034193D01*
X020150Y034192D02*
X020581Y034192D01*
X020581Y034191D02*
X020151Y034191D01*
X020152Y034190D02*
X020581Y034190D01*
X020581Y034189D02*
X020153Y034189D01*
X020154Y034188D02*
X020581Y034188D01*
X020581Y034187D02*
X020155Y034187D01*
X020155Y034186D02*
X020581Y034186D01*
X020581Y034185D02*
X020156Y034185D01*
X020157Y034184D02*
X020581Y034184D01*
X020581Y034183D02*
X020158Y034183D01*
X020159Y034182D02*
X020581Y034182D01*
X020581Y034181D02*
X020160Y034181D01*
X020160Y034180D02*
X020581Y034180D01*
X020581Y034179D02*
X020161Y034179D01*
X020162Y034178D02*
X020581Y034178D01*
X020581Y034177D02*
X020163Y034177D01*
X020164Y034176D02*
X020581Y034176D01*
X020581Y034175D02*
X020165Y034175D01*
X020165Y034174D02*
X020581Y034174D01*
X020581Y034173D02*
X020166Y034173D01*
X020167Y034172D02*
X020581Y034172D01*
X020581Y034171D02*
X020168Y034171D01*
X020169Y034170D02*
X020581Y034170D01*
X020581Y034169D02*
X020170Y034169D01*
X020170Y034168D02*
X020581Y034168D01*
X020581Y034167D02*
X020171Y034167D01*
X020172Y034166D02*
X020581Y034166D01*
X020581Y034165D02*
X020173Y034165D01*
X020174Y034164D02*
X020581Y034164D01*
X020581Y034163D02*
X020175Y034163D01*
X020175Y034162D02*
X020581Y034162D01*
X020581Y034161D02*
X020176Y034161D01*
X020177Y034160D02*
X020581Y034160D01*
X020581Y034159D02*
X020178Y034159D01*
X020179Y034158D02*
X020581Y034158D01*
X020581Y034157D02*
X020180Y034157D01*
X020180Y034156D02*
X020581Y034156D01*
X020581Y034155D02*
X020181Y034155D01*
X020182Y034154D02*
X020581Y034154D01*
X020581Y034153D02*
X020183Y034153D01*
X020184Y034152D02*
X020581Y034152D01*
X020581Y034151D02*
X020185Y034151D01*
X020185Y034150D02*
X020581Y034150D01*
X020581Y034149D02*
X020186Y034149D01*
X020187Y034148D02*
X020581Y034148D01*
X020581Y034427D02*
X012239Y034427D01*
X012240Y034428D02*
X020581Y034428D01*
X020581Y034429D02*
X012241Y034429D01*
X012242Y034430D02*
X020581Y034430D01*
X020581Y034431D02*
X012243Y034431D01*
X012244Y034432D02*
X020581Y034432D01*
X020581Y034433D02*
X012245Y034433D01*
X012246Y034434D02*
X020581Y034434D01*
X020581Y034435D02*
X012247Y034435D01*
X012248Y034436D02*
X020581Y034436D01*
X020581Y034437D02*
X012249Y034437D01*
X012250Y034438D02*
X020581Y034438D01*
X020581Y034439D02*
X012251Y034439D01*
X012252Y034440D02*
X020581Y034440D01*
X020581Y034441D02*
X012253Y034441D01*
X012254Y034442D02*
X020581Y034442D01*
X020581Y034443D02*
X012255Y034443D01*
X012256Y034444D02*
X020581Y034444D01*
X020581Y034445D02*
X012257Y034445D01*
X012258Y034446D02*
X020581Y034446D01*
X020581Y034447D02*
X012259Y034447D01*
X012260Y034448D02*
X020581Y034448D01*
X020581Y034449D02*
X012261Y034449D01*
X012262Y034450D02*
X020581Y034450D01*
X020581Y034451D02*
X012263Y034451D01*
X012264Y034452D02*
X020581Y034452D01*
X020581Y034453D02*
X012265Y034453D01*
X012266Y034454D02*
X020581Y034454D01*
X020581Y034455D02*
X012267Y034455D01*
X012268Y034456D02*
X020581Y034456D01*
X020581Y034457D02*
X012269Y034457D01*
X012270Y034458D02*
X020581Y034458D01*
X020581Y034459D02*
X012271Y034459D01*
X012272Y034460D02*
X020581Y034460D01*
X020581Y034461D02*
X012273Y034461D01*
X012274Y034462D02*
X020581Y034462D01*
X020581Y034463D02*
X012275Y034463D01*
X012276Y034464D02*
X020581Y034464D01*
X020581Y034465D02*
X012277Y034465D01*
X012278Y034466D02*
X020581Y034466D01*
X020581Y034467D02*
X012279Y034467D01*
X012280Y034468D02*
X020581Y034468D01*
X020581Y034469D02*
X012281Y034469D01*
X012282Y034470D02*
X020581Y034470D01*
X020581Y034471D02*
X012283Y034471D01*
X012284Y034472D02*
X020581Y034472D01*
X020581Y034473D02*
X012285Y034473D01*
X012286Y034474D02*
X020581Y034474D01*
X020581Y034475D02*
X012287Y034475D01*
X012288Y034476D02*
X020581Y034476D01*
X020581Y034477D02*
X012289Y034477D01*
X012290Y034478D02*
X020581Y034478D01*
X020581Y034479D02*
X012291Y034479D01*
X012292Y034480D02*
X020581Y034480D01*
X020581Y034481D02*
X012293Y034481D01*
X012294Y034482D02*
X020581Y034482D01*
X020581Y034483D02*
X012295Y034483D01*
X012296Y034484D02*
X020581Y034484D01*
X020581Y034485D02*
X012297Y034485D01*
X012298Y034486D02*
X020581Y034486D01*
X020581Y034487D02*
X012299Y034487D01*
X012300Y034488D02*
X020581Y034488D01*
X020581Y034489D02*
X012301Y034489D01*
X012302Y034490D02*
X020581Y034490D01*
X020581Y034491D02*
X012303Y034491D01*
X012304Y034492D02*
X020581Y034492D01*
X020581Y034493D02*
X012305Y034493D01*
X012306Y034494D02*
X020581Y034494D01*
X020581Y034495D02*
X012307Y034495D01*
X012308Y034496D02*
X020581Y034496D01*
X020581Y034497D02*
X012309Y034497D01*
X012310Y034498D02*
X020581Y034498D01*
X020581Y034499D02*
X012311Y034499D01*
X012312Y034500D02*
X020581Y034500D01*
X020581Y034501D02*
X012313Y034501D01*
X012314Y034502D02*
X020581Y034502D01*
X020581Y034503D02*
X012315Y034503D01*
X012316Y034504D02*
X020581Y034504D01*
X020581Y034505D02*
X012317Y034505D01*
X012318Y034506D02*
X020581Y034506D01*
X020581Y034507D02*
X012319Y034507D01*
X012320Y034508D02*
X020581Y034508D01*
X020581Y034509D02*
X012321Y034509D01*
X012322Y034510D02*
X020581Y034510D01*
X020581Y034511D02*
X012323Y034511D01*
X012324Y034512D02*
X020581Y034512D01*
X020581Y034513D02*
X012325Y034513D01*
X012326Y034514D02*
X020581Y034514D01*
X020581Y034515D02*
X012327Y034515D01*
X012328Y034516D02*
X020581Y034516D01*
X020581Y034517D02*
X012329Y034517D01*
X012330Y034518D02*
X020581Y034518D01*
X020581Y034519D02*
X012331Y034519D01*
X012332Y034520D02*
X020581Y034520D01*
X020581Y034521D02*
X012333Y034521D01*
X012334Y034522D02*
X020581Y034522D01*
X020581Y034523D02*
X012335Y034523D01*
X012336Y034524D02*
X020581Y034524D01*
X020581Y034525D02*
X012337Y034525D01*
X012338Y034526D02*
X020581Y034526D01*
X020581Y034527D02*
X012339Y034527D01*
X012340Y034528D02*
X020581Y034528D01*
X020581Y034529D02*
X012341Y034529D01*
X012342Y034530D02*
X020581Y034530D01*
X020581Y034531D02*
X012343Y034531D01*
X012344Y034532D02*
X020581Y034532D01*
X020581Y034533D02*
X012345Y034533D01*
X012346Y034534D02*
X020581Y034534D01*
X020581Y034535D02*
X012347Y034535D01*
X012348Y034536D02*
X020581Y034536D01*
X020581Y034537D02*
X012349Y034537D01*
X012350Y034538D02*
X020581Y034538D01*
X020581Y034539D02*
X012351Y034539D01*
X012352Y034540D02*
X020581Y034540D01*
X020581Y034541D02*
X012353Y034541D01*
X012354Y034542D02*
X020581Y034542D01*
X020581Y034543D02*
X012355Y034543D01*
X012356Y034544D02*
X020581Y034544D01*
X020581Y034545D02*
X012357Y034545D01*
X012358Y034546D02*
X020581Y034546D01*
X020581Y034547D02*
X012359Y034547D01*
X012360Y034548D02*
X020581Y034548D01*
X020581Y034549D02*
X012361Y034549D01*
X012362Y034550D02*
X020581Y034550D01*
X020581Y034551D02*
X012363Y034551D01*
X012364Y034552D02*
X020581Y034552D01*
X020581Y034553D02*
X012365Y034553D01*
X012366Y034554D02*
X020581Y034554D01*
X020581Y034555D02*
X012367Y034555D01*
X012368Y034556D02*
X020581Y034556D01*
X020581Y034557D02*
X012369Y034557D01*
X012370Y034558D02*
X020581Y034558D01*
X020581Y034559D02*
X012371Y034559D01*
X012372Y034560D02*
X020581Y034560D01*
X020581Y034561D02*
X012373Y034561D01*
X012374Y034562D02*
X020581Y034562D01*
X020581Y034563D02*
X012375Y034563D01*
X012376Y034564D02*
X020581Y034564D01*
X020581Y034565D02*
X012377Y034565D01*
X012378Y034566D02*
X020581Y034566D01*
X020581Y034567D02*
X012379Y034567D01*
X012380Y034568D02*
X020581Y034568D01*
X020581Y034569D02*
X012381Y034569D01*
X012382Y034570D02*
X020581Y034570D01*
X020581Y034571D02*
X012383Y034571D01*
X012384Y034572D02*
X020581Y034572D01*
X020581Y034573D02*
X012385Y034573D01*
X012386Y034574D02*
X020581Y034574D01*
X020581Y034575D02*
X012387Y034575D01*
X012388Y034576D02*
X020581Y034576D01*
X020581Y034577D02*
X012389Y034577D01*
X012390Y034578D02*
X020581Y034578D01*
X020581Y034579D02*
X012391Y034579D01*
X012392Y034580D02*
X020581Y034580D01*
X020581Y034581D02*
X012393Y034581D01*
X012394Y034582D02*
X020581Y034582D01*
X020581Y034583D02*
X012395Y034583D01*
X012396Y034584D02*
X020581Y034584D01*
X020581Y034585D02*
X012397Y034585D01*
X012398Y034586D02*
X020581Y034586D01*
X020581Y034587D02*
X012399Y034587D01*
X012400Y034588D02*
X020581Y034588D01*
X020581Y034589D02*
X012401Y034589D01*
X012402Y034590D02*
X020581Y034590D01*
X020581Y034591D02*
X012403Y034591D01*
X012404Y034592D02*
X020581Y034592D01*
X020581Y034593D02*
X012405Y034593D01*
X012406Y034594D02*
X020581Y034594D01*
X020581Y034595D02*
X012407Y034595D01*
X012408Y034596D02*
X020581Y034596D01*
X020581Y034597D02*
X012409Y034597D01*
X012410Y034598D02*
X020581Y034598D01*
X020581Y034599D02*
X012411Y034599D01*
X012412Y034600D02*
X020581Y034600D01*
X020581Y034601D02*
X012413Y034601D01*
X012414Y034602D02*
X020581Y034602D01*
X020581Y034603D02*
X012415Y034603D01*
X012416Y034604D02*
X020581Y034604D01*
X020581Y034605D02*
X012417Y034605D01*
X012418Y034606D02*
X020581Y034606D01*
X020581Y034607D02*
X012419Y034607D01*
X012420Y034608D02*
X020581Y034608D01*
X020581Y034609D02*
X012421Y034609D01*
X012422Y034610D02*
X020581Y034610D01*
X020581Y034611D02*
X012423Y034611D01*
X012424Y034612D02*
X020581Y034612D01*
X020581Y034613D02*
X012425Y034613D01*
X012426Y034614D02*
X020581Y034614D01*
X020581Y034615D02*
X012427Y034615D01*
X012428Y034616D02*
X020581Y034616D01*
X020581Y034617D02*
X012429Y034617D01*
X012430Y034618D02*
X020581Y034618D01*
X020581Y034619D02*
X012431Y034619D01*
X012432Y034620D02*
X020581Y034620D01*
X020581Y034621D02*
X012433Y034621D01*
X012434Y034622D02*
X020581Y034622D01*
X020581Y034623D02*
X012435Y034623D01*
X012436Y034624D02*
X020581Y034624D01*
X020581Y034625D02*
X012437Y034625D01*
X012438Y034626D02*
X020581Y034626D01*
X020581Y034627D02*
X012439Y034627D01*
X012440Y034628D02*
X020581Y034628D01*
X020581Y034629D02*
X012441Y034629D01*
X012442Y034630D02*
X020581Y034630D01*
X020581Y034631D02*
X012443Y034631D01*
X012444Y034632D02*
X020581Y034632D01*
X020581Y034633D02*
X012445Y034633D01*
X012446Y034634D02*
X020581Y034634D01*
X020581Y034635D02*
X012447Y034635D01*
X012448Y034636D02*
X020581Y034636D01*
X020581Y034637D02*
X012449Y034637D01*
X012450Y034638D02*
X020581Y034638D01*
X020581Y034639D02*
X012451Y034639D01*
X012452Y034640D02*
X020581Y034640D01*
X020581Y034641D02*
X012453Y034641D01*
X012454Y034642D02*
X020581Y034642D01*
X020581Y034643D02*
X012455Y034643D01*
X012456Y034644D02*
X020581Y034644D01*
X020581Y034645D02*
X012457Y034645D01*
X012458Y034646D02*
X020581Y034646D01*
X020581Y034647D02*
X012459Y034647D01*
X012460Y034648D02*
X020581Y034648D01*
X020581Y034649D02*
X012461Y034649D01*
X012462Y034650D02*
X020581Y034650D01*
X020581Y034651D02*
X012463Y034651D01*
X012464Y034652D02*
X020581Y034652D01*
X020581Y034653D02*
X012465Y034653D01*
X012466Y034654D02*
X020581Y034654D01*
X020581Y034655D02*
X012467Y034655D01*
X012468Y034656D02*
X020581Y034656D01*
X020581Y034657D02*
X012469Y034657D01*
X012470Y034658D02*
X020581Y034658D01*
X020581Y034659D02*
X012471Y034659D01*
X012472Y034660D02*
X020581Y034660D01*
X020581Y034661D02*
X012473Y034661D01*
X012474Y034662D02*
X020581Y034662D01*
X020581Y034663D02*
X012475Y034663D01*
X012476Y034664D02*
X020581Y034664D01*
X020581Y034665D02*
X012477Y034665D01*
X012478Y034666D02*
X020581Y034666D01*
X020581Y034667D02*
X012479Y034667D01*
X012480Y034668D02*
X020581Y034668D01*
X020581Y034669D02*
X012481Y034669D01*
X012482Y034670D02*
X020581Y034670D01*
X020581Y034671D02*
X012483Y034671D01*
X012484Y034672D02*
X020581Y034672D01*
X020581Y034673D02*
X012485Y034673D01*
X012486Y034674D02*
X020581Y034674D01*
X020581Y034675D02*
X012487Y034675D01*
X012488Y034676D02*
X020581Y034676D01*
X020581Y034677D02*
X012489Y034677D01*
X012490Y034678D02*
X020581Y034678D01*
X020581Y034679D02*
X012491Y034679D01*
X012492Y034680D02*
X020581Y034680D01*
X020581Y034681D02*
X012493Y034681D01*
X012494Y034682D02*
X020581Y034682D01*
X020581Y034683D02*
X012495Y034683D01*
X012496Y034684D02*
X020581Y034684D01*
X020581Y034685D02*
X012497Y034685D01*
X012498Y034686D02*
X020581Y034686D01*
X020581Y034687D02*
X012499Y034687D01*
X012500Y034688D02*
X020581Y034688D01*
X020581Y034689D02*
X012501Y034689D01*
X012502Y034690D02*
X020581Y034690D01*
X020581Y034691D02*
X012503Y034691D01*
X012504Y034692D02*
X020581Y034692D01*
X020581Y034693D02*
X012505Y034693D01*
X012506Y034694D02*
X020581Y034694D01*
X020581Y034695D02*
X012507Y034695D01*
X012508Y034696D02*
X020581Y034696D01*
X020581Y034697D02*
X012509Y034697D01*
X012510Y034698D02*
X020581Y034698D01*
X020581Y034699D02*
X012511Y034699D01*
X012512Y034700D02*
X020581Y034700D01*
X020581Y034701D02*
X012513Y034701D01*
X012514Y034702D02*
X020581Y034702D01*
X020581Y034703D02*
X012515Y034703D01*
X012516Y034704D02*
X020581Y034704D01*
X020581Y034705D02*
X012517Y034705D01*
X012518Y034706D02*
X020581Y034706D01*
X020581Y034707D02*
X012519Y034707D01*
X012520Y034708D02*
X020581Y034708D01*
X020581Y034709D02*
X012521Y034709D01*
X012522Y034710D02*
X020581Y034710D01*
X020581Y034711D02*
X012523Y034711D01*
X012524Y034712D02*
X020581Y034712D01*
X020581Y034713D02*
X012525Y034713D01*
X012526Y034714D02*
X020581Y034714D01*
X020581Y034715D02*
X012527Y034715D01*
X012528Y034716D02*
X020581Y034716D01*
X020581Y034717D02*
X012529Y034717D01*
X012530Y034718D02*
X020581Y034718D01*
X020581Y034719D02*
X012531Y034719D01*
X012532Y034720D02*
X020581Y034720D01*
X020581Y034721D02*
X012533Y034721D01*
X012534Y034722D02*
X020581Y034722D01*
X020581Y034723D02*
X012535Y034723D01*
X012536Y034724D02*
X020581Y034724D01*
X020581Y034725D02*
X012537Y034725D01*
X012538Y034726D02*
X020581Y034726D01*
X020581Y034727D02*
X012539Y034727D01*
X012540Y034728D02*
X020581Y034728D01*
X020581Y034729D02*
X012541Y034729D01*
X012542Y034730D02*
X020581Y034730D01*
X020581Y034731D02*
X012543Y034731D01*
X012544Y034732D02*
X020581Y034732D01*
X020581Y034733D02*
X012545Y034733D01*
X012546Y034734D02*
X020581Y034734D01*
X020581Y034735D02*
X012547Y034735D01*
X012548Y034736D02*
X020581Y034736D01*
X020581Y034737D02*
X012549Y034737D01*
X012550Y034738D02*
X020581Y034738D01*
X020581Y034739D02*
X012551Y034739D01*
X012552Y034740D02*
X020581Y034740D01*
X020581Y034741D02*
X012553Y034741D01*
X012554Y034742D02*
X020581Y034742D01*
X020581Y034743D02*
X012555Y034743D01*
X012556Y034744D02*
X020581Y034744D01*
X020581Y034745D02*
X012557Y034745D01*
X012558Y034746D02*
X020581Y034746D01*
X020581Y034747D02*
X012559Y034747D01*
X012560Y034748D02*
X020581Y034748D01*
X020581Y034749D02*
X012561Y034749D01*
X012562Y034750D02*
X020581Y034750D01*
X020581Y034751D02*
X012563Y034751D01*
X012564Y034752D02*
X020581Y034752D01*
X020581Y034753D02*
X012565Y034753D01*
X012566Y034754D02*
X020581Y034754D01*
X020581Y034755D02*
X012567Y034755D01*
X012568Y034756D02*
X020581Y034756D01*
X020581Y034757D02*
X012569Y034757D01*
X012570Y034758D02*
X020581Y034758D01*
X020581Y034759D02*
X012571Y034759D01*
X012572Y034760D02*
X020581Y034760D01*
X020581Y034761D02*
X012573Y034761D01*
X012574Y034762D02*
X020581Y034762D01*
X020581Y034763D02*
X012575Y034763D01*
X012576Y034764D02*
X020581Y034764D01*
X020581Y034765D02*
X012577Y034765D01*
X012578Y034766D02*
X020581Y034766D01*
X020581Y034767D02*
X012579Y034767D01*
X012580Y034768D02*
X020581Y034768D01*
X020581Y034769D02*
X012581Y034769D01*
X012582Y034770D02*
X020581Y034770D01*
X020581Y034771D02*
X012583Y034771D01*
X012584Y034772D02*
X020581Y034772D01*
X020581Y034773D02*
X012585Y034773D01*
X012586Y034774D02*
X020581Y034774D01*
X020581Y034775D02*
X012587Y034775D01*
X012588Y034776D02*
X020581Y034776D01*
X020581Y034777D02*
X012589Y034777D01*
X012590Y034778D02*
X020581Y034778D01*
X020581Y034779D02*
X012591Y034779D01*
X012592Y034780D02*
X020581Y034780D01*
X020581Y034781D02*
X012593Y034781D01*
X012594Y034782D02*
X020581Y034782D01*
X020581Y034783D02*
X012595Y034783D01*
X012596Y034784D02*
X020581Y034784D01*
X020581Y034785D02*
X012597Y034785D01*
X012598Y034786D02*
X020581Y034786D01*
X020581Y034787D02*
X012599Y034787D01*
X012600Y034788D02*
X020581Y034788D01*
X020581Y034789D02*
X012601Y034789D01*
X012602Y034790D02*
X020581Y034790D01*
X020581Y034791D02*
X012603Y034791D01*
X012604Y034792D02*
X020581Y034792D01*
X020581Y034793D02*
X012605Y034793D01*
X012606Y034794D02*
X020581Y034794D01*
X020581Y034795D02*
X012607Y034795D01*
X012608Y034796D02*
X020581Y034796D01*
X020581Y034797D02*
X012609Y034797D01*
X012610Y034798D02*
X020581Y034798D01*
X020581Y034799D02*
X012611Y034799D01*
X012612Y034800D02*
X020581Y034800D01*
X020581Y034801D02*
X012613Y034801D01*
X012614Y034802D02*
X020581Y034802D01*
X020581Y034803D02*
X012615Y034803D01*
X012616Y034804D02*
X020581Y034804D01*
X020581Y034805D02*
X012617Y034805D01*
X012618Y034806D02*
X020581Y034806D01*
X020581Y034807D02*
X012619Y034807D01*
X012620Y034808D02*
X020581Y034808D01*
X020581Y034809D02*
X012621Y034809D01*
X012622Y034810D02*
X020581Y034810D01*
X020581Y034811D02*
X012623Y034811D01*
X012624Y034812D02*
X020581Y034812D01*
X020581Y034813D02*
X012625Y034813D01*
X012626Y034814D02*
X020581Y034814D01*
X020581Y034815D02*
X012627Y034815D01*
X012628Y034816D02*
X020581Y034816D01*
X020581Y034817D02*
X012629Y034817D01*
X012630Y034818D02*
X020581Y034818D01*
X020581Y034819D02*
X012631Y034819D01*
X012632Y034820D02*
X020581Y034820D01*
X020581Y034821D02*
X012633Y034821D01*
X012634Y034822D02*
X020581Y034822D01*
X020581Y034823D02*
X012635Y034823D01*
X012636Y034824D02*
X020581Y034824D01*
X020581Y034825D02*
X012637Y034825D01*
X012638Y034826D02*
X020581Y034826D01*
X020581Y034827D02*
X012639Y034827D01*
X012640Y034828D02*
X020581Y034828D01*
X020581Y034829D02*
X012641Y034829D01*
X012642Y034830D02*
X020581Y034830D01*
X020581Y034831D02*
X012643Y034831D01*
X012644Y034832D02*
X020581Y034832D01*
X020581Y034833D02*
X012645Y034833D01*
X012646Y034834D02*
X020581Y034834D01*
X020581Y034835D02*
X012647Y034835D01*
X012648Y034836D02*
X020581Y034836D01*
X020581Y034837D02*
X012649Y034837D01*
X012650Y034838D02*
X020581Y034838D01*
X020581Y034839D02*
X012651Y034839D01*
X012652Y034840D02*
X020581Y034840D01*
X020581Y034841D02*
X012653Y034841D01*
X012654Y034842D02*
X020581Y034842D01*
X020581Y034843D02*
X012655Y034843D01*
X012656Y034844D02*
X020581Y034844D01*
X020581Y034845D02*
X012657Y034845D01*
X012658Y034846D02*
X020581Y034846D01*
X020581Y034847D02*
X012659Y034847D01*
X012660Y034848D02*
X020581Y034848D01*
X020581Y034849D02*
X012661Y034849D01*
X012662Y034850D02*
X020581Y034850D01*
X020581Y034851D02*
X012663Y034851D01*
X012664Y034852D02*
X020581Y034852D01*
X020581Y034853D02*
X012665Y034853D01*
X012666Y034854D02*
X020581Y034854D01*
X020581Y034855D02*
X012667Y034855D01*
X012668Y034856D02*
X020581Y034856D01*
X020581Y034857D02*
X012669Y034857D01*
X012670Y034858D02*
X020581Y034858D01*
X020581Y034859D02*
X012671Y034859D01*
X012672Y034860D02*
X020581Y034860D01*
X020581Y034861D02*
X012673Y034861D01*
X012674Y034862D02*
X020581Y034862D01*
X020581Y034863D02*
X012675Y034863D01*
X012676Y034864D02*
X020581Y034864D01*
X020581Y034865D02*
X012677Y034865D01*
X012678Y034866D02*
X020581Y034866D01*
X020581Y034867D02*
X012679Y034867D01*
X012680Y034868D02*
X020581Y034868D01*
X020581Y034869D02*
X012681Y034869D01*
X012682Y034870D02*
X020581Y034870D01*
X020581Y034871D02*
X012683Y034871D01*
X012684Y034872D02*
X020581Y034872D01*
X020581Y034873D02*
X012685Y034873D01*
X012686Y034874D02*
X020581Y034874D01*
X020581Y034875D02*
X012687Y034875D01*
X012688Y034876D02*
X020581Y034876D01*
X020581Y034877D02*
X012689Y034877D01*
X012690Y034878D02*
X020581Y034878D01*
X020581Y034879D02*
X012691Y034879D01*
X012692Y034880D02*
X020581Y034880D01*
X020581Y034881D02*
X012693Y034881D01*
X012694Y034882D02*
X020581Y034882D01*
X020581Y034883D02*
X012695Y034883D01*
X012696Y034884D02*
X020581Y034884D01*
X020581Y034885D02*
X012697Y034885D01*
X012698Y034886D02*
X020581Y034886D01*
X020581Y034887D02*
X012699Y034887D01*
X012700Y034888D02*
X020581Y034888D01*
X020581Y034889D02*
X012701Y034889D01*
X012702Y034890D02*
X020581Y034890D01*
X020581Y034891D02*
X012703Y034891D01*
X012704Y034892D02*
X020581Y034892D01*
X020581Y034893D02*
X012705Y034893D01*
X012706Y034894D02*
X020581Y034894D01*
X020581Y034895D02*
X012707Y034895D01*
X012708Y034896D02*
X020581Y034896D01*
X020581Y034897D02*
X012709Y034897D01*
X012710Y034898D02*
X020581Y034898D01*
X020581Y034899D02*
X012711Y034899D01*
X012712Y034900D02*
X020581Y034900D01*
X020581Y034901D02*
X012713Y034901D01*
X012714Y034902D02*
X020581Y034902D01*
X020581Y034903D02*
X012715Y034903D01*
X012716Y034904D02*
X020581Y034904D01*
X020581Y034905D02*
X012717Y034905D01*
X012718Y034906D02*
X020581Y034906D01*
X020581Y034907D02*
X012719Y034907D01*
X012720Y034908D02*
X020581Y034908D01*
X020581Y034909D02*
X012721Y034909D01*
X012722Y034910D02*
X020581Y034910D01*
X020581Y034911D02*
X012723Y034911D01*
X012724Y034912D02*
X020581Y034912D01*
X020581Y034913D02*
X012725Y034913D01*
X012726Y034914D02*
X020581Y034914D01*
X020581Y034915D02*
X012727Y034915D01*
X012728Y034916D02*
X020581Y034916D01*
X020581Y034917D02*
X012729Y034917D01*
X012730Y034918D02*
X020581Y034918D01*
X020581Y034919D02*
X012731Y034919D01*
X012732Y034920D02*
X020581Y034920D01*
X020581Y034921D02*
X012733Y034921D01*
X012734Y034922D02*
X020581Y034922D01*
X020581Y034923D02*
X012735Y034923D01*
X012736Y034924D02*
X020581Y034924D01*
X020581Y034925D02*
X012737Y034925D01*
X012738Y034926D02*
X020581Y034926D01*
X020581Y034927D02*
X012738Y034927D01*
X012739Y034928D02*
X020581Y034928D01*
X020581Y034929D02*
X012740Y034929D01*
X012741Y034930D02*
X020581Y034930D01*
X020581Y034931D02*
X012742Y034931D01*
X012743Y034932D02*
X020581Y034932D01*
X020581Y034933D02*
X012744Y034933D01*
X012745Y034934D02*
X020581Y034934D01*
X020581Y034935D02*
X012746Y034935D01*
X012747Y034936D02*
X020581Y034936D01*
X020581Y034937D02*
X012748Y034937D01*
X012749Y034938D02*
X020581Y034938D01*
X020581Y034939D02*
X012750Y034939D01*
X012751Y034940D02*
X020581Y034940D01*
X020581Y034941D02*
X012752Y034941D01*
X012753Y034942D02*
X020581Y034942D01*
X020581Y034943D02*
X012754Y034943D01*
X012755Y034944D02*
X020581Y034944D01*
X020581Y034945D02*
X012756Y034945D01*
X012757Y034946D02*
X020581Y034946D01*
X020581Y034947D02*
X012758Y034947D01*
X012759Y034948D02*
X020581Y034948D01*
X020581Y034949D02*
X012760Y034949D01*
X012761Y034950D02*
X020581Y034950D01*
X020581Y034951D02*
X012762Y034951D01*
X012763Y034952D02*
X020581Y034952D01*
X020581Y034953D02*
X012764Y034953D01*
X012765Y034954D02*
X020581Y034954D01*
X020581Y034955D02*
X012766Y034955D01*
X012767Y034956D02*
X020581Y034956D01*
X020581Y034957D02*
X012768Y034957D01*
X012769Y034958D02*
X020581Y034958D01*
X020581Y034959D02*
X012770Y034959D01*
X012771Y034960D02*
X020581Y034960D01*
X020581Y034961D02*
X012772Y034961D01*
X012773Y034962D02*
X020581Y034962D01*
X020581Y034963D02*
X012774Y034963D01*
X012775Y034964D02*
X020581Y034964D01*
X020581Y034965D02*
X012776Y034965D01*
X012777Y034966D02*
X020581Y034966D01*
X020581Y034967D02*
X012778Y034967D01*
X012779Y034968D02*
X020581Y034968D01*
X020581Y034969D02*
X012780Y034969D01*
X012781Y034970D02*
X020581Y034970D01*
X020581Y034971D02*
X012782Y034971D01*
X012783Y034972D02*
X020581Y034972D01*
X020581Y034973D02*
X012784Y034973D01*
X012785Y034974D02*
X020581Y034974D01*
X020581Y034975D02*
X012786Y034975D01*
X012787Y034976D02*
X020581Y034976D01*
X020581Y034977D02*
X012788Y034977D01*
X012789Y034978D02*
X020581Y034978D01*
X020581Y034979D02*
X012790Y034979D01*
X012791Y034980D02*
X020581Y034980D01*
X020581Y034981D02*
X012792Y034981D01*
X012793Y034982D02*
X020581Y034982D01*
X020581Y034983D02*
X012794Y034983D01*
X012795Y034984D02*
X020581Y034984D01*
X020581Y034985D02*
X012796Y034985D01*
X012797Y034986D02*
X020581Y034986D01*
X020581Y034987D02*
X012798Y034987D01*
X012799Y034988D02*
X020581Y034988D01*
X020581Y034989D02*
X012800Y034989D01*
X012801Y034990D02*
X020581Y034990D01*
X020581Y034991D02*
X012802Y034991D01*
X012803Y034992D02*
X020581Y034992D01*
X020581Y034993D02*
X012804Y034993D01*
X012805Y034994D02*
X020581Y034994D01*
X020581Y034995D02*
X012806Y034995D01*
X012807Y034996D02*
X020581Y034996D01*
X020581Y034997D02*
X012808Y034997D01*
X012809Y034998D02*
X020581Y034998D01*
X020581Y034999D02*
X012810Y034999D01*
X012811Y035000D02*
X020581Y035000D01*
X020581Y035001D02*
X012812Y035001D01*
X012813Y035002D02*
X020581Y035002D01*
X020581Y035003D02*
X012814Y035003D01*
X012815Y035004D02*
X020581Y035004D01*
X020581Y035005D02*
X012816Y035005D01*
X012817Y035006D02*
X020581Y035006D01*
X020581Y035007D02*
X012818Y035007D01*
X012819Y035008D02*
X020581Y035008D01*
X020581Y035009D02*
X012820Y035009D01*
X012821Y035010D02*
X020581Y035010D01*
X020581Y035011D02*
X012822Y035011D01*
X012823Y035012D02*
X020581Y035012D01*
X020581Y035013D02*
X012824Y035013D01*
X012825Y035014D02*
X020581Y035014D01*
X020581Y035015D02*
X012826Y035015D01*
X012827Y035016D02*
X020581Y035016D01*
X020581Y035017D02*
X012828Y035017D01*
X012829Y035018D02*
X020581Y035018D01*
X020581Y035019D02*
X012830Y035019D01*
X012831Y035020D02*
X020581Y035020D01*
X020581Y035021D02*
X012832Y035021D01*
X012833Y035022D02*
X020581Y035022D01*
X020581Y035023D02*
X012834Y035023D01*
X012835Y035024D02*
X020581Y035024D01*
X020581Y035025D02*
X012836Y035025D01*
X012837Y035026D02*
X020581Y035026D01*
X020581Y035027D02*
X012838Y035027D01*
X012839Y035028D02*
X020581Y035028D01*
X020581Y035029D02*
X012840Y035029D01*
X012841Y035030D02*
X020581Y035030D01*
X020581Y035031D02*
X012842Y035031D01*
X012843Y035032D02*
X020581Y035032D01*
X020581Y035033D02*
X012844Y035033D01*
X012845Y035034D02*
X020581Y035034D01*
X020581Y035035D02*
X012846Y035035D01*
X012847Y035036D02*
X020581Y035036D01*
X020581Y035037D02*
X012848Y035037D01*
X012849Y035038D02*
X020581Y035038D01*
X020581Y035039D02*
X012850Y035039D01*
X012851Y035040D02*
X020581Y035040D01*
X020581Y035041D02*
X012852Y035041D01*
X012853Y035042D02*
X020581Y035042D01*
X020581Y035043D02*
X012854Y035043D01*
X012855Y035044D02*
X020581Y035044D01*
X020581Y035045D02*
X012856Y035045D01*
X012857Y035046D02*
X020581Y035046D01*
X020581Y035047D02*
X012858Y035047D01*
X012859Y035048D02*
X020581Y035048D01*
X020581Y035049D02*
X012860Y035049D01*
X012861Y035050D02*
X020581Y035050D01*
X020581Y035051D02*
X012862Y035051D01*
X012863Y035052D02*
X020581Y035052D01*
X020581Y035053D02*
X012864Y035053D01*
X012865Y035054D02*
X020581Y035054D01*
X020581Y035055D02*
X012866Y035055D01*
X012867Y035056D02*
X020581Y035056D01*
X020581Y035057D02*
X012868Y035057D01*
X012869Y035058D02*
X020581Y035058D01*
X020581Y035059D02*
X012870Y035059D01*
X012871Y035060D02*
X020581Y035060D01*
X020581Y035061D02*
X012872Y035061D01*
X012873Y035062D02*
X020581Y035062D01*
X020581Y035063D02*
X012874Y035063D01*
X012875Y035064D02*
X020581Y035064D01*
X020581Y035065D02*
X012876Y035065D01*
X012877Y035066D02*
X020581Y035066D01*
X020581Y035067D02*
X012878Y035067D01*
X012879Y035068D02*
X020581Y035068D01*
X020581Y035069D02*
X012880Y035069D01*
X012881Y035070D02*
X020581Y035070D01*
X020581Y035071D02*
X012882Y035071D01*
X012883Y035072D02*
X020581Y035072D01*
X020581Y035073D02*
X012884Y035073D01*
X012885Y035074D02*
X020581Y035074D01*
X020581Y035075D02*
X012886Y035075D01*
X012887Y035076D02*
X020581Y035076D01*
X020581Y035077D02*
X012888Y035077D01*
X012889Y035078D02*
X020581Y035078D01*
X020581Y035079D02*
X012890Y035079D01*
X012891Y035080D02*
X020581Y035080D01*
X020581Y035081D02*
X012892Y035081D01*
X012893Y035082D02*
X020581Y035082D01*
X020581Y035083D02*
X012894Y035083D01*
X012895Y035084D02*
X020581Y035084D01*
X020581Y035085D02*
X012896Y035085D01*
X012897Y035086D02*
X020581Y035086D01*
X020581Y035087D02*
X012898Y035087D01*
X012899Y035088D02*
X020581Y035088D01*
X020581Y035089D02*
X012900Y035089D01*
X012901Y035090D02*
X020581Y035090D01*
X020581Y035091D02*
X012902Y035091D01*
X012903Y035092D02*
X020581Y035092D01*
X020581Y035093D02*
X012904Y035093D01*
X012905Y035094D02*
X017274Y035094D01*
X017273Y035095D02*
X012906Y035095D01*
X012907Y035096D02*
X017272Y035096D01*
X017271Y035097D02*
X012908Y035097D01*
X012909Y035098D02*
X017270Y035098D01*
X017269Y035099D02*
X012910Y035099D01*
X012911Y035100D02*
X017269Y035100D01*
X017268Y035101D02*
X012912Y035101D01*
X012913Y035102D02*
X017267Y035102D01*
X017266Y035103D02*
X012914Y035103D01*
X012915Y035104D02*
X017265Y035104D01*
X017264Y035105D02*
X012916Y035105D01*
X012917Y035106D02*
X017264Y035106D01*
X017263Y035107D02*
X012918Y035107D01*
X012919Y035108D02*
X017262Y035108D01*
X017261Y035109D02*
X012920Y035109D01*
X012921Y035110D02*
X017260Y035110D01*
X017259Y035111D02*
X012922Y035111D01*
X012923Y035112D02*
X017259Y035112D01*
X017258Y035113D02*
X012924Y035113D01*
X012925Y035114D02*
X017257Y035114D01*
X017256Y035115D02*
X012926Y035115D01*
X012927Y035116D02*
X017255Y035116D01*
X017254Y035117D02*
X012928Y035117D01*
X012929Y035118D02*
X017254Y035118D01*
X017253Y035118D02*
X012930Y035118D01*
X012931Y035119D02*
X017252Y035119D01*
X017251Y035120D02*
X012932Y035120D01*
X012933Y035121D02*
X017250Y035121D01*
X017249Y035122D02*
X012934Y035122D01*
X012935Y035123D02*
X017249Y035123D01*
X017248Y035124D02*
X012936Y035124D01*
X012937Y035125D02*
X017247Y035125D01*
X017246Y035126D02*
X012938Y035126D01*
X012939Y035127D02*
X017245Y035127D01*
X017244Y035128D02*
X012940Y035128D01*
X012941Y035129D02*
X017244Y035129D01*
X017243Y035130D02*
X012942Y035130D01*
X012943Y035131D02*
X017242Y035131D01*
X017241Y035132D02*
X012944Y035132D01*
X012945Y035133D02*
X017240Y035133D01*
X017239Y035134D02*
X012946Y035134D01*
X012947Y035135D02*
X017239Y035135D01*
X017238Y035136D02*
X012948Y035136D01*
X012949Y035137D02*
X017237Y035137D01*
X017236Y035138D02*
X012950Y035138D01*
X012951Y035139D02*
X017235Y035139D01*
X017234Y035140D02*
X012952Y035140D01*
X012953Y035141D02*
X017234Y035141D01*
X017233Y035142D02*
X012954Y035142D01*
X012955Y035143D02*
X017232Y035143D01*
X017231Y035144D02*
X012956Y035144D01*
X012957Y035145D02*
X017230Y035145D01*
X017229Y035146D02*
X012958Y035146D01*
X012959Y035147D02*
X017229Y035147D01*
X017228Y035148D02*
X012960Y035148D01*
X012961Y035149D02*
X017227Y035149D01*
X017226Y035150D02*
X012962Y035150D01*
X012963Y035151D02*
X017225Y035151D01*
X017224Y035152D02*
X012964Y035152D01*
X012965Y035153D02*
X017224Y035153D01*
X017223Y035154D02*
X012966Y035154D01*
X012967Y035155D02*
X017222Y035155D01*
X017221Y035156D02*
X012968Y035156D01*
X012969Y035157D02*
X017220Y035157D01*
X017219Y035158D02*
X012970Y035158D01*
X012971Y035159D02*
X017219Y035159D01*
X017218Y035160D02*
X012972Y035160D01*
X012973Y035161D02*
X017217Y035161D01*
X017216Y035162D02*
X012974Y035162D01*
X012975Y035163D02*
X017215Y035163D01*
X017214Y035164D02*
X012976Y035164D01*
X012977Y035165D02*
X017214Y035165D01*
X017213Y035166D02*
X012978Y035166D01*
X012979Y035167D02*
X017212Y035167D01*
X017211Y035168D02*
X012980Y035168D01*
X012981Y035169D02*
X017210Y035169D01*
X017209Y035170D02*
X012982Y035170D01*
X012983Y035171D02*
X017209Y035171D01*
X017208Y035172D02*
X012984Y035172D01*
X012985Y035173D02*
X017207Y035173D01*
X017206Y035174D02*
X012986Y035174D01*
X012987Y035175D02*
X017205Y035175D01*
X017204Y035176D02*
X012988Y035176D01*
X012989Y035177D02*
X017204Y035177D01*
X017203Y035178D02*
X012990Y035178D01*
X012991Y035179D02*
X017202Y035179D01*
X017201Y035180D02*
X012992Y035180D01*
X012993Y035181D02*
X017200Y035181D01*
X017199Y035182D02*
X012994Y035182D01*
X012995Y035183D02*
X017199Y035183D01*
X017198Y035184D02*
X012996Y035184D01*
X012997Y035185D02*
X017197Y035185D01*
X017196Y035186D02*
X012998Y035186D01*
X012999Y035187D02*
X017195Y035187D01*
X017194Y035188D02*
X013000Y035188D01*
X013001Y035189D02*
X017194Y035189D01*
X017193Y035190D02*
X013002Y035190D01*
X013003Y035191D02*
X017192Y035191D01*
X017191Y035192D02*
X013004Y035192D01*
X013005Y035193D02*
X017190Y035193D01*
X017189Y035194D02*
X013006Y035194D01*
X013007Y035195D02*
X017189Y035195D01*
X017188Y035196D02*
X013008Y035196D01*
X013009Y035197D02*
X017187Y035197D01*
X017186Y035198D02*
X013010Y035198D01*
X013011Y035199D02*
X017185Y035199D01*
X017184Y035200D02*
X013012Y035200D01*
X013013Y035201D02*
X017184Y035201D01*
X017183Y035202D02*
X013014Y035202D01*
X013015Y035203D02*
X017182Y035203D01*
X017181Y035204D02*
X013016Y035204D01*
X013017Y035205D02*
X017180Y035205D01*
X017179Y035206D02*
X013018Y035206D01*
X013019Y035207D02*
X017179Y035207D01*
X017178Y035208D02*
X013020Y035208D01*
X013021Y035209D02*
X017177Y035209D01*
X017176Y035210D02*
X013022Y035210D01*
X013023Y035211D02*
X017175Y035211D01*
X017174Y035212D02*
X013024Y035212D01*
X013025Y035213D02*
X017174Y035213D01*
X017173Y035214D02*
X013026Y035214D01*
X013027Y035215D02*
X017172Y035215D01*
X017171Y035216D02*
X013028Y035216D01*
X013029Y035217D02*
X017170Y035217D01*
X017169Y035218D02*
X013030Y035218D01*
X013031Y035219D02*
X017169Y035219D01*
X017168Y035220D02*
X013032Y035220D01*
X013033Y035221D02*
X017167Y035221D01*
X017166Y035222D02*
X013034Y035222D01*
X013035Y035223D02*
X017165Y035223D01*
X017164Y035224D02*
X013036Y035224D01*
X013037Y035225D02*
X017164Y035225D01*
X017163Y035226D02*
X013038Y035226D01*
X013039Y035227D02*
X017162Y035227D01*
X017161Y035228D02*
X013040Y035228D01*
X013041Y035229D02*
X017160Y035229D01*
X017159Y035230D02*
X013042Y035230D01*
X013043Y035231D02*
X017159Y035231D01*
X017158Y035232D02*
X013044Y035232D01*
X013045Y035233D02*
X017157Y035233D01*
X017156Y035234D02*
X013046Y035234D01*
X013047Y035235D02*
X017155Y035235D01*
X017154Y035236D02*
X013048Y035236D01*
X013049Y035237D02*
X017154Y035237D01*
X017153Y035238D02*
X013050Y035238D01*
X013051Y035239D02*
X017152Y035239D01*
X017151Y035240D02*
X013052Y035240D01*
X013053Y035241D02*
X017150Y035241D01*
X017149Y035242D02*
X013054Y035242D01*
X013055Y035243D02*
X017149Y035243D01*
X017148Y035244D02*
X013056Y035244D01*
X013057Y035245D02*
X017147Y035245D01*
X017146Y035246D02*
X013058Y035246D01*
X013059Y035247D02*
X017145Y035247D01*
X017144Y035248D02*
X013060Y035248D01*
X013061Y035249D02*
X017144Y035249D01*
X017143Y035250D02*
X013062Y035250D01*
X013063Y035251D02*
X017142Y035251D01*
X017141Y035252D02*
X013064Y035252D01*
X013065Y035253D02*
X017140Y035253D01*
X017139Y035254D02*
X013066Y035254D01*
X013067Y035255D02*
X017139Y035255D01*
X017138Y035256D02*
X013068Y035256D01*
X013069Y035257D02*
X017137Y035257D01*
X017136Y035258D02*
X013070Y035258D01*
X013071Y035259D02*
X017135Y035259D01*
X017134Y035260D02*
X013072Y035260D01*
X013073Y035261D02*
X017134Y035261D01*
X017133Y035262D02*
X013074Y035262D01*
X013075Y035263D02*
X017132Y035263D01*
X017131Y035264D02*
X013076Y035264D01*
X013077Y035265D02*
X017130Y035265D01*
X017129Y035266D02*
X013078Y035266D01*
X013079Y035267D02*
X017129Y035267D01*
X017128Y035268D02*
X013080Y035268D01*
X013081Y035269D02*
X017127Y035269D01*
X017126Y035270D02*
X013082Y035270D01*
X013083Y035271D02*
X017125Y035271D01*
X017124Y035272D02*
X013084Y035272D01*
X013085Y035273D02*
X017124Y035273D01*
X017123Y035274D02*
X013086Y035274D01*
X013087Y035275D02*
X017122Y035275D01*
X017121Y035276D02*
X013088Y035276D01*
X013089Y035277D02*
X017120Y035277D01*
X017119Y035278D02*
X013090Y035278D01*
X013091Y035279D02*
X017119Y035279D01*
X017118Y035280D02*
X013092Y035280D01*
X013093Y035281D02*
X017117Y035281D01*
X017116Y035282D02*
X013094Y035282D01*
X013095Y035283D02*
X017115Y035283D01*
X017114Y035284D02*
X013096Y035284D01*
X013097Y035285D02*
X017114Y035285D01*
X017113Y035286D02*
X013098Y035286D01*
X013099Y035287D02*
X017112Y035287D01*
X017111Y035288D02*
X013100Y035288D01*
X013101Y035289D02*
X017110Y035289D01*
X017110Y035290D02*
X013102Y035290D01*
X013103Y035291D02*
X017109Y035291D01*
X017108Y035292D02*
X013104Y035292D01*
X013105Y035293D02*
X017107Y035293D01*
X017106Y035294D02*
X013106Y035294D01*
X013107Y035295D02*
X017105Y035295D01*
X017105Y035296D02*
X013108Y035296D01*
X013109Y035297D02*
X017104Y035297D01*
X017103Y035298D02*
X013110Y035298D01*
X013111Y035299D02*
X017102Y035299D01*
X017101Y035300D02*
X013112Y035300D01*
X013113Y035301D02*
X017100Y035301D01*
X017100Y035302D02*
X013114Y035302D01*
X013115Y035303D02*
X017099Y035303D01*
X017098Y035304D02*
X013116Y035304D01*
X013117Y035305D02*
X017097Y035305D01*
X017096Y035306D02*
X013118Y035306D01*
X013119Y035307D02*
X017095Y035307D01*
X017095Y035308D02*
X013120Y035308D01*
X013121Y035309D02*
X017094Y035309D01*
X017093Y035310D02*
X013122Y035310D01*
X013123Y035311D02*
X017092Y035311D01*
X017091Y035312D02*
X013124Y035312D01*
X013125Y035313D02*
X017090Y035313D01*
X017090Y035314D02*
X013126Y035314D01*
X013127Y035315D02*
X017089Y035315D01*
X017088Y035316D02*
X013128Y035316D01*
X013129Y035317D02*
X017087Y035317D01*
X017086Y035318D02*
X013130Y035318D01*
X013131Y035319D02*
X017085Y035319D01*
X017085Y035320D02*
X013132Y035320D01*
X013133Y035321D02*
X017084Y035321D01*
X017083Y035322D02*
X013134Y035322D01*
X013135Y035323D02*
X017082Y035323D01*
X017081Y035324D02*
X013136Y035324D01*
X013137Y035325D02*
X017080Y035325D01*
X017080Y035326D02*
X013138Y035326D01*
X013139Y035327D02*
X017079Y035327D01*
X017078Y035328D02*
X013140Y035328D01*
X012195Y034383D02*
X017273Y034383D01*
X017273Y034382D02*
X012194Y034382D01*
X012193Y034381D02*
X017272Y034381D01*
X017271Y034380D02*
X012192Y034380D01*
X012191Y034379D02*
X017270Y034379D01*
X017269Y034378D02*
X012190Y034378D01*
X012189Y034377D02*
X017268Y034377D01*
X017268Y034376D02*
X012188Y034376D01*
X012187Y034375D02*
X017267Y034375D01*
X017266Y034374D02*
X012186Y034374D01*
X012185Y034373D02*
X017265Y034373D01*
X017264Y034372D02*
X012184Y034372D01*
X012183Y034371D02*
X017263Y034371D01*
X017263Y034370D02*
X012182Y034370D01*
X012181Y034369D02*
X017262Y034369D01*
X017261Y034368D02*
X012180Y034368D01*
X012179Y034367D02*
X017260Y034367D01*
X017259Y034366D02*
X012178Y034366D01*
X012177Y034365D02*
X017258Y034365D01*
X017258Y034364D02*
X012176Y034364D01*
X012175Y034363D02*
X017257Y034363D01*
X017256Y034362D02*
X012174Y034362D01*
X012173Y034361D02*
X017255Y034361D01*
X017254Y034360D02*
X012172Y034360D01*
X012171Y034359D02*
X017253Y034359D01*
X017253Y034358D02*
X012170Y034358D01*
X012169Y034357D02*
X017252Y034357D01*
X017251Y034356D02*
X012168Y034356D01*
X012167Y034355D02*
X017250Y034355D01*
X017249Y034354D02*
X012166Y034354D01*
X012165Y034353D02*
X017248Y034353D01*
X017248Y034352D02*
X012164Y034352D01*
X012163Y034351D02*
X017247Y034351D01*
X017246Y034350D02*
X012162Y034350D01*
X012161Y034349D02*
X017245Y034349D01*
X017244Y034348D02*
X012160Y034348D01*
X012159Y034347D02*
X017243Y034347D01*
X017243Y034346D02*
X012158Y034346D01*
X012157Y034345D02*
X017242Y034345D01*
X017241Y034344D02*
X012156Y034344D01*
X012155Y034343D02*
X017240Y034343D01*
X017239Y034342D02*
X012154Y034342D01*
X012153Y034341D02*
X017238Y034341D01*
X017238Y034340D02*
X012152Y034340D01*
X012151Y034339D02*
X017237Y034339D01*
X017236Y034338D02*
X012150Y034338D01*
X012149Y034337D02*
X017235Y034337D01*
X017234Y034336D02*
X012148Y034336D01*
X012147Y034335D02*
X017233Y034335D01*
X017233Y034334D02*
X012146Y034334D01*
X012145Y034333D02*
X017232Y034333D01*
X017231Y034332D02*
X012144Y034332D01*
X012143Y034331D02*
X017230Y034331D01*
X017229Y034330D02*
X012142Y034330D01*
X012141Y034329D02*
X017228Y034329D01*
X017228Y034328D02*
X012140Y034328D01*
X012139Y034327D02*
X017227Y034327D01*
X017226Y034326D02*
X012138Y034326D01*
X012137Y034325D02*
X017225Y034325D01*
X017224Y034324D02*
X012136Y034324D01*
X012135Y034323D02*
X017223Y034323D01*
X017223Y034322D02*
X012134Y034322D01*
X012133Y034321D02*
X017222Y034321D01*
X017221Y034320D02*
X012132Y034320D01*
X012131Y034319D02*
X017220Y034319D01*
X017219Y034318D02*
X012130Y034318D01*
X012129Y034317D02*
X017218Y034317D01*
X017218Y034316D02*
X012128Y034316D01*
X012127Y034315D02*
X017217Y034315D01*
X017216Y034314D02*
X012126Y034314D01*
X012125Y034313D02*
X017215Y034313D01*
X017214Y034312D02*
X012124Y034312D01*
X012123Y034311D02*
X017213Y034311D01*
X017213Y034310D02*
X012122Y034310D01*
X012121Y034309D02*
X017212Y034309D01*
X017211Y034308D02*
X012120Y034308D01*
X019991Y035094D02*
X020581Y035094D01*
X020581Y035095D02*
X019992Y035095D01*
X019993Y035096D02*
X020581Y035096D01*
X020581Y035097D02*
X019994Y035097D01*
X019994Y035098D02*
X020581Y035098D01*
X020581Y035099D02*
X019995Y035099D01*
X019996Y035100D02*
X020581Y035100D01*
X020581Y035101D02*
X019997Y035101D01*
X019998Y035102D02*
X020581Y035102D01*
X020581Y035103D02*
X019999Y035103D01*
X019999Y035104D02*
X020581Y035104D01*
X020581Y035105D02*
X020000Y035105D01*
X020001Y035106D02*
X020581Y035106D01*
X020581Y035107D02*
X020002Y035107D01*
X020003Y035108D02*
X020581Y035108D01*
X020581Y035109D02*
X020004Y035109D01*
X020004Y035110D02*
X020581Y035110D01*
X020581Y035111D02*
X020005Y035111D01*
X020006Y035112D02*
X020581Y035112D01*
X020581Y035113D02*
X020007Y035113D01*
X020008Y035114D02*
X020581Y035114D01*
X020581Y035115D02*
X020009Y035115D01*
X020009Y035116D02*
X020581Y035116D01*
X020581Y035117D02*
X020010Y035117D01*
X020011Y035118D02*
X020581Y035118D01*
X020012Y035118D01*
X020013Y035119D02*
X020581Y035119D01*
X020581Y035120D02*
X020014Y035120D01*
X020014Y035121D02*
X020581Y035121D01*
X020581Y035122D02*
X020015Y035122D01*
X020016Y035123D02*
X020581Y035123D01*
X020581Y035124D02*
X020017Y035124D01*
X020018Y035125D02*
X020581Y035125D01*
X020581Y035126D02*
X020019Y035126D01*
X020019Y035127D02*
X020581Y035127D01*
X020581Y035128D02*
X020020Y035128D01*
X020021Y035129D02*
X020581Y035129D01*
X020581Y035130D02*
X020022Y035130D01*
X020023Y035131D02*
X020581Y035131D01*
X020581Y035132D02*
X020024Y035132D01*
X020024Y035133D02*
X020581Y035133D01*
X020581Y035134D02*
X020025Y035134D01*
X020026Y035135D02*
X020581Y035135D01*
X020581Y035136D02*
X020027Y035136D01*
X020028Y035137D02*
X020581Y035137D01*
X020581Y035138D02*
X020029Y035138D01*
X020029Y035139D02*
X020581Y035139D01*
X020581Y035140D02*
X020030Y035140D01*
X020031Y035141D02*
X020581Y035141D01*
X020581Y035142D02*
X020032Y035142D01*
X020033Y035143D02*
X020581Y035143D01*
X020581Y035144D02*
X020034Y035144D01*
X020034Y035145D02*
X020581Y035145D01*
X020581Y035146D02*
X020035Y035146D01*
X020036Y035147D02*
X020581Y035147D01*
X020581Y035148D02*
X020037Y035148D01*
X020038Y035149D02*
X020581Y035149D01*
X020581Y035150D02*
X020039Y035150D01*
X020039Y035151D02*
X020581Y035151D01*
X020581Y035152D02*
X020040Y035152D01*
X020041Y035153D02*
X020581Y035153D01*
X020581Y035154D02*
X020042Y035154D01*
X020043Y035155D02*
X020581Y035155D01*
X020581Y035156D02*
X020044Y035156D01*
X020044Y035157D02*
X020581Y035157D01*
X020581Y035158D02*
X020045Y035158D01*
X020046Y035159D02*
X020581Y035159D01*
X020581Y035160D02*
X020047Y035160D01*
X020048Y035161D02*
X020581Y035161D01*
X020581Y035162D02*
X020049Y035162D01*
X020049Y035163D02*
X020581Y035163D01*
X020581Y035164D02*
X020050Y035164D01*
X020051Y035165D02*
X020581Y035165D01*
X020581Y035166D02*
X020052Y035166D01*
X020053Y035167D02*
X020581Y035167D01*
X020581Y035168D02*
X020053Y035168D01*
X020054Y035169D02*
X020581Y035169D01*
X020581Y035170D02*
X020055Y035170D01*
X020056Y035171D02*
X020581Y035171D01*
X020581Y035172D02*
X020057Y035172D01*
X020058Y035173D02*
X020581Y035173D01*
X020581Y035174D02*
X020058Y035174D01*
X020059Y035175D02*
X020581Y035175D01*
X020581Y035176D02*
X020060Y035176D01*
X020061Y035177D02*
X020581Y035177D01*
X020581Y035178D02*
X020062Y035178D01*
X020063Y035179D02*
X020581Y035179D01*
X020581Y035180D02*
X020063Y035180D01*
X020064Y035181D02*
X020581Y035181D01*
X020581Y035182D02*
X020065Y035182D01*
X020066Y035183D02*
X020581Y035183D01*
X020581Y035184D02*
X020067Y035184D01*
X020068Y035185D02*
X020581Y035185D01*
X020581Y035186D02*
X020068Y035186D01*
X020069Y035187D02*
X020581Y035187D01*
X020581Y035188D02*
X020070Y035188D01*
X020071Y035189D02*
X020581Y035189D01*
X020581Y035190D02*
X020072Y035190D01*
X020073Y035191D02*
X020581Y035191D01*
X020581Y035192D02*
X020073Y035192D01*
X020074Y035193D02*
X020581Y035193D01*
X020581Y035194D02*
X020075Y035194D01*
X020076Y035195D02*
X020581Y035195D01*
X020581Y035196D02*
X020077Y035196D01*
X020078Y035197D02*
X020581Y035197D01*
X020581Y035198D02*
X020078Y035198D01*
X020079Y035199D02*
X020581Y035199D01*
X020581Y035200D02*
X020080Y035200D01*
X020081Y035201D02*
X020581Y035201D01*
X020581Y035202D02*
X020082Y035202D01*
X020083Y035203D02*
X020581Y035203D01*
X020581Y035204D02*
X020083Y035204D01*
X020084Y035205D02*
X020581Y035205D01*
X020581Y035206D02*
X020085Y035206D01*
X020086Y035207D02*
X020581Y035207D01*
X020581Y035208D02*
X020087Y035208D01*
X020088Y035209D02*
X020581Y035209D01*
X020581Y035210D02*
X020088Y035210D01*
X020089Y035211D02*
X020581Y035211D01*
X020581Y035212D02*
X020090Y035212D01*
X020091Y035213D02*
X020581Y035213D01*
X020581Y035214D02*
X020092Y035214D01*
X020093Y035215D02*
X020581Y035215D01*
X020581Y035216D02*
X020093Y035216D01*
X020094Y035217D02*
X020581Y035217D01*
X020581Y035218D02*
X020095Y035218D01*
X020096Y035219D02*
X020581Y035219D01*
X020581Y035220D02*
X020097Y035220D01*
X020098Y035221D02*
X020581Y035221D01*
X020581Y035222D02*
X020098Y035222D01*
X020099Y035223D02*
X020581Y035223D01*
X020581Y035224D02*
X020100Y035224D01*
X020101Y035225D02*
X020581Y035225D01*
X020581Y035226D02*
X020102Y035226D01*
X020103Y035227D02*
X020581Y035227D01*
X020581Y035228D02*
X020103Y035228D01*
X020104Y035229D02*
X020581Y035229D01*
X020581Y035230D02*
X020105Y035230D01*
X020106Y035231D02*
X020581Y035231D01*
X020581Y035232D02*
X020107Y035232D01*
X020108Y035233D02*
X020581Y035233D01*
X020581Y035234D02*
X020108Y035234D01*
X020109Y035235D02*
X020581Y035235D01*
X020581Y035236D02*
X020110Y035236D01*
X020111Y035237D02*
X020581Y035237D01*
X020581Y035238D02*
X020112Y035238D01*
X020113Y035239D02*
X020581Y035239D01*
X020581Y035240D02*
X020113Y035240D01*
X020114Y035241D02*
X020581Y035241D01*
X020581Y035242D02*
X020115Y035242D01*
X020116Y035243D02*
X020581Y035243D01*
X020581Y035244D02*
X020117Y035244D01*
X020118Y035245D02*
X020581Y035245D01*
X020581Y035246D02*
X020118Y035246D01*
X020119Y035247D02*
X020581Y035247D01*
X020581Y035248D02*
X020120Y035248D01*
X020121Y035249D02*
X020581Y035249D01*
X020581Y035250D02*
X020122Y035250D01*
X020123Y035251D02*
X020581Y035251D01*
X020581Y035252D02*
X020123Y035252D01*
X020124Y035253D02*
X020581Y035253D01*
X020581Y035254D02*
X020125Y035254D01*
X020126Y035255D02*
X020581Y035255D01*
X020581Y035256D02*
X020127Y035256D01*
X020128Y035257D02*
X020581Y035257D01*
X020581Y035258D02*
X020128Y035258D01*
X020129Y035259D02*
X020581Y035259D01*
X020581Y035260D02*
X020130Y035260D01*
X020131Y035261D02*
X020581Y035261D01*
X020581Y035262D02*
X020132Y035262D01*
X020133Y035263D02*
X020581Y035263D01*
X020581Y035264D02*
X020133Y035264D01*
X020134Y035265D02*
X020581Y035265D01*
X020581Y035266D02*
X020135Y035266D01*
X020136Y035267D02*
X020581Y035267D01*
X020581Y035268D02*
X020137Y035268D01*
X020138Y035269D02*
X020581Y035269D01*
X020581Y035270D02*
X020138Y035270D01*
X020139Y035271D02*
X020581Y035271D01*
X020581Y035272D02*
X020140Y035272D01*
X020141Y035273D02*
X020581Y035273D01*
X020581Y035274D02*
X020142Y035274D01*
X020143Y035275D02*
X020581Y035275D01*
X020581Y035276D02*
X020143Y035276D01*
X020144Y035277D02*
X020581Y035277D01*
X020581Y035278D02*
X020145Y035278D01*
X020146Y035279D02*
X020581Y035279D01*
X020581Y035280D02*
X020147Y035280D01*
X020148Y035281D02*
X020581Y035281D01*
X020581Y035282D02*
X020148Y035282D01*
X020149Y035283D02*
X020581Y035283D01*
X020581Y035284D02*
X020150Y035284D01*
X020151Y035285D02*
X020581Y035285D01*
X020581Y035286D02*
X020152Y035286D01*
X020153Y035287D02*
X020581Y035287D01*
X020581Y035288D02*
X020153Y035288D01*
X020154Y035289D02*
X020581Y035289D01*
X020581Y035290D02*
X020155Y035290D01*
X020156Y035291D02*
X020581Y035291D01*
X020581Y035292D02*
X020157Y035292D01*
X020158Y035293D02*
X020581Y035293D01*
X020581Y035294D02*
X020158Y035294D01*
X020159Y035295D02*
X020581Y035295D01*
X020581Y035296D02*
X020160Y035296D01*
X020161Y035297D02*
X020581Y035297D01*
X020581Y035298D02*
X020162Y035298D01*
X020163Y035299D02*
X020581Y035299D01*
X020581Y035300D02*
X020163Y035300D01*
X020164Y035301D02*
X020581Y035301D01*
X020581Y035302D02*
X020165Y035302D01*
X020166Y035303D02*
X020581Y035303D01*
X020581Y035304D02*
X020167Y035304D01*
X020168Y035305D02*
X020581Y035305D01*
X020581Y035306D02*
X020168Y035306D01*
X020169Y035307D02*
X020581Y035307D01*
X020581Y035308D02*
X020170Y035308D01*
X020171Y035309D02*
X020581Y035309D01*
X020581Y035310D02*
X020172Y035310D01*
X020173Y035311D02*
X020581Y035311D01*
X020581Y035312D02*
X020173Y035312D01*
X020174Y035313D02*
X020581Y035313D01*
X020581Y035314D02*
X020175Y035314D01*
X020176Y035315D02*
X020581Y035315D01*
X020581Y035316D02*
X020177Y035316D01*
X020178Y035317D02*
X020581Y035317D01*
X020581Y035318D02*
X020178Y035318D01*
X020179Y035319D02*
X020581Y035319D01*
X020581Y035320D02*
X020180Y035320D01*
X020181Y035321D02*
X020581Y035321D01*
X020581Y035322D02*
X020182Y035322D01*
X020183Y035323D02*
X020581Y035323D01*
X020581Y035324D02*
X020183Y035324D01*
X020184Y035325D02*
X020581Y035325D01*
X020581Y035326D02*
X020185Y035326D01*
X020186Y035327D02*
X020581Y035327D01*
X020581Y035328D02*
X020187Y035328D01*
D14*
X020483Y034739D03*
D15*
X008100Y030750D02*
X008100Y029950D01*
X008000Y029850D01*
X007200Y029850D01*
X007100Y029950D01*
X007000Y029850D01*
X006200Y029850D01*
X006100Y029950D01*
X006000Y029850D01*
X005200Y029850D01*
X005100Y029950D01*
X005100Y030750D01*
X005200Y030850D01*
X006000Y030850D01*
X006100Y030750D01*
X006200Y030850D01*
X007000Y030850D01*
X007100Y030750D01*
X007200Y030850D01*
X008000Y030850D01*
X008100Y030750D01*
X004475Y034280D02*
X003720Y034280D01*
X003720Y034920D02*
X004475Y034920D01*
X002100Y034850D02*
X002100Y034350D01*
X001850Y034100D01*
X001350Y034100D01*
X001100Y034350D01*
X001100Y034850D01*
X001350Y035100D01*
X001850Y035100D01*
X002100Y034850D01*
D16*
X005600Y030630D02*
X005600Y030070D01*
X006600Y030070D02*
X006600Y030630D01*
X007600Y030630D02*
X007600Y030070D01*
D17*
X007682Y029665D02*
X007795Y029665D01*
X007852Y029609D01*
X007852Y029552D01*
X007795Y029495D01*
X007852Y029438D01*
X007852Y029382D01*
X007795Y029325D01*
X007682Y029325D01*
X007625Y029382D01*
X007738Y029495D02*
X007795Y029495D01*
X007625Y029609D02*
X007682Y029665D01*
X006852Y029609D02*
X006795Y029665D01*
X006682Y029665D01*
X006625Y029609D01*
X006852Y029609D02*
X006852Y029552D01*
X006625Y029325D01*
X006852Y029325D01*
X005852Y029325D02*
X005625Y029325D01*
X005738Y029325D02*
X005738Y029665D01*
X005625Y029552D01*
X005685Y031025D02*
X005685Y031475D01*
X005911Y031475D01*
X005986Y031400D01*
X005986Y031250D01*
X005911Y031175D01*
X005685Y031175D01*
X005450Y031100D02*
X005450Y031475D01*
X005375Y031475D02*
X005525Y031475D01*
X005450Y031100D02*
X005375Y031025D01*
X005300Y031025D01*
X005225Y031100D01*
X006146Y031025D02*
X006446Y031025D01*
X006296Y031025D02*
X006296Y031475D01*
X006146Y031325D01*
X002316Y035345D02*
X002016Y035345D01*
X002316Y035645D01*
X002316Y035720D01*
X002241Y035795D01*
X002091Y035795D01*
X002016Y035720D01*
X001856Y035720D02*
X001856Y035570D01*
X001781Y035495D01*
X001555Y035495D01*
X001555Y035345D02*
X001555Y035795D01*
X001781Y035795D01*
X001856Y035720D01*
X001395Y035795D02*
X001245Y035795D01*
X001320Y035795D02*
X001320Y035420D01*
X001245Y035345D01*
X001170Y035345D01*
X001095Y035420D01*
D18*
X005600Y030350D03*
X006600Y030350D03*
X007600Y030350D03*
D19*
X005987Y032126D02*
X005213Y032126D01*
X005213Y034074D01*
X005987Y034074D01*
X005987Y032126D01*
X005074Y034213D02*
X003126Y034213D01*
X003126Y034987D01*
X005074Y034987D01*
X005074Y034213D01*
D20*
X005290Y033480D02*
X005290Y032720D01*
X005130Y032699D02*
X004823Y032699D01*
X004823Y032929D01*
X004900Y033006D01*
X005130Y033006D01*
X005130Y033160D02*
X004670Y033160D01*
X004670Y033467D01*
X004900Y033313D02*
X004900Y033160D01*
X004823Y032546D02*
X004746Y032546D01*
X004670Y032469D01*
X004670Y032316D01*
X004746Y032239D01*
X004746Y032085D02*
X004823Y032085D01*
X004900Y032009D01*
X004900Y031855D01*
X004823Y031778D01*
X004746Y031778D01*
X004670Y031855D01*
X004670Y032009D01*
X004746Y032085D01*
X004900Y032009D02*
X004977Y032085D01*
X005053Y032085D01*
X005130Y032009D01*
X005130Y031855D01*
X005053Y031778D01*
X004977Y031778D01*
X004900Y031855D01*
X005130Y032239D02*
X004823Y032546D01*
X005130Y032546D02*
X005130Y032239D01*
X005910Y032720D02*
X005910Y033480D01*
X006070Y033313D02*
X006530Y033313D01*
X006530Y033160D02*
X006530Y033467D01*
X006223Y033160D02*
X006070Y033313D01*
X006146Y033006D02*
X006070Y032929D01*
X006070Y032776D01*
X006146Y032699D01*
X006453Y032699D01*
X006530Y032776D01*
X006530Y032929D01*
X006453Y033006D01*
X004337Y035070D02*
X004030Y035070D01*
X003877Y035070D02*
X003723Y035223D01*
X003800Y035223D02*
X003570Y035223D01*
X003570Y035070D02*
X003570Y035530D01*
X003800Y035530D01*
X003877Y035454D01*
X003877Y035300D01*
X003800Y035223D01*
X004030Y035377D02*
X004184Y035530D01*
X004184Y035070D01*
D21*
X005600Y033651D03*
X005600Y032549D03*
D22*
X005600Y032578D03*
X005600Y033622D03*
D23*
X004660Y034600D03*
X003540Y034600D03*
D24*
X003580Y034600D03*
X004620Y034600D03*
D25*
X001600Y034600D03*
D26*
X001600Y034600D03*
D27*
X003540Y034600D01*
X004660Y034600D02*
X005600Y034600D01*
X007850Y034600D01*
X008222Y034228D01*
X009754Y034228D01*
X009754Y033972D02*
X010600Y033972D01*
X010600Y034350D01*
X010734Y034484D01*
X011446Y034484D01*
X009754Y033716D02*
X008216Y033716D01*
X006600Y032100D01*
X006600Y030350D01*
X005600Y030350D02*
X005600Y032549D01*
X005600Y033651D02*
X005600Y034600D01*
M02*
